$MeshFormat
4.1 0 8
$EndMeshFormat
$PhysicalNames
5
2 16 "Base"
2 17 "Load"
2 18 "Xfixo"
2 19 "zfixo"
3 15 "Volume"
$EndPhysicalNames
$Entities
8 12 6 1
1 0 0 1 0 
2 0 0 0 0 
3 0 1 1 0 
4 0 1 0 0 
5 1 0 1 0 
6 1 0 0 0 
7 1 1 1 0 
8 1 1 0 0 
1 -1e-07 -1e-07 -9.999999994736442e-08 1e-07 1e-07 1.0000001 0 2 2 -1 
2 -1e-07 -9.999999994736442e-08 0.9999999000000001 1e-07 1.0000001 1.0000001 0 2 1 -3 
3 -1e-07 0.9999999000000001 -9.999999994736442e-08 1e-07 1.0000001 1.0000001 0 2 4 -3 
4 -1e-07 -9.999999994736442e-08 -1e-07 1e-07 1.0000001 1e-07 0 2 2 -4 
5 0.9999999000000001 -1e-07 -9.999999994736442e-08 1.0000001 1e-07 1.0000001 0 2 6 -5 
6 0.9999999000000001 -9.999999994736442e-08 0.9999999000000001 1.0000001 1.0000001 1.0000001 0 2 5 -7 
7 0.9999999000000001 0.9999999000000001 -9.999999994736442e-08 1.0000001 1.0000001 1.0000001 0 2 8 -7 
8 0.9999999000000001 -9.999999994736442e-08 -1e-07 1.0000001 1.0000001 1e-07 0 2 6 -8 
9 -9.999999994736442e-08 -1e-07 -1e-07 1.0000001 1e-07 1e-07 0 2 2 -6 
10 -9.999999994736442e-08 -1e-07 0.9999999000000001 1.0000001 1e-07 1.0000001 0 2 1 -5 
11 -9.999999994736442e-08 0.9999999000000001 -1e-07 1.0000001 1.0000001 1e-07 0 2 4 -8 
12 -9.999999994736442e-08 0.9999999000000001 0.9999999000000001 1.0000001 1.0000001 1.0000001 0 2 3 -7 
1 -1e-07 -9.999999994736442e-08 -9.999999994736442e-08 1e-07 1.0000001 1.0000001 1 16 4 -1 4 3 -2 
2 0.9999999000000001 -9.999999994736442e-08 -9.999999994736442e-08 1.0000001 1.0000001 1.0000001 1 17 4 -5 8 7 -6 
3 -9.999999994736442e-08 -1e-07 -9.999999994736442e-08 1.0000001 1e-07 1.0000001 1 18 4 -9 1 10 -5 
4 -9.999999994736442e-08 0.9999999000000001 -9.999999994736442e-08 1.0000001 1.0000001 1.0000001 1 18 4 -11 3 12 -7 
5 -9.999999994736442e-08 -9.999999994736442e-08 -1e-07 1.0000001 1.0000001 1e-07 1 19 4 -4 9 8 -11 
6 -9.999999994736442e-08 -9.999999994736442e-08 0.9999999000000001 1.0000001 1.0000001 1.0000001 1 19 4 -2 10 6 -12 
1 -9.999999994736442e-08 -9.999999994736442e-08 -9.999999994736442e-08 1.0000001 1.0000001 1.0000001 1 15 6 -1 2 -3 4 -5 6 
$EndEntities
$Nodes
27 125 1 125
0 1 0 1
1
0 0 1
0 2 0 1
2
0 0 0
0 3 0 1
3
0 1 1
0 4 0 1
4
0 1 0
0 5 0 1
5
1 0 1
0 6 0 1
6
1 0 0
0 7 0 1
7
1 1 1
0 8 0 1
8
1 1 0
1 1 0 3
9
10
11
0 0 0.25
0 0 0.4999999999999999
0 0 0.75
1 2 0 3
12
13
14
0 0.25 1
0 0.4999999999999999 1
0 0.75 1
1 3 0 3
15
16
17
0 1 0.25
0 1 0.4999999999999999
0 1 0.75
1 4 0 3
18
19
20
0 0.25 0
0 0.4999999999999999 0
0 0.75 0
1 5 0 3
21
22
23
1 0 0.25
1 0 0.4999999999999999
1 0 0.75
1 6 0 3
24
25
26
1 0.25 1
1 0.4999999999999999 1
1 0.75 1
1 7 0 3
27
28
29
1 1 0.25
1 1 0.4999999999999999
1 1 0.75
1 8 0 3
30
31
32
1 0.25 0
1 0.4999999999999999 0
1 0.75 0
1 9 0 3
33
34
35
0.25 0 0
0.4999999999999999 0 0
0.75 0 0
1 10 0 3
36
37
38
0.25 0 1
0.4999999999999999 0 1
0.75 0 1
1 11 0 3
39
40
41
0.25 1 0
0.4999999999999999 1 0
0.75 1 0
1 12 0 3
42
43
44
0.25 1 1
0.4999999999999999 1 1
0.75 1 1
2 1 0 9
45
46
47
48
49
50
51
52
53
0 0.5 0.5
0 0.25 0.25
0 0.25 0.5
0 0.5 0.25
0 0.25 0.75
0 0.75 0.25
0 0.75 0.5
0 0.5 0.75
0 0.75 0.75
2 2 0 9
54
55
56
57
58
59
60
61
62
1 0.5 0.5
1 0.25 0.25
1 0.5 0.25
1 0.25 0.5
1 0.75 0.25
1 0.25 0.75
1 0.75 0.5
1 0.75 0.75
1 0.5 0.75
2 3 0 9
63
64
65
66
67
68
69
70
71
0.5 0 0.5
0.25 0 0.25
0.5 0 0.25
0.25 0 0.5
0.75 0 0.25
0.25 0 0.75
0.5 0 0.75
0.75 0 0.5
0.75 0 0.75
2 4 0 9
72
73
74
75
76
77
78
79
80
0.5 1 0.5
0.25 1 0.25
0.25 1 0.5
0.5 1 0.25
0.25 1 0.75
0.75 1 0.25
0.5 1 0.75
0.75 1 0.75
0.75 1 0.5
2 5 0 9
81
82
83
84
85
86
87
88
89
0.5 0.5 0
0.25 0.25 0
0.25 0.5 0
0.5 0.25 0
0.25 0.75 0
0.75 0.25 0
0.75 0.5 0
0.5 0.75 0
0.75 0.75 0
2 6 0 9
90
91
92
93
94
95
96
97
98
0.5 0.5 1
0.25 0.25 1
0.5 0.25 1
0.25 0.5 1
0.75 0.25 1
0.25 0.75 1
0.75 0.5 1
0.75 0.75 1
0.5 0.75 1
3 1 0 27
99
100
101
102
103
104
105
106
107
108
109
110
111
112
113
114
115
116
117
118
119
120
121
122
123
124
125
0.5 0.5 0.5
0.25 0.25 0.5
0.25 0.5 0.25
0.5 0.25 0.25
0.25 0.25 0.25
0.25 0.75 0.25
0.5 0.5 0.25
0.25 0.5 0.5
0.25 0.25 0.75
0.75 0.25 0.25
0.5 0.25 0.75
0.75 0.25 0.5
0.75 0.25 0.75
0.5 0.25 0.5
0.75 0.5 0.5
0.5 0.75 0.25
0.75 0.75 0.25
0.75 0.5 0.25
0.25 0.75 0.5
0.5 0.5 0.75
0.25 0.75 0.75
0.25 0.5 0.75
0.75 0.75 0.5
0.75 0.5 0.75
0.5 0.75 0.75
0.5 0.75 0.5
0.75 0.75 0.75
$EndNodes
$Elements
7 576 1 576
2 1 2 32
1 2 9 18 
2 9 46 18 
3 9 10 46 
4 18 46 19 
5 10 47 46 
6 47 48 46 
7 47 45 48 
8 46 48 19 
9 10 11 47 
10 11 49 47 
11 11 1 49 
12 47 49 45 
13 19 48 20 
14 48 50 20 
15 48 45 50 
16 20 50 4 
17 4 50 15 
18 50 51 15 
19 50 45 51 
20 15 51 16 
21 45 52 51 
22 52 53 51 
23 52 13 53 
24 51 53 16 
25 45 49 52 
26 49 12 52 
27 49 1 12 
28 52 12 13 
29 16 53 17 
30 53 14 17 
31 53 13 14 
32 17 14 3 
2 2 2 32
33 6 30 21 
34 30 55 21 
35 30 31 55 
36 21 55 22 
37 31 56 55 
38 56 57 55 
39 56 54 57 
40 55 57 22 
41 31 32 56 
42 32 58 56 
43 32 8 58 
44 56 58 54 
45 22 57 23 
46 57 59 23 
47 57 54 59 
48 23 59 5 
49 8 27 58 
50 27 60 58 
51 27 28 60 
52 58 60 54 
53 28 61 60 
54 61 62 60 
55 61 25 62 
56 60 62 54 
57 28 29 61 
58 29 26 61 
59 29 7 26 
60 61 26 25 
61 54 62 59 
62 62 24 59 
63 62 25 24 
64 59 24 5 
2 3 2 32
65 2 33 9 
66 33 64 9 
67 33 34 64 
68 9 64 10 
69 34 65 64 
70 65 66 64 
71 65 63 66 
72 64 66 10 
73 34 35 65 
74 35 67 65 
75 35 6 67 
76 65 67 63 
77 10 66 11 
78 66 68 11 
79 66 63 68 
80 11 68 1 
81 1 68 36 
82 68 69 36 
83 68 63 69 
84 36 69 37 
85 63 70 69 
86 70 71 69 
87 70 22 71 
88 69 71 37 
89 63 67 70 
90 67 21 70 
91 67 6 21 
92 70 21 22 
93 37 71 38 
94 71 23 38 
95 71 22 23 
96 38 23 5 
2 4 2 32
97 4 15 39 
98 15 73 39 
99 15 16 73 
100 39 73 40 
101 16 74 73 
102 74 75 73 
103 74 72 75 
104 73 75 40 
105 16 17 74 
106 17 76 74 
107 17 3 76 
108 74 76 72 
109 40 75 41 
110 75 77 41 
111 75 72 77 
112 41 77 8 
113 3 42 76 
114 42 78 76 
115 42 43 78 
116 76 78 72 
117 43 79 78 
118 79 80 78 
119 79 28 80 
120 78 80 72 
121 43 44 79 
122 44 29 79 
123 44 7 29 
124 79 29 28 
125 72 80 77 
126 80 27 77 
127 80 28 27 
128 77 27 8 
2 5 2 32
129 2 18 33 
130 18 82 33 
131 18 19 82 
132 33 82 34 
133 19 83 82 
134 83 84 82 
135 83 81 84 
136 82 84 34 
137 19 20 83 
138 20 85 83 
139 20 4 85 
140 83 85 81 
141 34 84 35 
142 84 86 35 
143 84 81 86 
144 35 86 6 
145 6 86 30 
146 86 87 30 
147 86 81 87 
148 30 87 31 
149 81 88 87 
150 88 89 87 
151 88 40 89 
152 87 89 31 
153 81 85 88 
154 85 39 88 
155 85 4 39 
156 88 39 40 
157 31 89 32 
158 89 41 32 
159 89 40 41 
160 32 41 8 
2 6 2 32
161 1 36 12 
162 36 91 12 
163 36 37 91 
164 12 91 13 
165 37 92 91 
166 92 93 91 
167 92 90 93 
168 91 93 13 
169 37 38 92 
170 38 94 92 
171 38 5 94 
172 92 94 90 
173 13 93 14 
174 93 95 14 
175 93 90 95 
176 14 95 3 
177 5 24 94 
178 24 96 94 
179 24 25 96 
180 94 96 90 
181 25 97 96 
182 97 98 96 
183 97 43 98 
184 96 98 90 
185 25 26 97 
186 26 44 97 
187 26 7 44 
188 97 44 43 
189 90 98 95 
190 98 42 95 
191 98 43 42 
192 95 42 3 
3 1 4 384
193 1 11 49 68 
194 11 10 47 66 
195 49 47 45 100 
196 68 66 100 63 
197 11 49 68 66 
198 11 66 47 49 
199 49 68 66 100 
200 49 100 66 47 
201 10 9 46 64 
202 9 2 18 33 
203 46 18 19 82 
204 64 33 82 34 
205 9 46 64 33 
206 9 33 18 46 
207 46 64 33 82 
208 46 82 33 18 
209 45 48 50 101 
210 48 19 20 83 
211 50 20 4 85 
212 101 83 85 81 
213 48 50 101 83 
214 48 83 20 50 
215 50 101 83 85 
216 50 85 83 20 
217 63 65 102 67 
218 65 34 84 35 
219 102 84 81 86 
220 67 35 86 6 
221 65 102 67 35 
222 65 35 84 102 
223 102 67 35 86 
224 102 86 35 84 
225 10 47 66 64 
226 47 45 100 103 
227 66 100 63 65 
228 64 103 65 34 
229 47 66 64 103 
230 47 103 100 66 
231 66 64 103 65 
232 66 65 103 100 
233 10 64 46 47 
234 64 34 82 103 
235 46 82 19 48 
236 47 103 48 45 
237 64 46 47 103 
238 64 103 82 46 
239 46 47 103 48 
240 46 48 103 82 
241 45 100 103 101 
242 100 63 65 102 
243 103 65 34 84 
244 101 102 84 81 
245 100 103 101 102 
246 100 102 65 103 
247 103 101 102 84 
248 103 84 102 65 
249 45 101 103 48 
250 101 81 84 83 
251 103 84 34 82 
252 48 83 82 19 
253 101 103 48 83 
254 101 83 84 103 
255 103 48 83 82 
256 103 82 83 84 
257 4 50 85 104 
258 50 45 101 106 
259 85 101 81 105 
260 104 106 105 99 
261 50 85 104 106 
262 50 106 101 85 
263 85 104 106 105 
264 85 105 106 101 
265 45 49 100 107 
266 49 1 68 36 
267 100 68 63 69 
268 107 36 69 37 
269 49 100 107 36 
270 49 36 68 100 
271 100 107 36 69 
272 100 69 36 68 
273 81 102 86 108 
274 102 63 67 70 
275 86 67 6 21 
276 108 70 21 22 
277 102 86 108 70 
278 102 70 67 86 
279 86 108 70 21 
280 86 21 70 67 
281 99 109 110 111 
282 109 37 71 38 
283 110 71 22 23 
284 111 38 23 5 
285 109 110 111 38 
286 109 38 71 110 
287 110 111 38 23 
288 110 23 38 71 
289 45 101 106 107 
290 101 81 105 112 
291 106 105 99 109 
292 107 112 109 37 
293 101 106 107 112 
294 101 112 105 106 
295 106 107 112 109 
296 106 109 112 105 
297 45 107 100 101 
298 107 37 69 112 
299 100 69 63 102 
300 101 112 102 81 
301 107 100 101 112 
302 107 112 69 100 
303 100 101 112 102 
304 100 102 112 69 
305 81 105 112 108 
306 105 99 109 110 
307 112 109 37 71 
308 108 110 71 22 
309 105 112 108 110 
310 105 110 109 112 
311 112 108 110 71 
312 112 71 110 109 
313 81 108 112 102 
314 108 22 71 70 
315 112 71 37 69 
316 102 70 69 63 
317 108 112 102 70 
318 108 70 71 112 
319 112 102 70 69 
320 112 69 70 71 
321 5 23 111 59 
322 23 22 110 57 
323 111 110 99 113 
324 59 57 113 54 
325 23 111 59 57 
326 23 57 110 111 
327 111 59 57 113 
328 111 113 57 110 
329 22 21 108 55 
330 21 6 86 30 
331 108 86 81 87 
332 55 30 87 31 
333 21 108 55 30 
334 21 30 86 108 
335 108 55 30 87 
336 108 87 30 86 
337 99 105 104 114 
338 105 81 85 88 
339 104 85 4 39 
340 114 88 39 40 
341 105 104 114 88 
342 105 88 85 104 
343 104 114 88 39 
344 104 39 88 85 
345 54 56 115 58 
346 56 31 89 32 
347 115 89 40 41 
348 58 32 41 8 
349 56 115 58 32 
350 56 32 89 115 
351 115 58 32 41 
352 115 41 32 89 
353 22 110 57 55 
354 110 99 113 116 
355 57 113 54 56 
356 55 116 56 31 
357 110 57 55 116 
358 110 116 113 57 
359 57 55 116 56 
360 57 56 116 113 
361 22 55 108 110 
362 55 31 87 116 
363 108 87 81 105 
364 110 116 105 99 
365 55 108 110 116 
366 55 116 87 108 
367 108 110 116 105 
368 108 105 116 87 
369 99 113 116 114 
370 113 54 56 115 
371 116 56 31 89 
372 114 115 89 40 
373 113 116 114 115 
374 113 115 56 116 
375 116 114 115 89 
376 116 89 115 56 
377 99 114 116 105 
378 114 40 89 88 
379 116 89 31 87 
380 105 88 87 81 
381 114 116 105 88 
382 114 88 89 116 
383 116 105 88 87 
384 116 87 88 89 
385 4 50 104 15 
386 50 45 106 51 
387 104 106 99 117 
388 15 51 117 16 
389 50 104 15 51 
390 50 51 106 104 
391 104 15 51 117 
392 104 117 51 106 
393 45 49 107 52 
394 49 1 36 12 
395 107 36 37 91 
396 52 12 91 13 
397 49 107 52 12 
398 49 12 36 107 
399 107 52 12 91 
400 107 91 12 36 
401 99 109 111 118 
402 109 37 38 92 
403 111 38 5 94 
404 118 92 94 90 
405 109 111 118 92 
406 109 92 38 111 
407 111 118 92 94 
408 111 94 92 38 
409 16 53 119 17 
410 53 13 93 14 
411 119 93 90 95 
412 17 14 95 3 
413 53 119 17 14 
414 53 14 93 119 
415 119 17 14 95 
416 119 95 14 93 
417 45 106 51 52 
418 106 99 117 120 
419 51 117 16 53 
420 52 120 53 13 
421 106 51 52 120 
422 106 120 117 51 
423 51 52 120 53 
424 51 53 120 117 
425 45 52 107 106 
426 52 13 91 120 
427 107 91 37 109 
428 106 120 109 99 
429 52 107 106 120 
430 52 120 91 107 
431 107 106 120 109 
432 107 109 120 91 
433 99 117 120 118 
434 117 16 53 119 
435 120 53 13 93 
436 118 119 93 90 
437 117 120 118 119 
438 117 119 53 120 
439 120 118 119 93 
440 120 93 119 53 
441 99 118 120 109 
442 118 90 93 92 
443 120 93 13 91 
444 109 92 91 37 
445 118 120 109 92 
446 118 92 93 120 
447 120 109 92 91 
448 120 91 92 93 
449 8 41 58 77 
450 41 40 115 75 
451 58 115 54 121 
452 77 75 121 72 
453 41 58 77 75 
454 41 75 115 58 
455 58 77 75 121 
456 58 121 75 115 
457 40 39 114 73 
458 39 4 104 15 
459 114 104 99 117 
460 73 15 117 16 
461 39 114 73 15 
462 39 15 104 114 
463 114 73 15 117 
464 114 117 15 104 
465 54 113 59 122 
466 113 99 111 118 
467 59 111 5 94 
468 122 118 94 90 
469 113 59 122 118 
470 113 118 111 59 
471 59 122 118 94 
472 59 94 118 111 
473 72 74 123 76 
474 74 16 119 17 
475 123 119 90 95 
476 76 17 95 3 
477 74 123 76 17 
478 74 17 119 123 
479 123 76 17 95 
480 123 95 17 119 
481 40 115 75 73 
482 115 54 121 124 
483 75 121 72 74 
484 73 124 74 16 
485 115 75 73 124 
486 115 124 121 75 
487 75 73 124 74 
488 75 74 124 121 
489 40 73 114 115 
490 73 16 117 124 
491 114 117 99 113 
492 115 124 113 54 
493 73 114 115 124 
494 73 124 117 114 
495 114 115 124 113 
496 114 113 124 117 
497 54 121 124 122 
498 121 72 74 123 
499 124 74 16 119 
500 122 123 119 90 
501 121 124 122 123 
502 121 123 74 124 
503 124 122 123 119 
504 124 119 123 74 
505 54 122 124 113 
506 122 90 119 118 
507 124 119 16 117 
508 113 118 117 99 
509 122 124 113 118 
510 122 118 119 124 
511 124 113 118 117 
512 124 117 118 119 
513 8 58 27 77 
514 58 54 60 121 
515 27 60 28 80 
516 77 121 80 72 
517 58 27 77 121 
518 58 121 60 27 
519 27 77 121 80 
520 27 80 121 60 
521 54 59 62 122 
522 59 5 24 94 
523 62 24 25 96 
524 122 94 96 90 
525 59 62 122 94 
526 59 94 24 62 
527 62 122 94 96 
528 62 96 94 24 
529 28 61 29 79 
530 61 25 26 97 
531 29 26 7 44 
532 79 97 44 43 
533 61 29 79 97 
534 61 97 26 29 
535 29 79 97 44 
536 29 44 97 26 
537 72 123 78 76 
538 123 90 98 95 
539 78 98 43 42 
540 76 95 42 3 
541 123 78 76 95 
542 123 95 98 78 
543 78 76 95 42 
544 78 42 95 98 
545 54 60 121 122 
546 60 28 80 125 
547 121 80 72 123 
548 122 125 123 90 
549 60 121 122 125 
550 60 125 80 121 
551 121 122 125 123 
552 121 123 125 80 
553 54 122 62 60 
554 122 90 96 125 
555 62 96 25 61 
556 60 125 61 28 
557 122 62 60 125 
558 122 125 96 62 
559 62 60 125 61 
560 62 61 125 96 
561 28 80 125 79 
562 80 72 123 78 
563 125 123 90 98 
564 79 78 98 43 
565 80 125 79 78 
566 80 78 123 125 
567 125 79 78 98 
568 125 98 78 123 
569 28 79 125 61 
570 79 43 98 97 
571 125 98 90 96 
572 61 97 96 25 
573 79 125 61 97 
574 79 97 98 125 
575 125 61 97 96 
576 125 96 97 98 
$EndElements
