<?xml version="1.0"?>
 <VTKFile type="UnstructuredGrid">
   <UnstructuredGrid>
   <Piece NumberOfPoints="          37                     "  NumberOfCells= "          12 ">
     <Points>
       <DataArray type="Float64"                      NumberOfComponents ="3" format="ascii">
  -4.0000000000000000          0.0000000000000000                  0
  -3.9696155059999998         0.34729635500000000                  0
  -3.8793852420000001         0.68404028699999997                  0
  -3.7320508079999999          1.0000000000000000                  0
  -3.5320888859999999          1.2855752190000000                  0
  -3.2855752190000000          1.5320888859999999                  0
  -3.0000000000000000          1.7320508080000001                  0
  -2.6840402870000002          1.8793852419999999                  0
  -2.3472963550000001          1.9696155060000000                  0
  -2.0000000000000000          2.0000000000000000                  0
  -1.6527036450000001          1.9696155060000000                  0
  -1.3159597130000000          1.8793852419999999                  0
  -1.0000000000000000          1.7320508080000001                  0
 -0.71442478099999995          1.5320888859999999                  0
 -0.46791111400000002          1.2855752190000000                  0
 -0.26794919200000000          1.0000000000000000                  0
 -0.12061475800000000         0.68404028699999997                  0
  -3.0384494000000001E-002    0.34729635500000000                  0
   0.0000000000000000          0.0000000000000000                  0
   3.0384494000000001E-002   -0.34729635500000000                  0
  0.12061475800000000        -0.68404028699999997                  0
  0.26794919200000000         -1.0000000000000000                  0
  0.46791111400000002         -1.2855752190000000                  0
  0.71442478099999995         -1.5320888859999999                  0
   1.0000000000000000         -1.7320508080000001                  0
   1.3159597130000000         -1.8793852419999999                  0
   1.6527036450000001         -1.9696155060000000                  0
   2.0000000000000000         -2.0000000000000000                  0
   2.3472963550000001         -1.9696155060000000                  0
   2.6840402870000002         -1.8793852419999999                  0
   3.0000000000000000         -1.7320508080000001                  0
   3.2855752190000000         -1.5320888859999999                  0
   3.5320888859999999         -1.2855752190000000                  0
   3.7320508079999999         -1.0000000000000000                  0
   3.8793852420000001        -0.68404028699999997                  0
   3.9696155059999998        -0.34729635500000000                  0
   4.0000000000000000          0.0000000000000000                  0
       </DataArray>
     </Points>
     <Cells>
       <DataArray type="Int32" Name= "connectivity"    format="ascii">
           0           1           2           3
           3           4           5           6
           6           7           8           9
           9          10          11          12
          12          13          14          15
          15          16          17          18
          18          19          20          21
          21          22          23          24
          24          25          26          27
          27          28          29          30
          30          31          32          33
          33          34          35          36
       </DataArray>
       <DataArray type="Int32" Name="offsets"         format="ascii">
           4
           8
          12
          16
          20
          24
          28
          32
          36
          40
          44
          48
       </DataArray>
       <DataArray type="UInt8" Name="types"           format ="ascii">
           4
           4
           4
           4
           4
           4
           4
           4
           4
           4
           4
           4
       </DataArray>
     </Cells>
     <PointData>
       <DataArray type="Float64" NumberOfComponents    =" 3" Name="desloc"  format="ascii">
   0.0000000000000000          0.0000000000000000                  0
   0.0000000000000000          0.0000000000000000                  0
   0.0000000000000000          0.0000000000000000                  0
   0.0000000000000000          0.0000000000000000                  0
   0.0000000000000000          0.0000000000000000                  0
   0.0000000000000000          0.0000000000000000                  0
   0.0000000000000000          0.0000000000000000                  0
   0.0000000000000000          0.0000000000000000                  0
   0.0000000000000000          0.0000000000000000                  0
   0.0000000000000000          0.0000000000000000                  0
   0.0000000000000000          0.0000000000000000                  0
   0.0000000000000000          0.0000000000000000                  0
   0.0000000000000000          0.0000000000000000                  0
   0.0000000000000000          0.0000000000000000                  0
   0.0000000000000000          0.0000000000000000                  0
   0.0000000000000000          0.0000000000000000                  0
   0.0000000000000000          0.0000000000000000                  0
   0.0000000000000000          0.0000000000000000                  0
   0.0000000000000000          0.0000000000000000                  0
   0.0000000000000000          0.0000000000000000                  0
   0.0000000000000000          0.0000000000000000                  0
   0.0000000000000000          0.0000000000000000                  0
   0.0000000000000000          0.0000000000000000                  0
   0.0000000000000000          0.0000000000000000                  0
   0.0000000000000000          0.0000000000000000                  0
   0.0000000000000000          0.0000000000000000                  0
   0.0000000000000000          0.0000000000000000                  0
   0.0000000000000000          0.0000000000000000                  0
   0.0000000000000000          0.0000000000000000                  0
   0.0000000000000000          0.0000000000000000                  0
   0.0000000000000000          0.0000000000000000                  0
   0.0000000000000000          0.0000000000000000                  0
   0.0000000000000000          0.0000000000000000                  0
   0.0000000000000000          0.0000000000000000                  0
   0.0000000000000000          0.0000000000000000                  0
   0.0000000000000000          0.0000000000000000                  0
   0.0000000000000000          0.0000000000000000                  0
       </DataArray> 
       <DataArray type="Float64" NumberOfComponents    =" 3" Name="forca fluido"  format="ascii">
   0.0000000000000000         -0.0000000000000000                  0
   0.0000000000000000          0.0000000000000000                  0
   0.0000000000000000          0.0000000000000000                  0
   0.0000000000000000         -0.0000000000000000                  0
   0.0000000000000000          0.0000000000000000                  0
   0.0000000000000000          0.0000000000000000                  0
   0.0000000000000000         -0.0000000000000000                  0
   0.0000000000000000          0.0000000000000000                  0
   0.0000000000000000          0.0000000000000000                  0
   0.0000000000000000         -0.0000000000000000                  0
   0.0000000000000000          0.0000000000000000                  0
   0.0000000000000000          0.0000000000000000                  0
   0.0000000000000000         -0.0000000000000000                  0
   0.0000000000000000          0.0000000000000000                  0
   0.0000000000000000          0.0000000000000000                  0
   0.0000000000000000         -0.0000000000000000                  0
   0.0000000000000000          0.0000000000000000                  0
   0.0000000000000000          0.0000000000000000                  0
   0.0000000000000000          0.0000000000000000                  0
   0.0000000000000000          0.0000000000000000                  0
   0.0000000000000000          0.0000000000000000                  0
   0.0000000000000000          0.0000000000000000                  0
   0.0000000000000000          0.0000000000000000                  0
   0.0000000000000000          0.0000000000000000                  0
   0.0000000000000000          0.0000000000000000                  0
   0.0000000000000000          0.0000000000000000                  0
   0.0000000000000000          0.0000000000000000                  0
   0.0000000000000000          0.0000000000000000                  0
   0.0000000000000000          0.0000000000000000                  0
   0.0000000000000000          0.0000000000000000                  0
   0.0000000000000000          0.0000000000000000                  0
   0.0000000000000000          0.0000000000000000                  0
   0.0000000000000000          0.0000000000000000                  0
   0.0000000000000000          0.0000000000000000                  0
   0.0000000000000000          0.0000000000000000                  0
   0.0000000000000000          0.0000000000000000                  0
   0.0000000000000000          0.0000000000000000                  0
       </DataArray> 
       <DataArray type="Float64" NumberOfComponents    =" 3" Name="Velocity"  format="ascii">
   0.0000000000000000          0.0000000000000000                  0
   0.0000000000000000          0.0000000000000000                  0
   0.0000000000000000          0.0000000000000000                  0
   0.0000000000000000          0.0000000000000000                  0
   0.0000000000000000          0.0000000000000000                  0
   0.0000000000000000          0.0000000000000000                  0
   0.0000000000000000          0.0000000000000000                  0
   0.0000000000000000          0.0000000000000000                  0
   0.0000000000000000          0.0000000000000000                  0
   0.0000000000000000          0.0000000000000000                  0
   0.0000000000000000          0.0000000000000000                  0
   0.0000000000000000          0.0000000000000000                  0
   0.0000000000000000          0.0000000000000000                  0
   0.0000000000000000          0.0000000000000000                  0
   0.0000000000000000          0.0000000000000000                  0
   0.0000000000000000          0.0000000000000000                  0
   0.0000000000000000          0.0000000000000000                  0
   0.0000000000000000          0.0000000000000000                  0
   0.0000000000000000          0.0000000000000000                  0
   0.0000000000000000          0.0000000000000000                  0
   0.0000000000000000          0.0000000000000000                  0
   0.0000000000000000          0.0000000000000000                  0
   0.0000000000000000          0.0000000000000000                  0
   0.0000000000000000          0.0000000000000000                  0
   0.0000000000000000          0.0000000000000000                  0
   0.0000000000000000          0.0000000000000000                  0
   0.0000000000000000          0.0000000000000000                  0
   0.0000000000000000          0.0000000000000000                  0
   0.0000000000000000          0.0000000000000000                  0
   0.0000000000000000          0.0000000000000000                  0
   0.0000000000000000          0.0000000000000000                  0
   0.0000000000000000          0.0000000000000000                  0
   0.0000000000000000          0.0000000000000000                  0
   0.0000000000000000          0.0000000000000000                  0
   0.0000000000000000          0.0000000000000000                  0
   0.0000000000000000          0.0000000000000000                  0
   0.0000000000000000          0.0000000000000000                  0
       </DataArray> 
       <DataArray type="Float64" NumberOfComponents    =" 3" Name="Acceleration"  format="ascii">
   0.0000000000000000          0.0000000000000000                  0
   0.0000000000000000          0.0000000000000000                  0
   0.0000000000000000          0.0000000000000000                  0
   0.0000000000000000          0.0000000000000000                  0
   0.0000000000000000          0.0000000000000000                  0
   0.0000000000000000          0.0000000000000000                  0
   0.0000000000000000          0.0000000000000000                  0
   0.0000000000000000          0.0000000000000000                  0
   0.0000000000000000          0.0000000000000000                  0
   0.0000000000000000          0.0000000000000000                  0
   0.0000000000000000          0.0000000000000000                  0
   0.0000000000000000          0.0000000000000000                  0
   0.0000000000000000          0.0000000000000000                  0
   0.0000000000000000          0.0000000000000000                  0
   0.0000000000000000          0.0000000000000000                  0
   0.0000000000000000          0.0000000000000000                  0
   0.0000000000000000          0.0000000000000000                  0
   0.0000000000000000          0.0000000000000000                  0
   0.0000000000000000          0.0000000000000000                  0
   0.0000000000000000          0.0000000000000000                  0
   0.0000000000000000          0.0000000000000000                  0
   0.0000000000000000          0.0000000000000000                  0
   0.0000000000000000          0.0000000000000000                  0
   0.0000000000000000          0.0000000000000000                  0
   0.0000000000000000          0.0000000000000000                  0
   0.0000000000000000          0.0000000000000000                  0
   0.0000000000000000          0.0000000000000000                  0
   0.0000000000000000          0.0000000000000000                  0
   0.0000000000000000          0.0000000000000000                  0
   0.0000000000000000          0.0000000000000000                  0
   0.0000000000000000          0.0000000000000000                  0
   0.0000000000000000          0.0000000000000000                  0
   0.0000000000000000          0.0000000000000000                  0
   0.0000000000000000          0.0000000000000000                  0
   0.0000000000000000          0.0000000000000000                  0
   0.0000000000000000          0.0000000000000000                  0
   0.0000000000000000          0.0000000000000000                  0
       </DataArray> 
     </PointData>
   </Piece>
   </UnstructuredGrid>
 </VTKFile>
