$MeshFormat
2.2 0 8
$EndMeshFormat
$Nodes
136
1 60 55 75
2 60 55 0
3 60 75 75
4 60 75 0
5 75 55 75
6 75 55 0
7 75 75 75
8 75 75 0
9 60 55 7.49999999999999
10 60 55 14.99999999999998
11 60 55 22.49999999999996
12 60 55 29.99999999999993
13 60 55 37.49999999999993
14 60 55 44.99999999999995
15 60 55 52.49999999999996
16 60 55 59.99999999999998
17 60 55 67.49999999999999
18 60 61.66666666666665 75
19 60 68.33333333333331 75
20 60 75 7.49999999999999
21 60 75 14.99999999999998
22 60 75 22.49999999999996
23 60 75 29.99999999999993
24 60 75 37.49999999999993
25 60 75 44.99999999999995
26 60 75 52.49999999999996
27 60 75 59.99999999999998
28 60 75 67.49999999999999
29 60 61.66666666666665 0
30 60 68.33333333333331 0
31 75 55 7.49999999999999
32 75 55 14.99999999999998
33 75 55 22.49999999999996
34 75 55 29.99999999999993
35 75 55 37.49999999999993
36 75 55 44.99999999999995
37 75 55 52.49999999999996
38 75 55 59.99999999999998
39 75 55 67.49999999999999
40 75 61.66666666666665 75
41 75 68.33333333333331 75
42 75 75 7.49999999999999
43 75 75 14.99999999999998
44 75 75 22.49999999999996
45 75 75 29.99999999999993
46 75 75 37.49999999999993
47 75 75 44.99999999999995
48 75 75 52.49999999999996
49 75 75 59.99999999999998
50 75 75 67.49999999999999
51 75 61.66666666666665 0
52 75 68.33333333333331 0
53 67.49999999999999 55 0
54 67.49999999999999 55 75
55 67.49999999999999 75 0
56 67.49999999999999 75 75
57 60 64.99999999999999 5.773502691896249
58 60 64.99999999999999 69.22649730810375
59 60 61.49519052838326 26.24999999999994
60 60 61.4951905283833 41.24999999999994
61 60 61.4951905283833 56.24999999999996
62 60 68.50480947161674 18.74999999999997
63 60 68.50480947161672 33.74999999999993
64 60 68.5048094716167 48.74999999999996
65 60 69.10815520532068 26.24999999999994
66 60 60.24454888138305 18.84240088722669
67 60 60.56552918605399 33.74999999999994
68 60 69.70096189432334 41.24999999999995
69 60 69.75545111861695 56.15759911277326
70 60 60.89184479467929 48.74999999999996
71 60 69.16902622562824 10.61870499414262
72 60 60.83097377437175 64.38129500585735
73 60 68.77725559308472 63.28799556386637
74 60 61.22274440691524 11.71200443613359
75 60 70.28660347523748 70.02327716317404
76 60 70.28660347523748 4.976722836825933
77 60 59.7133965247625 4.976722836825926
78 60 59.71339652476249 70.02327716317409
79 75 64.99999999999999 5.773502691896249
80 75 64.99999999999999 69.22649730810375
81 75 61.49519052838326 26.24999999999994
82 75 68.50480947161671 41.24999999999994
83 75 61.4951905283833 56.24999999999996
84 75 68.50480947161674 18.74999999999997
85 75 68.50480947161671 33.74999999999993
86 75 68.5048094716167 48.74999999999997
87 75 69.10815520532068 26.24999999999994
88 75 60.24454888138305 18.84240088722669
89 75 61.33353848132565 34.07538525614321
90 75 61.32652525562725 41.58950199813193
91 75 69.75545111861695 56.15759911277326
92 75 60.26530505112545 48.81790039962636
93 75 69.16902622562824 10.61870499414262
94 75 60.83097377437175 64.38129500585735
95 75 68.77725559308472 63.28799556386637
96 75 61.22274440691524 11.71200443613359
97 75 70.28660347523748 70.02327716317404
98 75 70.28660347523748 4.976722836825933
99 75 59.7133965247625 4.976722836825926
100 75 59.71339652476249 70.02327716317409
101 67.16264161438194 55 18.74070883361289
102 67.78708842046193 55 33.7239847341161
103 66.49519052838329 55 63.75
104 67.49197041707131 55 48.73178931388128
105 68.50480947161672 55 11.24999999999999
106 67.78973429819693 55 56.2484514722688
107 67.54650980625554 55 41.24262900799952
108 67.49162167247398 55 26.24411559462146
109 65.50261712372486 55 4.930887496192681
110 69.49738287627514 55 70.0691125038073
111 70.6651345139486 55 4.348591002927071
112 64.3348654860514 55 70.65140899707291
113 67.16264161438194 75 18.74070883361289
114 67.78708842046193 75 33.7239847341161
115 66.49519052838329 75 63.75
116 67.49197041707131 75 48.73178931388128
117 68.50480947161672 75 11.24999999999999
118 67.78973429819693 75 56.2484514722688
119 67.54650980625554 75 41.24262900799952
120 67.49162167247398 75 26.24411559462146
121 65.50261712372486 75 4.930887496192681
122 69.49738287627514 75 70.0691125038073
123 70.6651345139486 75 4.348591002927071
124 64.3348654860514 75 70.65140899707291
125 69.5747126347172 64.85308028533636 0
126 64.01111814124329 64.99999999999999 0
127 65.14561201087047 69.86839522364568 0
128 65.38930512932674 59.97551338088939 0
129 70.22445527957406 70.21230521436328 0
130 70.49280355280879 59.29905206657848 0
131 69.5747126347172 64.85308028533636 75
132 64.01111814124329 64.99999999999999 75
133 65.14561201087047 69.86839522364568 75
134 65.38930512932674 59.97551338088939 75
135 70.22445527957406 70.21230521436328 75
136 70.49280355280879 59.29905206657848 75
$EndNodes
$Elements
336
1 15 2 0 1 1
2 15 2 0 2 2
3 15 2 0 3 3
4 15 2 0 4 4
5 15 2 0 5 5
6 15 2 0 6 6
7 15 2 0 7 7
8 15 2 0 8 8
9 1 2 0 1 2 9
10 1 2 0 1 9 10
11 1 2 0 1 10 11
12 1 2 0 1 11 12
13 1 2 0 1 12 13
14 1 2 0 1 13 14
15 1 2 0 1 14 15
16 1 2 0 1 15 16
17 1 2 0 1 16 17
18 1 2 0 1 17 1
19 1 2 0 2 1 18
20 1 2 0 2 18 19
21 1 2 0 2 19 3
22 1 2 0 3 4 20
23 1 2 0 3 20 21
24 1 2 0 3 21 22
25 1 2 0 3 22 23
26 1 2 0 3 23 24
27 1 2 0 3 24 25
28 1 2 0 3 25 26
29 1 2 0 3 26 27
30 1 2 0 3 27 28
31 1 2 0 3 28 3
32 1 2 0 4 2 29
33 1 2 0 4 29 30
34 1 2 0 4 30 4
35 1 2 0 5 6 31
36 1 2 0 5 31 32
37 1 2 0 5 32 33
38 1 2 0 5 33 34
39 1 2 0 5 34 35
40 1 2 0 5 35 36
41 1 2 0 5 36 37
42 1 2 0 5 37 38
43 1 2 0 5 38 39
44 1 2 0 5 39 5
45 1 2 0 6 5 40
46 1 2 0 6 40 41
47 1 2 0 6 41 7
48 1 2 0 7 8 42
49 1 2 0 7 42 43
50 1 2 0 7 43 44
51 1 2 0 7 44 45
52 1 2 0 7 45 46
53 1 2 0 7 46 47
54 1 2 0 7 47 48
55 1 2 0 7 48 49
56 1 2 0 7 49 50
57 1 2 0 7 50 7
58 1 2 0 8 6 51
59 1 2 0 8 51 52
60 1 2 0 8 52 8
61 1 2 0 9 2 53
62 1 2 0 9 53 6
63 1 2 0 10 1 54
64 1 2 0 10 54 5
65 1 2 0 11 4 55
66 1 2 0 11 55 8
67 1 2 0 12 3 56
68 1 2 0 12 56 7
69 2 2 0 1 62 59 65
70 2 2 0 1 59 62 66
71 2 2 0 1 59 63 65
72 2 2 0 1 63 59 67
73 2 2 0 1 60 63 67
74 2 2 0 1 60 64 68
75 2 2 0 1 63 60 68
76 2 2 0 1 64 60 70
77 2 2 0 1 61 64 70
78 2 2 0 1 64 61 69
79 2 2 0 1 62 71 74
80 2 2 0 1 61 72 73
81 2 2 0 1 66 62 74
82 2 2 0 1 69 61 73
83 2 2 0 1 24 23 63
84 2 2 0 1 26 25 64
85 2 2 0 1 15 16 61
86 2 2 0 1 22 21 62
87 2 2 0 1 11 12 59
88 2 2 0 1 13 14 60
89 2 2 0 1 63 23 65
90 2 2 0 1 64 25 68
91 2 2 0 1 13 60 67
92 2 2 0 1 60 14 70
93 2 2 0 1 11 59 66
94 2 2 0 1 22 62 65
95 2 2 0 1 59 12 67
96 2 2 0 1 24 63 68
97 2 2 0 1 15 61 70
98 2 2 0 1 26 64 69
99 2 2 0 1 16 17 72
100 2 2 0 1 21 20 71
101 2 2 0 1 9 10 74
102 2 2 0 1 28 27 73
103 2 2 0 1 10 11 66
104 2 2 0 1 23 22 65
105 2 2 0 1 12 13 67
106 2 2 0 1 25 24 68
107 2 2 0 1 27 26 69
108 2 2 0 1 14 15 70
109 2 2 0 1 71 57 74
110 2 2 0 1 72 58 73
111 2 2 0 1 18 19 58
112 2 2 0 1 30 29 57
113 2 2 0 1 61 16 72
114 2 2 0 1 62 21 71
115 2 2 0 1 27 69 73
116 2 2 0 1 10 66 74
117 2 2 0 1 17 1 78
118 2 2 0 1 2 9 77
119 2 2 0 1 20 4 76
120 2 2 0 1 3 28 75
121 2 2 0 1 19 3 75
122 2 2 0 1 4 30 76
123 2 2 0 1 29 2 77
124 2 2 0 1 1 18 78
125 2 2 0 1 72 17 78
126 2 2 0 1 71 20 76
127 2 2 0 1 28 73 75
128 2 2 0 1 9 74 77
129 2 2 0 1 58 72 78
130 2 2 0 1 57 71 76
131 2 2 0 1 74 57 77
132 2 2 0 1 73 58 75
133 2 2 0 1 57 29 77
134 2 2 0 1 18 58 78
135 2 2 0 1 58 19 75
136 2 2 0 1 30 57 76
137 2 2 0 2 82 89 85
138 2 2 0 2 82 90 89
139 2 2 0 2 86 92 90
140 2 2 0 2 86 90 82
141 2 2 0 2 84 87 81
142 2 2 0 2 81 88 84
143 2 2 0 2 81 87 85
144 2 2 0 2 85 89 81
145 2 2 0 2 83 92 86
146 2 2 0 2 86 91 83
147 2 2 0 2 84 96 93
148 2 2 0 2 83 95 94
149 2 2 0 2 88 96 84
150 2 2 0 2 91 95 83
151 2 2 0 2 47 86 82
152 2 2 0 2 46 85 45
153 2 2 0 2 82 85 46
154 2 2 0 2 48 86 47
155 2 2 0 2 37 83 38
156 2 2 0 2 44 84 43
157 2 2 0 2 33 81 34
158 2 2 0 2 47 82 46
159 2 2 0 2 85 87 45
160 2 2 0 2 81 89 34
161 2 2 0 2 33 88 81
162 2 2 0 2 44 87 84
163 2 2 0 2 48 91 86
164 2 2 0 2 37 92 83
165 2 2 0 2 38 94 39
166 2 2 0 2 43 93 42
167 2 2 0 2 31 96 32
168 2 2 0 2 50 95 49
169 2 2 0 2 32 88 33
170 2 2 0 2 45 87 44
171 2 2 0 2 34 89 35
172 2 2 0 2 90 92 36
173 2 2 0 2 89 90 35
174 2 2 0 2 35 90 36
175 2 2 0 2 36 92 37
176 2 2 0 2 49 91 48
177 2 2 0 2 93 96 79
178 2 2 0 2 94 95 80
179 2 2 0 2 40 80 41
180 2 2 0 2 52 79 51
181 2 2 0 2 83 94 38
182 2 2 0 2 84 93 43
183 2 2 0 2 49 95 91
184 2 2 0 2 32 96 88
185 2 2 0 2 39 100 5
186 2 2 0 2 6 99 31
187 2 2 0 2 42 98 8
188 2 2 0 2 7 97 50
189 2 2 0 2 41 97 7
190 2 2 0 2 8 98 52
191 2 2 0 2 51 99 6
192 2 2 0 2 5 100 40
193 2 2 0 2 94 100 39
194 2 2 0 2 93 98 42
195 2 2 0 2 50 97 95
196 2 2 0 2 31 99 96
197 2 2 0 2 80 100 94
198 2 2 0 2 79 98 93
199 2 2 0 2 96 99 79
200 2 2 0 2 95 97 80
201 2 2 0 2 79 99 51
202 2 2 0 2 40 100 80
203 2 2 0 2 80 97 41
204 2 2 0 2 52 98 79
205 2 2 0 3 32 33 101
206 2 2 0 3 10 9 105
207 2 2 0 3 13 12 102
208 2 2 0 3 38 39 103
209 2 2 0 3 36 37 104
210 2 2 0 3 102 12 108
211 2 2 0 3 36 104 107
212 2 2 0 3 12 11 108
213 2 2 0 3 35 36 107
214 2 2 0 3 16 15 106
215 2 2 0 3 38 103 106
216 2 2 0 3 104 37 106
217 2 2 0 3 32 101 105
218 2 2 0 3 101 10 105
219 2 2 0 3 101 33 108
220 2 2 0 3 13 102 107
221 2 2 0 3 103 16 106
222 2 2 0 3 15 104 106
223 2 2 0 3 11 101 108
224 2 2 0 3 102 35 107
225 2 2 0 3 105 9 109
226 2 2 0 3 103 39 110
227 2 2 0 3 37 38 106
228 2 2 0 3 34 102 108
229 2 2 0 3 33 34 108
230 2 2 0 3 104 14 107
231 2 2 0 3 14 13 107
232 2 2 0 3 34 35 102
233 2 2 0 3 31 32 105
234 2 2 0 3 17 16 103
235 2 2 0 3 11 10 101
236 2 2 0 3 15 14 104
237 2 2 0 3 9 2 109
238 2 2 0 3 2 53 109
239 2 2 0 3 5 54 110
240 2 2 0 3 39 5 110
241 2 2 0 3 31 105 111
242 2 2 0 3 17 103 112
243 2 2 0 3 105 109 111
244 2 2 0 3 103 110 112
245 2 2 0 3 53 6 111
246 2 2 0 3 54 1 112
247 2 2 0 3 1 17 112
248 2 2 0 3 6 31 111
249 2 2 0 3 109 53 111
250 2 2 0 3 110 54 112
251 2 2 0 4 43 113 44
252 2 2 0 4 21 117 20
253 2 2 0 4 24 114 23
254 2 2 0 4 49 115 50
255 2 2 0 4 47 116 48
256 2 2 0 4 114 120 23
257 2 2 0 4 47 119 116
258 2 2 0 4 23 120 22
259 2 2 0 4 46 119 47
260 2 2 0 4 27 118 26
261 2 2 0 4 49 118 115
262 2 2 0 4 116 118 48
263 2 2 0 4 43 117 113
264 2 2 0 4 113 117 21
265 2 2 0 4 113 120 44
266 2 2 0 4 24 119 114
267 2 2 0 4 115 118 27
268 2 2 0 4 26 118 116
269 2 2 0 4 22 120 113
270 2 2 0 4 114 119 46
271 2 2 0 4 117 121 20
272 2 2 0 4 115 122 50
273 2 2 0 4 48 118 49
274 2 2 0 4 45 120 114
275 2 2 0 4 44 120 45
276 2 2 0 4 116 119 25
277 2 2 0 4 25 119 24
278 2 2 0 4 45 114 46
279 2 2 0 4 42 117 43
280 2 2 0 4 28 115 27
281 2 2 0 4 22 113 21
282 2 2 0 4 26 116 25
283 2 2 0 4 20 121 4
284 2 2 0 4 4 121 55
285 2 2 0 4 7 122 56
286 2 2 0 4 50 122 7
287 2 2 0 4 42 123 117
288 2 2 0 4 28 124 115
289 2 2 0 4 117 123 121
290 2 2 0 4 115 124 122
291 2 2 0 4 55 123 8
292 2 2 0 4 56 124 3
293 2 2 0 4 3 124 28
294 2 2 0 4 8 123 42
295 2 2 0 4 121 123 55
296 2 2 0 4 122 124 56
297 2 2 0 5 2 29 128
298 2 2 0 5 53 2 128
299 2 2 0 5 52 51 125
300 2 2 0 5 55 8 129
301 2 2 0 5 4 55 127
302 2 2 0 5 8 52 129
303 2 2 0 5 30 4 127
304 2 2 0 5 125 51 130
305 2 2 0 5 6 53 130
306 2 2 0 5 29 30 126
307 2 2 0 5 29 126 128
308 2 2 0 5 125 126 127
309 2 2 0 5 128 125 130
310 2 2 0 5 52 125 129
311 2 2 0 5 125 127 129
312 2 2 0 5 51 6 130
313 2 2 0 5 126 125 128
314 2 2 0 5 126 30 127
315 2 2 0 5 127 55 129
316 2 2 0 5 53 128 130
317 2 2 0 6 1 134 18
318 2 2 0 6 54 134 1
319 2 2 0 6 41 131 40
320 2 2 0 6 56 135 7
321 2 2 0 6 3 133 56
322 2 2 0 6 7 135 41
323 2 2 0 6 19 133 3
324 2 2 0 6 131 136 40
325 2 2 0 6 5 136 54
326 2 2 0 6 18 132 19
327 2 2 0 6 18 134 132
328 2 2 0 6 131 133 132
329 2 2 0 6 134 136 131
330 2 2 0 6 41 135 131
331 2 2 0 6 131 135 133
332 2 2 0 6 40 136 5
333 2 2 0 6 132 134 131
334 2 2 0 6 132 133 19
335 2 2 0 6 133 135 56
336 2 2 0 6 54 136 134
$EndElements
