<?xml version="1.0"?>
 <VTKFile type="UnstructuredGrid">
   <UnstructuredGrid>
   <Piece NumberOfPoints="          48                        "  NumberOfCells= "          12 ">
     <Points>
       <DataArray type="Float64"                      NumberOfComponents ="3" format="ascii">
  -4.0000000000000000          0.0000000000000000                  0
  -3.9696155059999998         0.34729635500000000                  0
  -3.8793852420000001         0.68404028699999997                  0
  -3.7320508079999999          1.0000000000000000                  0
  -3.7320508079999999          1.0000000000000000                  0
  -3.5320888859999999          1.2855752190000000                  0
  -3.2855752190000000          1.5320888859999999                  0
  -3.0000000000000000          1.7320508080000001                  0
  -3.0000000000000000          1.7320508080000001                  0
  -2.6840402870000002          1.8793852419999999                  0
  -2.3472963550000001          1.9696155060000000                  0
  -2.0000000000000000          2.0000000000000000                  0
  -2.0000000000000000          2.0000000000000000                  0
  -1.6527036450000001          1.9696155060000000                  0
  -1.3159597130000000          1.8793852419999999                  0
  -1.0000000000000000          1.7320508080000001                  0
  -1.0000000000000000          1.7320508080000001                  0
 -0.71442478099999995          1.5320888859999999                  0
 -0.46791111400000002          1.2855752190000000                  0
 -0.26794919200000000          1.0000000000000000                  0
 -0.26794919200000000          1.0000000000000000                  0
 -0.12061475800000000         0.68404028699999997                  0
  -3.0384494000000001E-002    0.34729635500000000                  0
   0.0000000000000000          0.0000000000000000                  0
   0.0000000000000000          0.0000000000000000                  0
   3.0384494000000001E-002   -0.34729635500000000                  0
  0.12061475800000000        -0.68404028699999997                  0
  0.26794919200000000         -1.0000000000000000                  0
  0.26794919200000000         -1.0000000000000000                  0
  0.46791111400000002         -1.2855752190000000                  0
  0.71442478099999995         -1.5320888859999999                  0
   1.0000000000000000         -1.7320508080000001                  0
   1.0000000000000000         -1.7320508080000001                  0
   1.3159597130000000         -1.8793852419999999                  0
   1.6527036450000001         -1.9696155060000000                  0
   2.0000000000000000         -2.0000000000000000                  0
   2.0000000000000000         -2.0000000000000000                  0
   2.3472963550000001         -1.9696155060000000                  0
   2.6840402870000002         -1.8793852419999999                  0
   3.0000000000000000         -1.7320508080000001                  0
   3.0000000000000000         -1.7320508080000001                  0
   3.2855752190000000         -1.5320888859999999                  0
   3.5320888859999999         -1.2855752190000000                  0
   3.7320508079999999         -1.0000000000000000                  0
   3.7320508079999999         -1.0000000000000000                  0
   3.8793852420000001        -0.68404028699999997                  0
   3.9696155059999998        -0.34729635500000000                  0
   4.0000000000000000          0.0000000000000000                  0
       </DataArray>
     </Points>
     <Cells>
       <DataArray type="Int32" Name= "connectivity"    format="ascii">
           0           1           2           3
           4           5           6           7
           8           9          10          11
          12          13          14          15
          16          17          18          19
          20          21          22          23
          24          25          26          27
          28          29          30          31
          32          33          34          35
          36          37          38          39
          40          41          42          43
          44          45          46          47
       </DataArray>
       <DataArray type="Int32" Name="offsets"         format="ascii">
           4
           8
          12
          16
          20
          24
          28
          32
          36
          40
          44
          48
       </DataArray>
       <DataArray type="UInt8" Name="types"           format ="ascii">
           4
           4
           4
           4
           4
           4
           4
           4
           4
           4
           4
           4
       </DataArray>
     </Cells>
     <PointData>
       <DataArray type="Float64" NumberOfComponents    =" 2" Name="N     "  format="ascii">
  -5.0015182099527479E-010             0
  -2.3224101201607582E-010             0
  -5.0248288574635714E-010             0
  -4.9486567211191464E-010             0
  -8.1903098663705956E-010             0
  -3.0546067709111616E-010             0
  -5.2980764924358441E-010             0
  -2.3819874642610359E-010             0
  -2.4718365984122892E-010             0
  -1.1413073332952556E-010             0
   5.1723840718403994E-011             0
  -5.2140971411408443E-010             0
  -5.5280521711407332E-010             0
  -1.2770726569545355E-009             0
  -2.6358871821950159E-010             0
  -3.1830050250822765E-010             0
  -2.7974979395060534E-010             0
  -2.5909718591628811E-010             0
  -4.7013884504472154E-010             0
  -3.3258812032283948E-010             0
  -6.9577424316271239E-010             0
  -1.6375717391499855E-010             0
  -2.3785942536967680E-010             0
  -4.3506991786265353E-010             0
  -2.4364749835407639E-010             0
  -2.4048907096680897E-010             0
  -1.3664814039258922E-010             0
  -6.4094880828137203E-010             0
  -7.3593061983542966E-010             0
  -4.8293307159413476E-010             0
  -2.7870601536565839E-010             0
  -4.3658865486202746E-010             0
  -1.7301197753442762E-010             0
  -2.3414977560144519E-010             0
  -1.9689014835331287E-010             0
  -3.4682008180909290E-010             0
  -5.6687873567528322E-010             0
  -8.1070931547409685E-010             0
  -7.2813923015113418E-011             0
  -1.5706836002551520E-010             0
  -4.5355370968584529E-011             0
  -7.5000413839663946E-010             0
  -3.9410619774394349E-010             0
  -9.0325960823179490E-010             0
  -3.2453681443016104E-010             0
  -1.0525320460004931E-010             0
   1.6675022773685042E-010             0
  -2.1015632346853004E-010             0
       </DataArray> 
       <DataArray type="Float64" NumberOfComponents    =" 2" Name="V     "  format="ascii">
   5.2792864515780952E-008             0
  -9.2931629283332073E-010             0
  -3.2329110522435775E-011             0
  -2.1094052449370150E-010             0
  -1.3199873237178114E-010             0
   0.0000000000000000                  0
   1.1536915918513111E-011             0
  -2.3306340799742290E-011             0
   3.2329110522435788E-011             0
   0.0000000000000000                  0
   0.0000000000000000                  0
   0.0000000000000000                  0
   0.0000000000000000                  0
   0.0000000000000000                  0
  -5.1007811979473291E-011             0
  -2.3306340799742284E-011             0
   2.3250896271606135E-013             0
  -1.1769424881229169E-011             0
  -6.9919022399226852E-011             0
  -1.3199873237178111E-010             0
   9.7620493578957839E-011             0
   1.0985493638561916E-010             0
  -4.4541989874986128E-010             0
  -5.1842862340233513E-008             0
   2.9163891628620094E-009             0
  -5.0238603897183807E-010             0
   2.0379873895517708E-010             0
  -3.3140234094696949E-010             0
   4.6612681599484587E-011             0
