$MeshFormat
4.1 0 8
$EndMeshFormat
$PhysicalNames
6
1 12 "Fundo"
1 13 "Laterais"
1 14 "Topo"
1 15 "Carga"
1 16 "Geogrelha"
2 17 "Solo"
$EndPhysicalNames
$Entities
10 11 2 0
1 0 0 0 0 
2 0.15 0 0 0 
3 0.15 0.15 0 0 
4 0 0.15 0 0 
5 0.055 0.15 0 0 
6 0.095 0.15 0 0 
7 0 0.1 0 0 
8 0.025 0.1 0 0 
9 0.125 0.1 0 0 
10 0.15 0.1 0 0 
1 -9.999999999940612e-08 0.1499999 -1e-07 0.0550001 0.1500001 1e-07 1 14 2 4 -5 
2 0.0549999 0.1499999 -1e-07 0.0950001 0.1500001 1e-07 1 15 2 5 -6 
3 0.0949999 0.1499999 -1e-07 0.1500001 0.1500001 1e-07 1 14 2 6 -3 
4 0.1499999 0.0999999 -1e-07 0.1500001 0.1500001 1e-07 1 13 2 3 -10 
5 0.1499999 -1.000000000028756e-07 -1e-07 0.1500001 0.1000001 1e-07 1 13 2 10 -2 
6 -1.000000000028756e-07 -1e-07 -1e-07 0.1500001 1e-07 1e-07 1 12 2 2 -1 
7 -1e-07 -1.000000000028756e-07 -1e-07 1e-07 0.1000001 1e-07 1 13 2 1 -7 
8 -1e-07 0.0999999 -1e-07 1e-07 0.1500001 1e-07 1 13 2 7 -4 
9 -9.999999999940612e-08 0.0999999 -1e-07 0.0250001 0.1000001 1e-07 0 2 7 -8 
10 0.02499990000000001 0.0999999 -1e-07 0.1250001 0.1000001 1e-07 1 16 2 8 -9 
11 0.1249999 0.0999999 -1e-07 0.1500001 0.1000001 1e-07 0 2 9 -10 
1 -1.000000000028756e-07 0.0999999 -1e-07 0.1500001 0.1500001 1e-07 1 17 8 8 1 2 3 4 -11 -10 -9 
2 -1.000000000028756e-07 -1.000000000028756e-07 -1e-07 0.1500001 0.1000001 1e-07 1 17 6 7 9 10 11 5 6 
$EndEntities
$Nodes
23 103 1 103
0 1 0 1
1
0 0 0
0 2 0 1
2
0.15 0 0
0 3 0 1
3
0.15 0.15 0
0 4 0 1
4
0 0.15 0
0 5 0 1
5
0.055 0.15 0
0 6 0 1
6
0.095 0.15 0
0 7 0 1
7
0 0.1 0
0 8 0 1
8
0.025 0.1 0
0 9 0 1
9
0.125 0.1 0
0 10 0 1
10
0.15 0.1 0
1 1 0 2
11
12
0.01833333333333337 0.15 0
0.03666666666666673 0.15 0
1 2 0 1
13
0.075 0.15 0
1 3 0 2
14
15
0.1133333333333334 0.15 0
0.1316666666666667 0.15 0
1 4 0 2
16
17
0.15 0.1333333333333333 0
0.15 0.1166666666666666 0
1 5 0 4
18
19
20
21
0.15 0.07999999999999999 0
0.15 0.05999999999999994 0
0.15 0.03999999999999992 0
0.15 0.01999999999999993 0
1 6 0 7
22
23
24
25
26
27
28
0.13125 0 0
0.1125000000000001 0 0
0.0937500000000001 0 0
0.07500000000000011 0 0
0.05625000000000011 0 0
0.03750000000000006 0 0
0.01875000000000002 0 0
1 7 0 4
29
30
31
32
0 0.02000000000000002 0
0 0.04000000000000007 0
0 0.06000000000000008 0
0 0.08000000000000007 0
1 8 0 2
33
34
0 0.1166666666666667 0
0 0.1333333333333334 0
1 9 0 1
35
0.01250000000000002 0.1 0
1 10 0 4
36
37
38
39
0.04500000000000003 0.1 0
0.06500000000000007 0.1 0
0.08500000000000008 0.1 0
0.1050000000000001 0.1 0
1 11 0 1
40
0.1375 0.1 0
2 1 0 21
41
42
43
44
45
46
47
48
49
50
51
52
53
54
55
56
57
58
59
60
61
0.01360635652710916 0.1231216006384999 0
0.1363936434728908 0.1231216006384998 0
0.04575544542832781 0.1334543721177237 0
0.1042445545716722 0.1334543721177237 0
0.07500000000000005 0.1168503599995109 0
0.03500000000000002 0.1140729128114971 0
0.115 0.1140729128114971 0
0.05382701688998123 0.1161924123402489 0
0.09617298311001884 0.1161924123402488 0
0.01963242354752961 0.1108610596234735 0
0.1303675764524704 0.1108610596234735 0
0.06460969754706532 0.1337930099161461 0
0.08540515708882904 0.133779934457703 0
0.0288769598817063 0.1307495646165632 0
0.1211230401182937 0.1307495646165631 0
0.01216332994842977 0.1374408997176793 0
0.1378366700515702 0.1374408997176793 0
0.00914775601492776 0.110129865385728 0
0.1408522439850723 0.110129865385728 0
0.02461014920879548 0.1196833491467948 0
0.1253898507912046 0.1196833491467948 0
2 2 0 42
62
63
64
65
66
67
68
69
70
71
72
73
74
75
76
77
78
79
80
81
82
83
84
85
86
87
88
89
90
91
92
93
94
95
96
97
98
99
100
101
102
103
0.08370006002748963 0.01771926070260504 0
0.01706739565878835 0.05007365678459617 0
0.09732447886134077 0.08302041971791824 0
0.05215379988163752 0.08381789272088308 0
0.1326794919243112 0.04999999999999993 0
0.04824925014093087 0.01644270579299997 0
0.121397480282607 0.01437448350305637 0
0.02141593255529124 0.08809969608813908 0
0.1283908324761535 0.08809546552245898 0
0.01581776965401172 0.07227859878916627 0
0.03304315448756391 0.05994886041137245 0
0.03434346622011381 0.04198064903716682 0
0.04982824673635805 0.05202094168919449 0
0.1339424240542764 0.07225362765301808 0
0.1165797266214316 0.05999127088458985 0
0.1152456441360605 0.04170266580251535 0
0.09936616452802666 0.05073712774889766 0
0.03426451853194304 0.07714493166898306 0
0.115495842468682 0.077017436100146 0
0.0991501753760244 0.03224940041298373 0
0.08283443935229559 0.03895389230195272 0
0.0838239470136727 0.06198082024315137 0
0.06656236962076686 0.02754815830397577 0
0.01808200781189953 0.03003632919997622 0
0.07496461668015129 0.08269992049355071 0
0.1317219373608326 0.02996560032894907 0
0.02885737068568149 0.01447082512967582 0
0.06405558060122304 0.06644334155391365 0
0.1033311189655468 0.01490342869417054 0
0.05031204242867097 0.03447233683830295 0
0.06623610429216453 0.04690324848841516 0
0.1025180318986308 0.06654941493894062 0
0.04666906004774511 0.06787519360886934 0
0.06562500000000011 0.01219480909273486 0
0.03520657805895568 0.09068825014660914 0
0.1147238450296047 0.09066650076702426 0
0.1366942427314703 0.01335413854870886 0
0.01328418911267119 0.01334534178171801 0
0.113448287149479 0.02658216281018944 0
0.009946740441860599 0.08807565897546109 0
0.139966651306086 0.08806981863509541 0
0.03670452329797035 0.02688160790736319 0
$EndNodes
$Elements
11 209 1 209
1 1 1 3
1 4 11 
2 11 12 
3 12 5 
1 2 1 2
4 5 13 
5 13 6 
1 3 1 3
6 6 14 
7 14 15 
8 15 3 
1 4 1 3
9 3 16 
10 16 17 
11 17 10 
1 5 1 5
12 10 18 
13 18 19 
14 19 20 
15 20 21 
16 21 2 
1 6 1 8
17 2 22 
18 22 23 
19 23 24 
20 24 25 
21 25 26 
22 26 27 
23 27 28 
24 28 1 
1 7 1 5
25 1 29 
26 29 30 
27 30 31 
28 31 32 
29 32 7 
1 8 1 3
30 7 33 
31 33 34 
32 34 4 
1 10 1 5
33 8 36 
34 36 37 
35 37 38 
36 38 39 
37 39 9 
2 1 2 63
38 15 55 14 
39 12 54 11 
40 15 57 55 
41 54 56 11 
42 46 54 43 
43 44 55 47 
44 8 46 36 
45 39 47 9 
46 43 48 46 
47 47 49 44 
48 8 50 46 
49 47 51 9 
50 50 58 41 
51 42 59 51 
52 48 52 45 
53 45 53 49 
54 37 48 45 
55 45 49 38 
56 14 55 44 
57 43 54 12 
58 52 53 45 
59 43 52 48 
60 49 53 44 
61 41 58 33 
62 17 59 42 
63 41 56 54 
64 55 57 42 
65 33 58 7 
66 10 59 17 
67 13 53 52 
68 34 41 33 
69 17 42 16 
70 6 53 13 
71 13 52 5 
72 37 45 38 
73 14 44 6 
74 5 43 12 
75 5 52 43 
76 44 53 6 
77 36 48 37 
78 38 49 39 
79 9 51 40 
80 35 50 8 
81 50 60 46 
82 47 61 51 
83 3 57 15 
84 11 56 4 
85 46 48 36 
86 39 49 47 
87 16 57 3 
88 4 56 34 
89 42 57 16 
90 34 56 41 
91 46 60 54 
92 55 61 47 
93 54 60 41 
94 42 61 55 
95 35 58 50 
96 51 59 40 
97 41 60 50 
98 51 61 42 
99 40 59 10 
100 7 58 35 
2 2 2 109
101 62 84 82 
102 71 101 69 
103 70 102 75 
104 62 82 81 
105 83 92 89 
106 83 86 64 
107 7 101 32 
108 18 102 10 
109 79 96 65 
110 75 80 70 
111 64 97 80 
112 82 92 83 
113 32 101 71 
114 75 102 18 
115 69 79 71 
116 64 93 83 
117 65 94 79 
118 89 92 74 
119 9 97 39 
120 36 96 8 
121 84 95 67 
122 67 91 84 
123 32 71 31 
124 19 75 18 
125 31 71 63 
126 80 93 64 
127 66 75 19 
128 83 89 86 
129 39 97 64 
130 30 85 29 
131 87 100 77 
132 77 81 78 
133 65 96 36 
134 64 86 38 
135 71 72 63 
136 66 76 75 
137 68 100 87 
138 39 64 38 
139 31 63 30 
140 81 82 78 
141 37 86 65 
142 63 85 30 
143 38 86 37 
144 20 66 19 
145 37 65 36 
146 81 90 62 
147 76 80 75 
148 77 78 76 
149 72 74 73 
150 82 83 78 
151 62 95 84 
152 25 62 24 
153 73 85 63 
154 27 67 26 
155 23 68 22 
156 66 87 77 
157 71 79 72 
158 21 87 20 
159 66 77 76 
160 72 73 63 
161 80 97 70 
162 27 88 67 
163 62 90 24 
164 28 88 27 
165 20 87 66 
166 70 97 9 
167 23 90 68 
168 8 96 69 
169 86 89 65 
170 83 93 78 
171 84 92 82 
172 74 94 89 
173 79 94 72 
174 24 90 23 
175 25 95 62 
176 69 96 79 
177 67 95 26 
178 2 98 21 
179 29 99 1 
180 22 98 2 
181 1 99 28 
182 73 103 85 
183 8 69 35 
184 40 70 9 
185 74 91 73 
186 76 93 80 
187 85 103 88 
188 85 99 29 
189 21 98 87 
190 78 93 76 
191 72 94 74 
192 91 92 84 
193 87 98 68 
194 35 101 7 
195 10 102 40 
196 26 95 25 
197 74 92 91 
198 77 100 81 
199 89 94 65 
200 68 98 22 
201 88 99 85 
202 90 100 68 
203 88 103 67 
204 28 99 88 
205 67 103 91 
206 69 101 35 
207 40 102 70 
208 81 100 90 
209 91 103 73 
$EndElements
