$MeshFormat
4.1 0 8
$EndMeshFormat
$PhysicalNames
3
0 2 "Left"
0 3 "Right"
1 4 "Line"
$EndPhysicalNames
$Entities
2 1 0 0
1 0 0 0 1 2 
2 1 0 0 1 3 
1 -9.999999994736442e-08 -1e-07 -1e-07 1.0000001 1e-07 1e-07 1 4 2 1 -2 
$EndEntities
$Nodes
3 21 1 21
0 1 0 1
1
0 0 0
0 2 0 1
2
1 0 0
1 1 0 19
3
4
5
6
7
8
9
10
11
12
13
14
15
16
17
18
19
20
21
0.05 0 0
0.1 0 0
0.15 0 0
0.2 0 0
0.25 0 0
0.3 0 0
0.35 0 0
0.4 0 0
0.45 0 0
0.5 0 0
0.55 0 0
0.6000000000000001 0 0
0.65 0 0
0.7000000000000001 0 0
0.75 0 0
0.8 0 0
0.8500000000000001 0 0
0.9 0 0
0.9500000000000001 0 0
$EndNodes
$Elements
3 22 1 22
0 1 15 1
1 1 
0 2 15 1
2 2 
1 1 1 20
3 1 3 
4 3 4 
5 4 5 
6 5 6 
7 6 7 
8 7 8 
9 8 9 
10 9 10 
11 10 11 
12 11 12 
13 12 13 
14 13 14 
15 14 15 
16 15 16 
17 16 17 
18 17 18 
19 18 19 
20 19 20 
21 20 21 
22 21 2 
$EndElements
