$MeshFormat
4.1 0 8
$EndMeshFormat
$PhysicalNames
6
1 6 "Top"
1 7 "Load"
1 8 "Left"
1 9 "Right"
1 10 "Bottom"
2 11 "Domain"
$EndPhysicalNames
$Entities
5 5 1 0
1 0 0 0 0 
2 5 0 0 0 
3 5 5 0 0 
4 0 5 0 0 
5 0.5 5 0 0 
1 -9.999999997511999e-08 4.9999999 -1e-07 0.5000000999999999 5.0000001 1e-07 1 6 2 4 -5 
2 0.4999999000000002 4.9999999 -1e-07 5.0000001 5.0000001 1e-07 1 7 2 5 -3 
3 4.9999999 -9.999999983634211e-08 -1e-07 5.0000001 5.0000001 1e-07 1 9 2 3 -2 
4 -9.999999983634211e-08 -1e-07 -1e-07 5.0000001 1e-07 1e-07 1 10 2 2 -1 
5 -1e-07 -9.999999983634211e-08 -1e-07 1e-07 5.0000001 1e-07 1 8 2 4 -1 
1 -9.999999983634211e-08 -9.999999983634211e-08 -1e-07 5.0000001 5.0000001 1e-07 1 11 5 5 -4 -3 -2 -1 
$EndEntities
$Nodes
11 279 1 279
0 1 0 1
1
0 0 0
0 2 0 1
2
5 0 0
0 3 0 1
3
5 5 0
0 4 0 1
4
0 5 0
0 5 0 1
5
0.5 5 0
1 1 0 21
6
7
8
9
10
11
12
13
14
15
16
17
18
19
20
21
22
23
24
25
26
0.0720222831287864 5 0
0.1340591867502549 5 0
0.1874951190763384 5 0
0.2335225370022689 5 0
0.2731685751961661 5 0
0.3073179800114135 5 0
0.3367328097225915 5 0
0.3620694804761571 5 0
0.383893401296352 5 0
0.4026915909866795 5 0
0.418883549235293 5 0
0.4328306047655135 5 0
0.4448439985822141 5 0
0.4551918217712037 5 0
0.4641049936981009 5 0
0.4717824170482493 5 0
0.4783954202886214 5 0
0.484091576911193 5 0
0.4889980029720439 5 0
0.4932241873267931 5 0
0.4968644413893992 5 0
1 2 0 26
27
28
29
30
31
32
33
34
35
36
37
38
39
40
41
42
43
44
45
46
47
48
49
50
51
52
0.5032504559586745 5 0
0.5072811902878361 5 0
0.5122795111897668 5 0
0.5184776906126428 5 0
0.5261637547669221 5 0
0.535694876385833 5 0
0.5475139638079501 5 0
0.5621702493081018 5 0
0.5803448074111216 5 0
0.602882211033931 5 0
0.6308297613818243 5 0
0.665486180220469 5 0
0.7084619511009537 5 0
0.7617541482104113 5 0
0.8278392564327353 5 0
0.9097882288308192 5 0
1.011409234179592 5 0
1.137424589214491 5 0
1.293690193729427 5 0
1.487467719160897 5 0
1.727761897279919 5 0
2.025739266149303 5 0
2.395246729235158 5 0
2.85345525362466 5 0
3.421657734636776 5 0
4.126258546513739 5 0
1 3 0 4
53
54
55
56
5 4 0
5 3 0
5 2 0
5 1 0
1 4 0 4
57
58
59
60
4 0 0
3 0 0
2 0 0
1 0 0
1 5 0 13
61
62
63
64
65
66
67
68
69
70
71
72
73
0 4.914040275801221 0
0 4.811085693293381 0
0 4.687776226243599 0
0 4.540087576276066 0
0 4.363199781368579 0
0 4.151339958122294 0
0 3.897593936503073 0
0 3.593680444481691 0
0 3.2296809583941 0
0 2.7937161659185 0
0 2.271557966826238 0
0 1.646165180176992 0
0 0.8971275556128058 0
2 1 0 206
74
75
76
77
78
79
80
81
82
83
84
85
86
87
88
89
90
91
92
93
94
95
96
97
98
99
100
101
102
103
104
105
106
107
108
109
110
111
112
113
114
115
116
117
118
119
120
121
122
123
124
125
126
127
128
129
130
131
132
133
134
135
136
137
138
139
140
141
142
143
144
145
146
147
148
149
150
151
152
153
154
155
156
157
158
159
160
161
162
163
164
165
166
167
168
169
170
171
172
173
174
175
176
177
178
179
180
181
182
183
184
185
186
187
188
189
190
191
192
193
194
195
196
197
198
199
200
201
202
203
204
205
206
207
208
209
210
211
212
213
214
215
216
217
218
219
220
221
222
223
224
225
226
227
228
229
230
231
232
233
234
235
236
237
238
239
240
241
242
243
244
245
246
247
248
249
250
251
252
253
254
255
256
257
258
259
260
261
262
263
264
265
266
267
268
269
270
271
272
273
274
275
276
277
278
279
0.4867852405280164 4.995687196421732 0
0.4395501945175528 4.991665760968592 0
0.3729814408862557 4.982410110171275 0
0.5521880863892743 4.988142456283512 0
0.6431876243752708 4.972089704131679 0
0.5010048217096501 4.996709375755042 0
0.9605987315052058 4.920511867949539 0
1.387062366868275 4.84644766220654 0
2.13437320723486 4.658018885383473 0
0.2881183990813954 4.971444363642417 0
0.4683986754123972 4.994643884050019 0
0.5136862932771473 4.993868405686706 0
0.2616315157404641 3.404861291305394 0
0.134968440489398 4.459398697346597 0
3.051015854584414 4.588093033423831 0
0.1948824863367413 4.039382621836394 0
0.4341000529783563 2.504708115564688 0
0.7351080496556828 4.958314747075002 0
0.5916135092225254 4.982371203453766 0
0.2152305868480302 4.960261293458245 0
0.530929315576379 4.992544739869371 0
2.455065584970404 0.8337766998146017 0
0.09797520744002064 4.749430959768491 0
0.4952525602250253 4.9961397851089 0
0.4992315786884696 4.991416657466779 0
4.030030598979766 2.398879154499855 0
0.6455986357082635 1.376598520004087 0
0.1093855598813507 4.949610403055862 0
1.429280874219705 0.856634672125371 0
2.003270382446012 1.580942859210141 0
2.800122496333826 1.616706295442241 0
2.356786579303952 2.254453954642059 0
1.621612072786516 2.258239656550493 0
1.965563778481751 2.863816600623953 0
2.637858445571462 2.892448502657068 0
2.256140491973033 3.416121205640556 0
1.670281724487282 3.38276643228739 0
1.944565290312988 3.915622243054645 0
1.400312202646898 3.792851865413433 0
1.164015493884733 3.407307648452004 0
0.9729872280194143 3.784154854403679 0
1.137803203470993 4.106360961711736 0
0.7504906920125671 4.078015252826508 0
0.9189517671434109 4.351802739402412 0
0.6602003119424971 4.38135929402496 0
0.8030739134048761 4.567851985041953 0
0.5218648235828254 4.542265769000318 0
0.6355689339126296 4.716328060099641 0
0.9934238367723163 4.581180926320646 0
2.881469335079348 3.489801995101198 0
0.4494757161199887 4.374620096224662 0
0.8728765649057255 4.726731434317697 0
0.3784752043418593 4.566878326901845 0
0.4619753358382495 4.654852305118747 0
0.2962657764756407 4.667063850465906 0
0.375319029840063 4.793456585748857 0
0.6694927119644809 3.78114182624982 0
1.241785131314718 4.452185522947884 0
2.527750608055122 3.91547695243142 0
1.573352100131832 4.228463205902941 0
1.550382100531995 4.507305195332272 0
1.941972493351905 4.31330911403384 0
0.7809309343441431 3.481397678636011 0
0.9096540966578832 3.07965841981196 0
1.387985562774256 2.92938271768117 0
1.023605189262846 4.774016153011698 0
3.346838482297615 0.9495542834193262 0
0.9967862103473684 2.584507548361218 0
0.8120183855155154 2.037020938153475 0
0.1037743766429484 4.83106295390869 0
0.1770412499241196 4.803860511476701 0
0.1607336737514151 4.89246847065528 0
0.2343929365007358 4.847617006842397 0
0.1113163399363137 4.618854503376912 0
3.395904439110417 2.989844066047833 0
3.570207797124257 3.703315960961927 0
1.862013097819696 4.79190075913803 0
1.283451518126022 1.714657808851323 0
0.1599798339263994 4.273244194096393 0
1.195565482480819 4.850222578498784 0
1.275351949268472 4.697773138158363 0
3.716161524027978 4.400399672042593 0
0.3215647259156693 4.972460388681117 0
0.3055155193513253 4.942254043067239 0
0.3432199266883109 4.942095981198749 0
0.3257570222859489 4.908677257042475 0
0.367229085268248 4.904274242131447 0
0.259082707591606 4.941090763526446 0
0.3842862768648394 4.942298296513002 0
0.4079960329475116 4.908579144732903 0
0.4107875701109811 4.986949424211261 0
0.4231205917361867 4.946310756686946 0
0.4461286095126908 4.914519653765044 0
0.4560667146053001 4.946274068395685 0
0.4847898530808417 4.923456794640696 0
0.4704678105886098 4.87856153336428 0
0.5168996603200469 4.887582319546989 0
0.5297076641045517 4.935883643860723 0
0.5634935709684181 4.898756158945533 0
0.5001806826461361 4.835247260045991 0
0.3378281033880004 4.862894459952122 0
0.4412090715686383 4.96342289950721 0
0.4617785013266729 4.970731687913011 0
0.4803071143285003 4.956158662810264 0
0.4798607235154448 4.976335974005235 0
0.4979999935426966 4.970350662873193 0
0.567192764717555 4.942978297030789 0
0.6096443472231634 4.911719135978497 0
0.6009703146390197 4.853836580580079 0
0.6589141920280042 4.873333863870208 0
0.474960883456101 4.993930412610769 0
0.4501353167464428 4.990728409806538 0
0.221536856022948 3.749900309881458 0
0.5291300656379894 4.17116408018169 0
0.8688137426317766 4.935899362778427 0
0.1971959621598476 4.69724234111124 0
4.158260793683108 1.48983398859507 0
0.3297382642630677 3.006651163951614 0
2.580161668142927 4.67823448989153 0
1.611704540210654 4.76316151279363 0
0.1623756701409094 4.957368645906915 0
0.3494011450993688 4.979961561464293 0
0.4600374328244783 4.992789966225604 0
0.4268263921989863 4.988745399922772 0
0.4245362901307201 4.9724599567568 0
0.4030294060287289 4.966443609682042 0
0.4812434985999032 4.99549498418343 0
0.4847608751682775 4.990600384892824 0
0.4908499154509203 4.991239079593747 0
0.2798003987290376 4.761760673146791 0
0.4694689433502957 4.985757699159613 0
1.065720645328591 4.908950119892005 0
0.793823994599246 4.948772883905853 0
0.7653474213172851 4.894892382212429 0
0.6137793790007424 4.981775513026929 0
0.6856612098500212 4.966866242640766 0
0.5694442536994095 4.984316533924593 0
0.5013547426771514 4.949228402027003 0
0.234787021100832 4.567942931977954 0
3.057940798557819 4.015315831344661 0
4.204384153598309 3.97273026285475 0
3.120581234422321 2.315315931002743 0
0.3938633849026276 4.863294600792049 0
0.6493194756346912 4.802558553529876 0
0.5664671385407494 4.788551037596877 0
0.5209479269571617 4.99206245450273 0
0.5242010078127732 4.983487967698164 0
0.5372205072374059 4.980047983127758 0
0.5116141693367557 4.982453862701522 0
0.5197826080567076 4.966330222612203 0
0.5566013547307926 4.970611222870034 0
0.4417505914625077 4.83455328628033 0
0.3642154869031704 4.960245913933019 0
0.7357313276543742 4.722306188737774 0
0.2828689815848007 4.411668079964454 0
0.5065201736552163 4.991186790968225 0
0.2225745582808787 4.908426984759658 0
0.4910219813005599 4.996613212224876 0
0.3408318817614266 4.204434935869917 0
2.305185594458093 4.300100442066173 0
0.4751961667805951 4.765570435399979 0
4.172422173582442 3.236864882137349 0
0.721730277039679 4.838890362585014 0
0.8961986157749218 4.842495029770794 0
0.6026748035198519 4.954627037144308 0
0.3929337923700933 4.984472317429425 0
0.6545009389634959 4.931689924019113 0
0.4342262220491917 3.954138617255494 0
0.8114107760839189 4.825452796686674 0
0.6153224841516363 0.6123589500292543 0
0.4442013820629476 4.979273488423871 0
0.4888576922673717 4.98307696265691 0
0.2538245611438934 4.974559284125421 0
0.297838430462106 4.823949314729695 0
0.4998150234820593 4.984240749527642 0
0.4572767599236816 4.983332362791998 0
0.552790694466611 4.676335775696435 0
0.5095349964791946 4.996216630835868 0
0.5384650142817486 4.961514734941392 0
0.0485139299325561 4.951129246148085 0
4.145552720997246 0.7426356438109294 0
0.2832841825515144 4.89070140427429 0
4.507091216249266 4.505415984207531 0
2.703805017585699 4.305300383480269 0
0.5409650842272296 4.991857543142075 0
3.49855083626833 1.744845798538059 0
1.135892295213307 4.655705050579074 0
0.550338330672584 3.241117570061595 0
0.3503381092562114 1.963121048319717 0
0.5510267660940196 4.853628794868013 0
1.449620821881134 4.668696794408748 0
0.4320412858827898 4.879901643786921 0
0.6382977142198836 2.838634333270614 0
0.4782693649652789 4.987478058004874 0
0.8271189100814296 4.889502491070836 0
0.465637876775288 3.604669277340851 0
1.791632694861719 4.533257994144207 0
1.178467046693855 2.148606487979127 0
0.5774130536001603 4.966507193733783 0
0.3821532111881192 4.965149928760124 0
0.07515197923216377 4.902280316267015 0
0.1902286222553085 4.929631348695025 0
0.5057683248423022 4.997129524055198 0
0.6541654146519125 4.594320029884746 0
0.70529076377401 4.911845673754527 0
0.3821496506642044 4.707337697474712 0
$EndNodes
$Elements
6 556 1 556
1 1 1 22
1 4 6 
2 6 7 
3 7 8 
4 8 9 
5 9 10 
6 10 11 
7 11 12 
8 12 13 
9 13 14 
10 14 15 
11 15 16 
12 16 17 
13 17 18 
14 18 19 
15 19 20 
16 20 21 
17 21 22 
18 22 23 
19 23 24 
20 24 25 
21 25 26 
22 26 5 
1 2 1 27
23 5 27 
24 27 28 
25 28 29 
26 29 30 
27 30 31 
28 31 32 
29 32 33 
30 33 34 
31 34 35 
32 35 36 
33 36 37 
34 37 38 
35 38 39 
36 39 40 
37 40 41 
38 41 42 
39 42 43 
40 43 44 
41 44 45 
42 45 46 
43 46 47 
44 47 48 
45 48 49 
46 49 50 
47 50 51 
48 51 52 
49 52 3 
1 3 1 5
50 3 53 
51 53 54 
52 54 55 
53 55 56 
54 56 2 
1 4 1 5
55 2 57 
56 57 58 
57 58 59 
58 59 60 
59 60 1 
1 5 1 14
60 4 61 
61 61 62 
62 62 63 
63 63 64 
64 64 65 
65 65 66 
66 66 67 
67 67 68 
68 68 69 
69 69 70 
70 70 71 
71 71 72 
72 72 73 
73 73 1 
2 1 2 483
74 129 247 203 
75 117 119 118 
76 102 151 100 
77 165 199 162 
78 145 194 101 
79 153 205 139 
80 159 255 174 
81 208 238 78 
82 120 127 126 
83 131 264 154 
84 85 222 219 
85 198 244 197 
86 167 175 165 
87 238 240 78 
88 107 138 106 
89 155 213 149 
90 132 233 111 
91 115 117 116 
92 138 141 106 
93 26 97 79 
94 122 125 119 
95 187 241 116 
96 139 260 153 
97 171 211 168 
98 117 118 116 
99 203 279 129 
100 133 270 134 
101 101 274 145 
102 62 274 61 
103 100 243 102 
104 119 277 118 
105 127 279 126 
106 121 277 227 
107 161 246 93 
108 115 116 114 
109 100 151 142 
110 143 274 62 
111 109 132 111 
112 125 227 119 
113 117 131 122 
114 224 252 180 
115 88 213 155 
116 112 115 114 
117 148 215 99 
118 142 262 100 
119 178 204 176 
120 133 134 131 
121 82 270 135 
122 118 277 120 
123 111 112 110 
124 193 264 134 
125 131 260 122 
126 198 199 165 
127 163 165 162 
128 174 255 247 
129 117 122 119 
130 93 230 161 
131 115 133 131 
132 150 270 82 
133 111 133 112 
134 126 279 128 
135 109 111 110 
136 134 264 131 
137 166 167 165 
138 109 110 107 
139 95 103 102 
140 105 107 106 
141 196 249 204 
142 120 126 124 
143 134 270 193 
144 112 114 113 
145 96 143 62 
146 105 106 103 
147 57 140 58 
148 63 147 96 
149 80 237 139 
150 111 135 133 
151 116 241 130 
152 229 276 79 
153 180 252 171 
154 144 145 143 
155 149 214 155 
156 110 138 107 
157 115 131 117 
158 63 96 62 
159 135 270 133 
160 214 235 53 
161 158 195 156 
162 120 250 127 
163 95 102 59 
164 139 205 80 
165 215 259 99 
166 193 270 150 
167 56 254 2 
168 108 109 107 
169 177 178 176 
170 179 245 178 
171 168 177 167 
172 11 156 12 
173 141 271 106 
174 123 132 109 
175 181 240 238 
176 122 139 125 
177 112 133 115 
178 144 146 145 
179 87 147 64 
180 170 171 168 
181 103 151 102 
182 145 274 143 
183 104 105 103 
184 175 244 198 
185 50 192 88 
186 87 212 147 
187 53 235 54 
188 99 235 148 
189 87 228 212 
190 116 130 114 
191 176 249 244 
192 227 277 119 
193 147 189 96 
194 112 113 110 
195 161 255 157 
196 64 147 63 
197 96 144 143 
198 158 226 195 
199 153 260 154 
200 58 95 59 
201 128 279 203 
202 171 223 211 
203 135 233 82 
204 57 254 140 
205 171 252 223 
206 174 247 129 
207 96 189 144 
208 2 254 57 
209 59 102 60 
210 157 255 159 
211 65 87 64 
212 154 260 131 
213 146 230 145 
214 58 140 95 
215 129 216 174 
216 106 151 103 
217 144 203 146 
218 18 185 19 
219 160 162 158 
220 65 152 87 
221 73 100 72 
222 176 244 175 
223 120 124 118 
224 95 104 103 
225 50 88 51 
226 162 226 158 
227 212 228 126 
228 155 256 52 
229 167 176 175 
230 89 241 232 
231 105 108 107 
232 54 99 55 
233 71 90 70 
234 139 237 125 
235 148 235 149 
236 67 89 66 
237 99 190 55 
238 129 279 234 
239 66 152 65 
240 89 152 66 
241 168 211 177 
242 220 223 221 
243 100 262 72 
244 102 243 60 
245 21 184 22 
246 204 249 176 
247 175 198 165 
248 114 136 113 
249 69 86 68 
250 108 123 109 
251 129 234 225 
252 70 191 69 
253 90 191 70 
254 68 186 67 
255 55 190 56 
256 156 195 12 
257 90 142 141 
258 48 82 49 
259 67 186 89 
260 47 193 150 
261 105 215 108 
262 211 223 179 
263 47 150 48 
264 189 203 144 
265 51 155 52 
266 85 229 222 
267 89 232 152 
268 247 255 146 
269 86 186 68 
270 202 248 98 
271 118 187 116 
272 8 93 9 
273 10 83 11 
274 13 76 14 
275 23 74 24 
276 20 84 21 
277 17 75 18 
278 69 191 86 
279 163 166 165 
280 172 180 171 
281 214 256 155 
282 6 101 7 
283 219 222 220 
284 49 192 50 
285 1 243 73 
286 152 228 87 
287 192 257 88 
288 7 194 8 
289 45 81 46 
290 113 138 110 
291 44 153 45 
292 199 273 162 
293 232 241 187 
294 99 259 190 
295 141 266 90 
296 12 195 13 
297 186 269 241 
298 145 275 194 
299 83 156 11 
300 108 215 148 
301 41 188 42 
302 160 163 162 
303 136 137 113 
304 46 193 47 
305 16 197 17 
306 42 80 43 
307 203 247 146 
308 186 241 89 
309 19 196 20 
310 177 179 178 
311 61 253 4 
312 48 150 82 
313 3 256 53 
314 185 196 19 
315 151 271 142 
316 95 140 104 
317 179 223 222 
318 44 205 153 
319 129 225 216 
320 4 253 6 
321 15 164 16 
322 173 234 218 
323 245 248 202 
324 167 177 176 
325 22 200 23 
326 123 213 132 
327 43 205 44 
328 60 243 1 
329 104 215 105 
330 39 91 40 
331 170 172 171 
332 222 248 179 
333 71 262 90 
334 101 194 7 
335 8 194 93 
336 166 168 167 
337 75 185 18 
338 13 195 76 
339 54 235 99 
340 40 206 41 
341 218 263 173 
342 148 149 123 
343 14 239 15 
344 128 212 126 
345 149 213 123 
346 130 136 114 
347 184 200 22 
348 35 92 36 
349 33 77 34 
350 37 78 38 
351 52 256 3 
352 241 269 130 
353 190 259 140 
354 93 246 9 
355 190 254 56 
356 41 206 188 
357 77 224 210 
358 106 271 151 
359 17 197 75 
360 157 158 156 
361 234 250 218 
362 45 153 81 
363 38 209 39 
364 126 228 124 
365 20 196 84 
366 84 184 21 
367 90 262 142 
368 72 262 71 
369 236 278 183 
370 108 148 123 
371 93 275 230 
372 9 246 10 
373 76 239 14 
374 137 141 138 
375 34 210 35 
376 36 208 37 
377 23 200 74 
378 230 255 161 
379 97 231 202 
380 24 231 25 
381 147 212 189 
382 137 138 113 
383 82 233 192 
384 159 160 158 
385 217 218 121 
386 189 212 128 
387 250 277 121 
388 140 254 190 
389 32 258 33 
390 31 94 32 
391 124 187 118 
392 77 258 221 
393 128 203 189 
394 160 216 163 
395 10 246 83 
396 42 188 80 
397 164 197 16 
398 88 155 51 
399 153 154 81 
400 98 229 79 
401 201 267 245 
402 120 277 250 
403 149 235 214 
404 121 227 217 
405 39 209 91 
406 74 231 24 
407 234 279 127 
408 85 251 229 
409 88 257 213 
410 182 263 218 
411 184 267 200 
412 182 218 217 
413 73 243 100 
414 200 267 201 
415 82 192 49 
416 30 219 31 
417 15 239 164 
418 195 226 76 
419 140 259 104 
420 83 157 156 
421 183 240 181 
422 207 278 236 
423 136 261 137 
424 136 269 261 
425 28 251 29 
426 188 237 80 
427 35 210 92 
428 37 208 78 
429 152 232 228 
430 181 238 180 
431 130 269 136 
432 90 266 191 
433 29 85 30 
434 172 181 180 
435 182 183 181 
436 224 272 210 
437 76 273 239 
438 169 170 168 
439 81 193 46 
440 83 161 157 
441 261 269 86 
442 157 159 158 
443 178 267 204 
444 185 249 196 
445 213 257 132 
446 221 224 77 
447 191 261 86 
448 223 252 221 
449 227 236 217 
450 209 278 91 
451 164 198 197 
452 124 232 187 
453 25 97 26 
454 137 266 141 
455 188 268 237 
456 83 246 161 
457 86 269 186 
458 159 174 160 
459 80 205 43 
460 240 278 209 
461 179 248 245 
462 127 250 234 
463 6 253 101 
464 164 199 198 
465 191 266 261 
466 261 266 137 
467 33 258 77 
468 244 249 185 
469 182 217 183 
470 218 250 121 
471 75 244 185 
472 91 206 40 
473 180 272 224 
474 200 201 74 
475 91 207 206 
476 169 225 173 
477 174 216 160 
478 236 242 207 
479 202 231 74 
480 169 173 170 
481 166 169 168 
482 172 182 181 
483 164 239 199 
484 169 265 225 
485 225 265 216 
486 177 211 179 
487 78 209 38 
488 233 257 192 
489 84 204 184 
490 27 276 28 
491 78 240 209 
492 61 274 253 
493 225 234 173 
494 122 260 139 
495 228 232 124 
496 92 208 36 
497 77 210 34 
498 216 265 163 
499 239 273 199 
500 94 258 32 
501 227 242 236 
502 142 271 141 
503 217 236 183 
504 104 259 215 
505 230 275 145 
506 97 98 79 
507 222 223 220 
508 201 202 74 
509 154 264 81 
510 125 242 227 
511 31 219 94 
512 92 238 208 
513 81 264 193 
514 201 245 202 
515 220 221 94 
516 210 272 92 
517 98 248 229 
518 146 255 230 
519 183 278 240 
520 206 268 188 
521 97 202 98 
522 194 275 93 
523 25 231 97 
524 53 256 214 
525 226 273 76 
526 219 220 94 
527 5 79 27 
528 245 267 178 
529 91 278 207 
530 173 263 170 
531 85 219 30 
532 242 268 207 
533 163 265 166 
534 237 268 242 
535 170 263 172 
536 92 272 238 
537 221 258 94 
538 29 251 85 
539 253 274 101 
540 132 257 233 
541 251 276 229 
542 221 252 224 
543 172 263 182 
544 207 268 206 
545 162 273 226 
546 166 265 169 
547 237 242 125 
548 79 276 27 
549 204 267 184 
550 229 248 222 
551 28 276 251 
552 238 272 180 
553 26 79 5 
554 197 244 75 
555 196 204 84 
556 111 233 135 
$EndElements
