$MeshFormat
4.1 0 8
$EndMeshFormat
$PhysicalNames
6
1 6 "Bottom"
1 7 "Notch"
1 8 "Left"
1 9 "Right"
1 10 "Top"
2 11 "Domain"
$EndPhysicalNames
$Entities
5 5 1 0
1 0 15 0 0 
2 5 15 0 0 
3 5 0 0 0 
4 0 0 0 0 
5 0.5 0 0 0 
1 -9.999999997511999e-08 -1e-07 -1e-07 0.5000000999999999 1e-07 1e-07 1 6 2 4 -5 
2 0.4999999000000002 -1e-07 -1e-07 5.0000001 1e-07 1e-07 1 7 2 5 -3 
3 4.9999999 -1.000000002804313e-07 -1e-07 5.0000001 15.0000001 1e-07 1 9 2 3 -2 
4 -9.999999983634211e-08 14.9999999 -1e-07 5.0000001 15.0000001 1e-07 1 10 2 2 -1 
5 -1e-07 -1.000000002804313e-07 -1e-07 1e-07 15.0000001 1e-07 1 8 2 4 -1 
1 -9.999999983634211e-08 -1.000000002804313e-07 -1e-07 5.0000001 15.0000001 1e-07 1 11 5 5 -4 -3 -2 -1 
$EndEntities
$Nodes
11 319 1 319
0 1 0 1
1
0 15 0
0 2 0 1
2
5 15 0
0 3 0 1
3
5 0 0
0 4 0 1
4
0 0 0
0 5 0 1
5
0.5 0 0
1 1 0 25
6
7
8
9
10
11
12
13
14
15
16
17
18
19
20
21
22
23
24
25
26
27
28
29
30
0.04708482447870513 0 0
0.09017908625290844 0 0
0.1296209942718645 0 0
0.1657200911434949 0 0
0.1987596955180631 0 0
0.2289991066334422 0 0
0.2566756390472186 0 0
0.282006515975635 0 0
0.3051905354333813 0 0
0.3264096447755847 0 0
0.3458303770065932 0 0
0.3636051484689967 0 0
0.3798734621475811 0 0
0.3947629913147619 0 0
0.4083905942870085 0 0
0.4208632206923505 0 0
0.4322787584695511 0 0
0.4427267980580151 0 0
0.4522893383868256 0 0
0.4610414277884129 0 0
0.4690517548169696 0 0
0.4763831843632785 0 0
0.4830932562492429 0 0
0.489234630495912 0 0
0.4948555074395281 0 0
1 2 0 16
31
32
33
34
35
36
37
38
39
40
41
42
43
44
45
46
0.5058681102401182 0 0
0.5140890812207591 0 0
0.5256063081137103 0 0
0.5417414502563807 0 0
0.5643460912330605 0 0
0.5960142277546701 0 0
0.6403799241981113 0 0
0.7025343665850018 0 0
0.7896100687148351 0 0
0.911599416435566 0 0
1.08250122570855 0 0
1.321927376773692 0 0
1.657353088737552 0 0
2.127270206894569 0 0
2.785603891982779 0 0
3.707901123479927 0 0
1 3 0 7
47
48
49
50
51
52
53
5 1.875 0
5 3.75 0
5 5.625 0
5 7.5 0
5 9.375 0
5 11.25 0
5 13.125 0
1 4 0 2
54
55
3.333333333333333 15 0
1.666666666666667 15 0
1 5 0 28
56
57
58
59
60
61
62
63
64
65
66
67
68
69
70
71
72
73
74
75
76
77
78
79
80
81
82
83
0 0.05217201565614973 0
0 0.1114210249337678 0
0 0.1787069904399118 0
0 0.255120113599427 0
0 0.3418984611478222 0
0 0.4404480567357514 0
0 0.552365648754554 0
0 0.6794645265614052 0
0 0.8238040202632686 0
0 0.9877227645751828 0
0 1.173876639745951 0
0 1.385281767867354 0
0 1.625363456209824 0
0 1.898011495869752 0
0 2.207643533013611 0
0 2.559276283750918 0
0 2.95860704460383 0
0 3.412105999634995 0
0 3.927120704200077 0
0 4.511995739130543 0
0 5.17620747962216 0
0 5.930517735210253 0
0 6.787148105821689 0
0 7.759977931866223 0
0 8.864769641657036 0
0 10.11942309556824 0
0 11.54426686635139 0
0 13.16238671576715 0
2 1 0 236
84
85
86
87
88
89
90
91
92
93
94
95
96
97
98
99
100
101
102
103
104
105
106
107
108
109
110
111
112
113
114
115
116
117
118
119
120
121
122
123
124
125
126
127
128
129
130
131
132
133
134
135
136
137
138
139
140
141
142
143
144
145
146
147
148
149
150
151
152
153
154
155
156
157
158
159
160
161
162
163
164
165
166
167
168
169
170
171
172
173
174
175
176
177
178
179
180
181
182
183
184
185
186
187
188
189
190
191
192
193
194
195
196
197
198
199
200
201
202
203
204
205
206
207
208
209
210
211
212
213
214
215
216
217
218
219
220
221
222
223
224
225
226
227
228
229
230
231
232
233
234
235
236
237
238
239
240
241
242
243
244
245
246
247
248
249
250
251
252
253
254
255
256
257
258
259
260
261
262
263
264
265
266
267
268
269
270
271
272
273
274
275
276
277
278
279
280
281
282
283
284
285
286
287
288
289
290
291
292
293
294
295
296
297
298
299
300
301
302
303
304
305
306
307
308
309
310
311
312
313
314
315
316
317
318
319
0.4650465913026909 0.006643175466255258 0
0.4009135721689581 0.0116792163142776 0
0.3360767191108183 0.01609363520402152 0
0.6686072484949315 0.04737298906823106 0
0.1439555335764418 0.9032363124905913 0
0.5336738791850455 0.01197382702983507 0
0.2191877096005044 1.475641271857355 0
0.3030997443388026 2.408860440538414 0
0.09113496556524758 0.4964068527451477 0
0.2678518541985344 0.02165941528964677 0
0.4374183437217098 0.008779773766981691 0
0.9970503210720578 0.1268255912501868 0
0.4974277537197622 0.004455261246948616 0
1.882422460625423 0.3478065305981408 0
0.1834016436366865 0.03177050192722142 0
0.5801801594938651 0.02350080202372951 0
0.06027212407100979 0.2159754795871027 0
0.3656410640302283 3.139005839392491 0
0.5521078980621277 4.284634403987066 0
0.6248711025791529 5.43595382656645 0
0.1148762942693593 0.03665751530240691 0
0.3746208381215603 0.01647225514889872 0
0.4788082714244006 0.007164846526324986 0
0.5085074236581537 0.005782648977030291 0
0.5023621342983215 0.01550668442700953 0
0.9282899938773697 7.196875520854803 0
1.021669725301139 9.492096368612636 0
3.376202367904177 2.812499999999999 0
1.516371035990367 12.32630868699771 0
3.246752507731353 0.6844332638850013 0
3.438690738740594 6.85585201414903 0
0.04727386285990276 0.08018285451010776 0
3.561383947384949 10.43320848520943 0
3.500679636173819 4.424934006125506 0
2.244500766000094 3.771767371857948 0
1.899405284611891 2.472329216102602 0
2.325111826965208 5.035455048296333 0
1.491843014634928 3.261908443008072 0
1.21044212806022 2.212970236090546 0
1.8717461840928 1.598905006166943 0
1.085103882551675 1.49546851458841 0
2.59165321636288 1.797181250284439 0
1.489640232755622 0.2489181583979638 0
1.56364353775931 0.5987223720845121 0
2.035382514097803 0.775098737623896 0
1.178043538036287 0.591743706373431 0
1.320669394171435 0.9150466662709889 0
0.9394103273823202 0.7758965502950197 0
0.9279927287099508 0.4983677549295527 0
0.6384704050017929 0.7439401885356194 0
0.6191129007530471 0.4606812618813168 0
0.7287731299561155 1.003094444975431 0
0.4797765038532216 0.8893311472780026 0
0.5001095567196021 1.165815939536316 0
0.4078285953385294 0.6757140275221181 0
0.8506047425751999 0.09052782210702404 0
3.349207817592115 8.648047702601314 0
0.05957956094872596 0.142631806198394 0
0.1138016590482454 0.1813818558328251 0
0.1170638336612448 0.2479460984785646 0
0.174722979954343 0.2047137252305564 0
0.1770797310218546 0.2779032800443595 0
0.2341186230640386 0.2403123231292952 0
0.2292307806836362 0.181315744284003 0
0.287748425819025 0.1944706629395556 0
0.2955341240818052 0.2726459528096958 0
0.3519436748782945 0.2271016711399483 0
0.3456937951611323 0.1603617885998769 0
0.4050247702317531 0.1833711627459929 0
0.3862226402613249 0.1298043502246236 0
0.4429200144851269 0.139990794697983 0
0.4652330485339848 0.203441699848403 0
0.5132482634615059 0.1514294494358221 0
0.3674884856715579 0.3069665078982133 0
0.295009093393749 0.3609695591937712 0
0.3373238624541779 0.1105554292619164 0
0.4418171546090401 0.09062973054537782 0
0.3928517049938365 0.07316606859383246 0
0.5381766861876165 0.2289233133698643 0
0.6083985624297865 0.1618935918048212 0
0.1129363195083002 0.1193826681258043 0
0.3821395563023851 0.4036192398582275 0
0.2917465202967069 0.4610269913832621 0
0.6237440591457171 0.2606985761193394 0
0.1207629982094667 0.3090040661188151 0
0.2976328270336266 0.1354181478460523 0
0.2922902787128674 0.08300012004646895 0
0.2580911875400074 0.1109184205843663 0
0.3327518682011847 0.06625898303917666 0
0.2514152765481099 0.07133656751659601 0
0.2210278309190015 0.09164982656670428 0
0.6859269967941681 0.1936148728380287 0
0.302518199997535 0.04587846200843959 0
0.447272495601597 0.3324962898450954 0
0.1948711772724292 0.4121339828867061 0
0.567491617337422 0.1010076470970036 0
0.5144595795782427 0.09748727012613934 0
0.219930577397542 0.0504532530199242 0
0.1857581794688423 0.07239945089513 0
0.1884158625566363 0.1162698219902207 0
0.7292264284971222 0.2863362322698704 0
0.1514208009098446 0.05456604650763985 0
4.125736809376067 0.811128560838724 0
0.5445026009523808 0.06770974513726991 0
2.189492137344576 7.61659033569849 0
1.167326226523016 0.149352088314715 0
0.8907252183841505 0.2422300229198573 0
0.1269334806965006 0.7456848457597811 0
3.394507770373097 12.25315315750985 0
0.7465909736652829 0.06333427256147672 0
0.1088524235138211 0.6076868893905694 0
0.2369463725219196 0.6538358330738951 0
0.1878606640050546 1.271541128777467 0
0.2925007692939952 0.02152576506138715 0
0.4146269074896676 0.01146474883702986 0
0.4078808781650434 0.02378209869994574 0
0.4217894762357997 0.02342616133764874 0
0.4149422220149757 0.03893979688651594 0
0.4334255857899754 0.03563412475091532 0
0.3924316551084348 0.02384652693341938 0
0.4471936596200567 0.008196589007665622 0
0.4425568684502439 0.01992270217262426 0
0.4532717009488345 0.03246264119178655 0
2.5 13.55662432702594 0
0.6154283661268758 0.03308678123445929 0
0.1540653630083515 1.077963365461174 0
1.204148080505027 3.956521195257102 0
1.176111904834356 10.80522432146443 0
0.2945741552251819 2.052483069482298 0
0.7380541592987853 2.245791095520167 0
0.6135850257058386 2.771467684032687 0
0.5908719150207886 1.834222957418833 0
0.07047170675029246 0.0369654174737617 0
0.2389326533758469 0.02362450260857951 0
0.3158000901044895 0.0173767368491653 0
0.3551503191866128 0.01520757881134394 0
0.3617086914396515 0.03404389835469512 0
0.2691960409363232 1.727883703045289 0
0.4564971727114981 0.007363644633246125 0
0.4616031504255922 0.01778540832958964 0
0.4716378628019151 0.03051560050294011 0
0.4668939035223105 0.05083008528944344 0
0.4922437479497588 0.04594208440695091 0
0.4719518398141203 0.01425514506912418 0
0.5272398463531871 0.03377854349069942 0
0.4832232265401313 0.01762572741387469 0
0.4265709895809477 0.009348403248200299 0
1.027276545772243 8.284684284961152 0
1.889850012434398 6.347488462522779 0
0.2824955610395641 0.8075676643575136 0
0.8222279593217692 6.206385068144034 0
0.6276180039282473 0.08749791269090235 0
0.4123724998319278 3.669613351917537 0
1.051055893783325 4.767843925542151 0
0.09215170405005635 0.3754127303947987 0
0.5511536063960836 0.01841404626633558 0
0.201956528396769 0.5328211984282927 0
0.0913668456972232 0.07590124310986379 0
2.457011337329609 0.4753343443296592 0
0.4211332760264952 0.06106116666310157 0
0.395923302341207 0.05115060465826726 0
0.3672478874479621 0.05921946150913637 0
2.024207418110374 8.777795911077728 0
2.674268578189771 1.082611359878495 0
0.7608265783401698 1.288775325630261 0
0.5105424657714606 1.481579967433661 0
0.4888299296312604 0.4319264667493101 0
0.3287243791630283 0.03613263947069978 0
0.1530216651425698 0.09785631200757905 0
3.593130099952866 1.595467684702093 0
0.1545787558013392 0.1510117182181796 0
0.2995328802507733 0.9776038200206854 0
0.4890248787879621 0.007458753269026452 0
0.5192007988190861 0.009773524712439752 0
0.4722483283442918 0.005612633412340529 0
0.6926528595181001 0.1124961475273265 0
1.073620981625273 0.3239295785189631 0
1.043199143085413 1.127796105524689 0
0.2139689255304429 0.02178517577776695 0
0.06015770606720539 0.2833212985692075 0
0.2247845085557403 0.1336645894213966 0
0.4169058536878523 0.2480725721784021 0
0.8666101288574495 3.24840000319114 0
2.156482127287643 10.02413959871425 0
0.3885205037722592 0.01039959967931825 0
0.369830712052293 0.0908606771471927 0
0.3476570373523753 0.04551246254168184 0
0.238594219055015 0.3123211939341868 0
2.360971357174082 11.16840684997913 0
1.40814949036134 1.323934418587887 0
0.5824934932822923 0.05900566553951858 0
0.3999196607940663 0.518192504020762 0
0.4456069788849213 4.835327074969674 0
1.414105545856119 5.391798518547729 0
1.710465685100435 1.019013750440211 0
0.2564651668149738 2.767443458463668 0
0.4752301538105996 0.08059589133862133 0
1.186739389143272 13.76066340848105 0
0.2720900462219582 0.04714524367078265 0
0.5407856519850265 0.571031657521484 0
0.1481579414462235 0.02390158589045654 0
0.5498032242756441 0.3294544424020849 0
2.176703235568738 1.254562020878796 0
0.4323522527557349 0.01942223305527424 0
1.290492890107409 0.3689689311916649 0
0.7659545365723373 0.1647565617039319 0
0.07770767995467587 0.1065750236974985 0
0.2594975459264073 0.1511575130150744 0
0.03296607881778035 0.03386405752800314 0
0.3056671341138424 1.162656002716498 0
0.4455620617825535 0.05851936380619893 0
0.4516724791294995 0.01523437656985394 0
0.6498735450276936 0.3574523482309626 0
0.4812485236594415 0.2692638336515962 0
3.845568220741286 13.78695549690716 0
0.7837447379168019 1.580627300471555 0
0.9709882460024255 1.859409428770931 0
0.3446735060420925 1.31144686206426 0
0.3076795354695983 0.5683181108856656 0
0.3808838064433524 0.03633985977667997 0
0.1712763489328397 0.3409410150272993 0
0.345863429250497 0.02939804287648773 0
0.194346577510339 0.1573951198288706 0
0.513868393396032 0.06414872008677097 0
0.3994381404688161 0.03546054489794948 0
1.136656623528186 2.702144446324203 0
0.1247243851054596 0.07687275701065843 0
0.7375799600196853 0.569497599546045 0
3.224355776619341 5.619948476609705 0
0.7548036444095296 0.4326150639770665 0
1.415090451335563 1.797734913328653 0
0.5597402118549619 0.04123110505374683 0
0.2472445406858523 0.04540798572149018 0
0.4775350331889032 0.1120266272287891 0
0.4091292504046864 0.097585464645352 0
1.647784422621955 4.584677211900252 0
$EndNodes
$Elements
6 636 1 636
1 1 1 26
1 4 6 
2 6 7 
3 7 8 
4 8 9 
5 9 10 
6 10 11 
7 11 12 
8 12 13 
9 13 14 
10 14 15 
11 15 16 
12 16 17 
13 17 18 
14 18 19 
15 19 20 
16 20 21 
17 21 22 
18 22 23 
19 23 24 
20 24 25 
21 25 26 
22 26 27 
23 27 28 
24 28 29 
25 29 30 
26 30 5 
1 2 1 17
27 5 31 
28 31 32 
29 32 33 
30 33 34 
31 34 35 
32 35 36 
33 36 37 
34 37 38 
35 38 39 
36 39 40 
37 40 41 
38 41 42 
39 42 43 
40 43 44 
41 44 45 
42 45 46 
43 46 3 
1 3 1 8
44 3 47 
45 47 48 
46 48 49 
47 49 50 
48 50 51 
49 51 52 
50 52 53 
51 53 2 
1 4 1 3
52 2 54 
53 54 55 
54 55 1 
1 5 1 29
55 4 56 
56 56 57 
57 57 58 
58 58 59 
59 59 60 
60 60 61 
61 61 62 
62 62 63 
63 63 64 
64 64 65 
65 65 66 
66 66 67 
67 67 68 
68 68 69 
69 69 70 
70 70 71 
71 71 72 
72 72 73 
73 73 74 
74 74 75 
75 75 76 
76 76 77 
77 77 78 
78 78 79 
79 79 80 
80 80 81 
81 81 82 
82 82 83 
83 83 1 
2 1 2 553
84 172 269 245 
85 178 238 92 
86 111 119 118 
87 119 121 118 
88 129 132 131 
89 176 251 218 
90 205 287 202 
91 176 218 197 
92 153 159 151 
93 133 138 136 
94 176 282 170 
95 111 118 117 
96 153 269 159 
97 122 309 119 
98 96 256 108 
99 109 231 188 
100 203 268 105 
101 221 249 90 
102 210 236 102 
103 57 141 115 
104 159 172 170 
105 151 169 148 
106 184 313 190 
107 108 229 226 
108 132 311 131 
109 172 176 170 
110 98 182 181 
111 210 266 236 
112 101 266 214 
113 141 290 115 
114 238 304 168 
115 223 295 206 
116 112 207 192 
117 29 256 96 
118 192 272 112 
119 188 232 109 
120 178 304 238 
121 232 312 120 
122 170 282 173 
123 114 188 140 
124 138 233 136 
125 114 140 50 
126 246 267 140 
127 118 319 120 
128 152 153 151 
129 169 291 148 
130 129 260 132 
131 172 251 176 
132 119 309 121 
133 163 259 235 
134 179 180 156 
135 159 170 169 
136 58 141 57 
137 96 107 31 
138 190 289 184 
139 181 262 98 
140 215 249 221 
141 159 269 172 
142 238 263 60 
143 195 233 138 
144 119 314 122 
145 118 120 117 
146 111 117 48 
147 168 263 238 
148 3 186 47 
149 105 303 203 
150 228 257 108 
151 140 267 116 
152 160 318 154 
153 114 232 188 
154 42 189 126 
155 89 257 228 
156 47 111 48 
157 190 260 95 
158 131 311 133 
159 142 164 141 
160 45 242 113 
161 201 244 243 
162 202 287 200 
163 133 136 135 
164 266 309 214 
165 179 187 180 
166 114 312 232 
167 100 141 58 
168 133 283 138 
169 170 173 171 
170 47 253 111 
171 111 125 119 
172 226 229 224 
173 245 303 220 
174 146 147 144 
175 190 313 132 
176 92 240 178 
177 150 151 148 
178 159 169 151 
179 225 280 226 
180 98 185 182 
181 64 191 63 
182 138 302 195 
183 127 288 129 
184 280 307 226 
185 120 277 232 
186 51 140 116 
187 100 142 141 
188 154 318 153 
189 187 307 180 
190 215 221 212 
191 49 114 50 
192 93 282 197 
193 202 206 205 
194 126 288 127 
195 129 131 130 
196 228 315 239 
197 123 314 119 
198 57 115 56 
199 232 234 109 
200 59 100 58 
201 173 181 174 
202 67 196 66 
203 134 285 250 
204 231 246 188 
205 95 260 189 
206 48 117 49 
207 51 116 52 
208 116 192 52 
209 214 309 213 
210 152 154 153 
211 163 235 179 
212 234 277 103 
213 146 148 147 
214 206 295 205 
215 136 255 137 
216 250 285 177 
217 50 140 51 
218 132 260 190 
219 43 97 44 
220 195 240 194 
221 20 198 21 
222 194 240 92 
223 170 171 169 
224 163 179 156 
225 117 312 49 
226 23 204 24 
227 70 212 69 
228 160 317 280 
229 191 194 63 
230 45 113 46 
231 243 244 161 
232 39 193 139 
233 42 126 43 
234 226 228 108 
235 173 316 181 
236 62 92 61 
237 13 197 14 
238 214 279 101 
239 252 254 183 
240 220 270 245 
241 83 112 82 
242 144 254 142 
243 158 271 178 
244 92 238 61 
245 49 312 114 
246 1 281 83 
247 43 126 97 
248 150 152 151 
249 197 282 176 
250 52 192 53 
251 164 254 252 
252 102 237 210 
253 44 242 45 
254 189 288 126 
255 106 258 227 
256 173 174 171 
257 161 318 243 
258 136 137 135 
259 54 207 55 
260 40 95 41 
261 147 306 144 
262 108 257 107 
263 185 284 104 
264 133 135 131 
265 63 194 62 
266 200 230 198 
267 158 178 166 
268 62 194 92 
269 245 270 172 
270 65 88 64 
271 164 310 241 
272 39 139 40 
273 82 211 81 
274 143 144 142 
275 41 189 42 
276 46 186 3 
277 112 211 82 
278 88 191 64 
279 148 291 147 
280 213 309 122 
281 60 263 59 
282 271 304 178 
283 196 209 66 
284 242 247 113 
285 181 182 174 
286 81 110 80 
287 217 316 93 
288 108 256 229 
289 7 104 8 
290 134 296 285 
291 9 98 10 
292 12 93 13 
293 15 86 16 
294 17 105 18 
295 25 84 26 
296 19 85 20 
297 22 94 23 
298 115 292 56 
299 121 210 118 
300 206 224 223 
301 6 216 7 
302 61 238 60 
303 220 303 105 
304 255 293 137 
305 16 219 17 
306 111 253 125 
307 68 90 67 
308 198 230 21 
309 66 209 65 
310 21 230 22 
311 204 222 24 
312 24 222 25 
313 79 109 78 
314 37 87 38 
315 80 231 79 
316 104 310 185 
317 175 259 163 
318 216 292 115 
319 142 254 164 
320 11 217 12 
321 14 218 15 
322 145 146 144 
323 37 208 87 
324 38 193 39 
325 85 198 20 
326 100 143 142 
327 139 289 190 
328 144 306 254 
329 135 261 131 
330 94 204 23 
331 232 277 234 
332 126 127 97 
333 129 130 127 
334 177 265 157 
335 81 211 110 
336 191 195 194 
337 244 303 245 
338 217 262 181 
339 88 233 191 
340 69 221 68 
341 201 308 244 
342 78 234 77 
343 197 218 14 
344 77 103 76 
345 154 317 160 
346 93 316 282 
347 115 241 216 
348 93 197 13 
349 212 221 69 
350 90 196 67 
351 40 139 95 
352 55 281 1 
353 7 216 104 
354 164 290 141 
355 71 91 70 
356 65 209 88 
357 86 219 16 
358 224 227 223 
359 121 266 210 
360 17 219 105 
361 73 101 72 
362 4 292 6 
363 75 102 74 
364 22 230 94 
365 88 255 233 
366 25 222 84 
367 53 298 2 
368 110 231 80 
369 188 246 140 
370 36 208 37 
371 12 217 93 
372 247 253 113 
373 10 262 11 
374 74 236 73 
375 15 218 86 
376 35 99 36 
377 137 301 249 
378 116 272 192 
379 243 318 160 
380 119 125 123 
381 216 241 104 
382 156 317 154 
383 56 292 4 
384 213 215 212 
385 237 276 103 
386 98 262 10 
387 125 253 247 
388 207 298 192 
389 241 290 164 
390 192 298 53 
391 103 277 237 
392 104 284 8 
393 275 302 138 
394 2 298 54 
395 79 231 109 
396 98 284 185 
397 181 316 217 
398 180 317 156 
399 249 301 90 
400 149 150 148 
401 112 272 211 
402 248 261 135 
403 274 315 187 
404 143 145 144 
405 26 258 27 
406 155 156 154 
407 185 252 182 
408 269 318 161 
409 137 249 248 
410 178 240 166 
411 213 300 215 
412 109 234 78 
413 68 221 90 
414 18 268 19 
415 165 177 157 
416 122 300 213 
417 105 268 18 
418 110 246 231 
419 208 235 87 
420 139 190 95 
421 182 183 174 
422 209 255 88 
423 11 262 217 
424 112 281 207 
425 76 276 75 
426 59 263 100 
427 91 212 70 
428 128 247 242 
429 100 263 143 
430 180 307 280 
431 9 284 98 
432 19 268 85 
433 72 279 71 
434 77 234 103 
435 84 258 26 
436 34 239 35 
437 143 168 145 
438 162 163 156 
439 211 267 110 
440 252 310 164 
441 146 149 148 
442 199 200 198 
443 8 284 9 
444 102 276 237 
445 225 294 280 
446 218 251 86 
447 90 301 196 
448 233 255 136 
449 158 166 165 
450 241 310 104 
451 283 311 134 
452 244 245 161 
453 97 242 44 
454 103 276 76 
455 131 261 130 
456 182 252 183 
457 193 289 139 
458 143 263 168 
459 125 286 123 
460 33 89 34 
461 191 233 195 
462 123 278 273 
463 207 281 55 
464 145 271 146 
465 149 158 157 
466 152 155 154 
467 102 236 74 
468 219 220 105 
469 200 287 230 
470 275 283 250 
471 27 106 28 
472 73 236 101 
473 201 202 200 
474 186 253 47 
475 167 175 163 
476 101 279 72 
477 83 281 112 
478 277 319 237 
479 35 239 99 
480 85 199 198 
481 137 248 135 
482 165 250 177 
483 110 267 246 
484 177 297 265 
485 174 264 171 
486 75 276 102 
487 280 294 160 
488 158 165 157 
489 85 203 199 
490 71 279 91 
491 155 162 156 
492 54 298 207 
493 149 157 150 
494 202 294 206 
495 94 205 204 
496 138 283 275 
497 28 256 29 
498 187 315 228 
499 195 302 240 
500 179 274 187 
501 208 274 235 
502 85 268 203 
503 146 271 149 
504 211 272 267 
505 260 288 189 
506 121 309 266 
507 236 266 101 
508 227 258 84 
509 91 214 213 
510 183 264 174 
511 32 257 33 
512 225 226 224 
513 162 167 163 
514 149 271 158 
515 91 213 212 
516 133 311 283 
517 245 269 161 
518 127 128 97 
519 254 306 183 
520 150 265 152 
521 153 318 269 
522 171 291 169 
523 199 201 200 
524 120 312 117 
525 160 294 243 
526 222 223 84 
527 267 272 116 
528 124 261 248 
529 6 292 216 
530 167 184 175 
531 128 242 97 
532 251 305 86 
533 113 186 46 
534 172 270 251 
535 95 189 41 
536 227 229 106 
537 157 265 150 
538 201 243 202 
539 86 305 219 
540 91 279 214 
541 128 286 247 
542 264 291 171 
543 113 253 186 
544 27 258 106 
545 31 107 32 
546 223 227 84 
547 235 259 87 
548 152 265 155 
549 229 256 106 
550 123 286 278 
551 166 275 165 
552 210 319 118 
553 303 308 203 
554 87 193 38 
555 196 293 209 
556 99 274 208 
557 99 315 274 
558 230 287 94 
559 168 304 145 
560 183 306 264 
561 224 229 227 
562 220 305 270 
563 204 295 222 
564 115 290 241 
565 185 310 252 
566 206 225 224 
567 248 299 124 
568 250 283 134 
569 130 278 127 
570 206 294 225 
571 235 274 179 
572 219 305 220 
573 145 304 271 
574 165 275 250 
575 209 293 255 
576 120 319 277 
577 147 291 264 
578 99 208 36 
579 270 305 251 
580 215 299 249 
581 222 295 223 
582 240 302 166 
583 124 314 273 
584 166 302 275 
585 247 286 125 
586 162 285 167 
587 237 319 210 
588 87 259 193 
589 249 299 248 
590 261 273 130 
591 175 289 259 
592 243 294 202 
593 215 300 299 
594 127 278 128 
595 299 300 124 
596 273 314 123 
597 226 307 228 
598 264 306 147 
599 259 289 193 
600 33 257 89 
601 239 315 99 
602 96 108 107 
603 162 297 285 
604 155 297 162 
605 94 287 205 
606 89 239 34 
607 106 256 28 
608 167 296 184 
609 205 295 204 
610 203 308 199 
611 124 273 261 
612 300 314 124 
613 273 278 130 
614 311 313 134 
615 265 297 155 
616 285 296 167 
617 30 96 5 
618 134 313 296 
619 278 286 128 
620 296 313 184 
621 199 308 201 
622 244 308 303 
623 129 288 260 
624 196 301 293 
625 285 297 177 
626 293 301 137 
627 107 257 32 
628 282 316 173 
629 228 307 187 
630 280 317 180 
631 122 314 300 
632 132 313 311 
633 29 96 30 
634 5 96 31 
635 228 239 89 
636 184 289 175 
$EndElements
