$MeshFormat
4.1 0 8
$EndMeshFormat
$PhysicalNames
3
0 3 "fix"
1 2 "contorno"
2 1 "plano"
$EndPhysicalNames
$Entities
4 4 1 0
1 0 0 0 1 3 
2 1 0 0 0 
3 1 1 0 0 
4 0 1 0 0 
1 -9.999999994736442e-08 -1e-07 -1e-07 1.0000001 1e-07 1e-07 1 2 2 1 -2 
2 0.9999999000000001 -9.999999994736442e-08 -1e-07 1.0000001 1.0000001 1e-07 1 2 2 2 -3 
3 -9.999999994736442e-08 0.9999999000000001 -1e-07 1.0000001 1.0000001 1e-07 1 2 2 3 -4 
4 -1e-07 -9.999999994736442e-08 -1e-07 1e-07 1.0000001 1e-07 1 2 2 4 -1 
1 -9.999999994736442e-08 -9.999999994736442e-08 -1e-07 1.0000001 1.0000001 1e-07 1 1 4 1 2 3 4 
$EndEntities
$Nodes
9 545 1 545
0 1 0 1
1
0 0 0
0 2 0 1
2
1 0 0
0 3 0 1
3
1 1 0
0 4 0 1
4
0 1 0
1 1 0 15
5
6
7
8
9
10
11
12
13
14
15
16
17
18
19
0.125 0 0
0.25 0 0
0.3749999999999999 0 0
0.4999999999999999 0 0
0.625 0 0
0.75 0 0
0.875 0 0
0.06249999999999999 0 0
0.1875 0 0
0.3124999999999999 0 0
0.4374999999999999 0 0
0.5625 0 0
0.6875 0 0
0.8125 0 0
0.9375 0 0
1 2 0 15
20
21
22
23
24
25
26
27
28
29
30
31
32
33
34
1 0.125 0
1 0.25 0
1 0.3749999999999999 0
1 0.4999999999999999 0
1 0.625 0
1 0.75 0
1 0.875 0
1 0.06249999999999999 0
1 0.1875 0
1 0.3124999999999999 0
1 0.4374999999999999 0
1 0.5625 0
1 0.6875 0
1 0.8125 0
1 0.9375 0
1 3 0 15
35
36
37
38
39
40
41
42
43
44
45
46
47
48
49
0.875 1 0
0.75 1 0
0.625 1 0
0.5 1 0
0.375 1 0
0.25 1 0
0.125 1 0
0.9375 1 0
0.8125 1 0
0.6875 1 0
0.5625 1 0
0.4375 1 0
0.3125 1 0
0.1875 1 0
0.0625 1 0
1 4 0 15
50
51
52
53
54
55
56
57
58
59
60
61
62
63
64
0 0.875 0
0 0.75 0
0 0.625 0
0 0.5 0
0 0.375 0
0 0.25 0
0 0.125 0
0 0.9375 0
0 0.8125 0
0 0.6875 0
0 0.5625 0
0 0.4375 0
0 0.3125 0
0 0.1875 0
0 0.0625 0
2 1 0 481
65
66
67
68
69
70
71
72
73
74
75
76
77
78
79
80
81
82
83
84
85
86
87
88
89
90
91
92
93
94
95
96
97
98
99
100
101
102
103
104
105
106
107
108
109
110
111
112
113
114
115
116
117
118
119
120
121
122
123
124
125
126
127
128
129
130
131
132
133
134
135
136
137
138
139
140
141
142
143
144
145
146
147
148
149
150
151
152
153
154
155
156
157
158
159
160
161
162
163
164
165
166
167
168
169
170
171
172
173
174
175
176
177
178
179
180
181
182
183
184
185
186
187
188
189
190
191
192
193
194
195
196
197
198
199
200
201
202
203
204
205
206
207
208
209
210
211
212
213
214
215
216
217
218
219
220
221
222
223
224
225
226
227
228
229
230
231
232
233
234
235
236
237
238
239
240
241
242
243
244
245
246
247
248
249
250
251
252
253
254
255
256
257
258
259
260
261
262
263
264
265
266
267
268
269
270
271
272
273
274
275
276
277
278
279
280
281
282
283
284
285
286
287
288
289
290
291
292
293
294
295
296
297
298
299
300
301
302
303
304
305
306
307
308
309
310
311
312
313
314
315
316
317
318
319
320
321
322
323
324
325
326
327
328
329
330
331
332
333
334
335
336
337
338
339
340
341
342
343
344
345
346
347
348
349
350
351
352
353
354
355
356
357
358
359
360
361
362
363
364
365
366
367
368
369
370
371
372
373
374
375
376
377
378
379
380
381
382
383
384
385
386
387
388
389
390
391
392
393
394
395
396
397
398
399
400
401
402
403
404
405
406
407
408
409
410
411
412
413
414
415
416
417
418
419
420
421
422
423
424
425
426
427
428
429
430
431
432
433
434
435
436
437
438
439
440
441
442
443
444
445
446
447
448
449
450
451
452
453
454
455
456
457
458
459
460
461
462
463
464
465
466
467
468
469
470
471
472
473
474
475
476
477
478
479
480
481
482
483
484
485
486
487
488
489
490
491
492
493
494
495
496
497
498
499
500
501
502
503
504
505
506
507
508
509
510
511
512
513
514
515
516
517
518
519
520
521
522
523
524
525
526
527
528
529
530
531
532
533
534
535
536
537
538
539
540
541
542
543
544
545
0.4999289766681018 0.5000620960690693 0
0.7256759839548855 0.2743240139203704 0
0.2750787130622213 0.2756101059313685 0
0.274320233240021 0.7256797166553631 0
0.7243706492033346 0.7249246801090563 0
0.8450653713024194 0.1548198655707994 0
0.6290643124410196 0.1292396704314834 0
0.4992611772693157 0.2511894344064113 0
0.3593749958977301 0.1406250120556227 0
0.620199274582756 0.3789890698920422 0
0.3759453847567269 0.3762261955488864 0
0.1522670976884273 0.1521024733551751 0
0.1406250145302191 0.3593749975653981 0
0.2512431059855159 0.4995354529869507 0
0.1289956143204729 0.6283597202605323 0
0.3788678266802125 0.6203905476848282 0
0.1550598183617372 0.8431818239681017 0
0.8389285834072084 0.8388803933118556 0
0.8593749872417993 0.6406250038057031 0
0.7479492229155034 0.5005617661003853 0
0.8749999958197021 0.3750000004280687 0
0.6237728314702957 0.6239560579509665 0
0.3749999999816877 0.8749999941647657 0
0.5005227451837149 0.7480962571920179 0
0.6406250027918381 0.8593749861170876 0
0.9199218713573692 0.08007812834729494 0
0.8455386990959246 0.07354926018584873 0
0.7499999881903339 0.1250000283968096 0
0.7356226040334379 0.06703811929934117 0
0.7843245833330897 0.2156498918322933 0
0.6759163386931575 0.1992433211435922 0
0.6098841575442335 0.06428904579624339 0
0.6259867552619208 0.2565688684960972 0
0.5625000330663952 0.1875000499529644 0
0.4349381791611939 0.1916171961666823 0
0.5000000410646565 0.1250000474624179 0
0.375458516246059 0.2559311315031597 0
0.3093402753401224 0.199992698958867 0
0.4435547969459717 0.0683822952575876 0
0.6617201095912699 0.3376209173545891 0
0.5596776439914258 0.3162626517631599 0
0.4991139567798432 0.3762938284809132 0
0.4372825186089375 0.3148093317724305 0
0.5611435932642616 0.4387374148459058 0
0.4375487450642319 0.4380973067303437 0
0.3175547599572067 0.3186552000703206 0
0.3125000042415828 0.06250000939326184 0
0.2516748295438072 0.1274443660296785 0
0.2005424296342556 0.07556892699054607 0
0.2150655704337975 0.2151352753597348 0
0.09435407208928281 0.09435280684166691 0
0.06667453645405474 0.1916745358258147 0
0.1406149578251361 0.2606965413476302 0
0.06373377867268243 0.3130642364431404 0
0.1997280407640218 0.3101179936621531 0
0.06250003946003641 0.437500032869582 0
0.2566030636674949 0.3760327508161252 0
0.1921804864461736 0.4348697762002057 0
0.1875000476221209 0.562500034721215 0
0.125000069871994 0.5000000589714289 0
0.2566323905916236 0.6260718194814738 0
0.1968140559585692 0.6782843310624636 0
0.06340374893930217 0.6077026973229529 0
0.3146740333153063 0.4379583557199136 0
0.376009702061386 0.4996507448831102 0
0.3160767807227696 0.5601900554616864 0
0.4386173956788456 0.5613680533140073 0
0.3377445608781189 0.6617727503072197 0
0.06646305270088665 0.7360845311126092 0
0.1395196183855308 0.7475397237480127 0
0.0745303235542617 0.8455794333136873 0
0.221510631480261 0.7784956057728235 0
0.08288955453399049 0.9181412614232688 0
0.9161033722320882 0.916103372220439 0
0.9226857511210265 0.7980370212277128 0
0.864943482015027 0.7427324223935712 0
0.9342908747624513 0.6857547574539828 0
0.7838710974272396 0.7839009376661313 0
0.7986275027545247 0.6906253346910792 0
0.9374999616212834 0.5624999706427155 0
0.7431414280080537 0.6246062861862085 0
0.8075539703805202 0.5653174992998354 0
0.8124999529401433 0.4374999639865061 0
0.8749999314378281 0.4999999424906101 0
0.7382905556649664 0.3727262102890991 0
0.8108644109831245 0.3141355858276232 0
0.9372182179123043 0.4265889212801227 0
0.6812146893485206 0.6824748126667906 0
0.684870338186405 0.562409136048536 0
0.6233853351271184 0.5006906143442181 0
0.6822844591955554 0.4399920135179684 0
0.5619540078206829 0.5622585966178996 0
0.9323628196889809 0.2713724025833297 0
0.8595458204071931 0.2548998175754381 0
0.9254370864621211 0.1543444564481221 0
0.1557991459043492 0.9250484727976632 0
0.2575142112532375 0.8576246150961714 0
0.2691259083332821 0.9303768759449476 0
0.3166724636839588 0.8083214393043725 0
0.421139849699786 0.9367734684425557 0
0.3728092857866476 0.738290485761012 0
0.4374999645964148 0.8124999510196294 0
0.5651308490362132 0.8085546386407514 0
0.4999999615804672 0.8749999548046834 0
0.6238930840101715 0.7441217255889254 0
0.6899295123379742 0.8000039156343284 0
0.5620504645488147 0.9369684696885154 0
0.4399467795615408 0.682559221559494 0
0.5006790764567289 0.6233593072746291 0
0.5622387182944127 0.6849347526095485 0
0.6874999961900468 0.9374999902265795 0
0.7418818199502455 0.862975421414177 0
0.8024952110946038 0.9273128835570874 0
0.9599609356786847 0.04003906417364744 0
0.882730285226647 0.07681369426657181 0
0.8602693495479623 0.03677463009292437 0
0.9101151426133234 0.0384068471332859 0
0.7975326797463766 0.1399099469838045 0
0.7428112961118859 0.0960190738480754 0
0.7905806515646813 0.07029368974259498 0
0.845302035199172 0.1141845628783241 0
0.794056665655529 0.1051018183631998 0
0.742811302016719 0.03351905964967061 0
0.8015403257823406 0.03514684487129749 0
0.7301204610131236 0.2074466064879428 0
0.6524903255670886 0.1642414957875378 0
0.6895321503156767 0.1271198494141465 0
0.7671622857617117 0.1703249601145514 0
0.7098263056644002 0.1672832279510447 0
0.6727533807888357 0.06566358254779225 0
0.6174420787721168 0.0321445228981217 0
0.6801266903944179 0.03283179127389613 0
0.6194742349926265 0.09676435811386341 0
0.6811427655522563 0.09639171598096941 0
0.6758313696084032 0.2654464412082338 0
0.5942433941641581 0.2220344592245308 0
0.6192081858797763 0.1933716855482783 0
0.7007961613240214 0.2367836675319813 0
0.6475197777440898 0.2294090633782561 0
0.4670996782152548 0.2214033152865468 0
0.4674691101129251 0.1583086218145501 0
0.5312500370655258 0.1562500487076912 0
0.5308806051678554 0.2193447421796879 0
0.4991748576403903 0.1888266819971191 0
0.5645321767528381 0.1271198589469507 0
0.5918701813163072 0.1602457722476145 0
0.3423993957930906 0.2279619152310133 0
0.3343576356189262 0.1703088555072448 0
0.397156587529462 0.1661211041111526 0
0.4051983477036264 0.223774163834921 0
0.3697779916612763 0.1970415096710829 0
0.4717774190053141 0.09669117136000277 0
0.5267194772451026 0.06633567052691547 0
0.5456258269989703 0.09672776473693301 0
0.4014648964218509 0.1045036536566052 0
0.434467003267388 0.1314061377355776 0
0.4717773984729858 0.03419114762879383 0
0.5446097386225512 0.03316783526345779 0
0.6438534324265954 0.2970948929253431 0
0.640959692087013 0.3583049936233156 0
0.5899384592870909 0.3476258608276011 0
0.5928321996266733 0.2864157601296285 0
0.6168959458568432 0.3223603768764721 0
0.5294694106303708 0.2837260430847856 0
0.5618564023972644 0.2528802511546582 0
0.4681982376943903 0.3455515801266719 0
0.4682718479391266 0.2829993830894209 0
0.5293958003856345 0.3462782401220366 0
0.4988338241623805 0.3146388116057287 0
0.5906714339235087 0.408863242368974 0
0.5301287750220524 0.4075156216634095 0
0.5600336171545717 0.3775707412455053 0
0.5305362849661817 0.4693997554574876 0
0.4687388608661668 0.4690797013997065 0
0.4683313509220375 0.4071955676056285 0
0.4994338179441096 0.438297661531558 0
0.4067470649104794 0.4071617511396151 0
0.4066139516828322 0.3455177636606585 0
0.4374726513024348 0.3763566656331434 0
0.4063705174274982 0.2853702316377951 0
0.4367350978213765 0.253386773462171 0
0.3467500723569668 0.3474406978096035 0
0.3465066381016328 0.2872931657867401 0
0.3765602948922325 0.3164054647236993 0
0.296316736509714 0.2971326530008445 0
0.2922094942011718 0.2378014024451177 0
0.3193580661514023 0.2625472841159289 0
0.3780274005937772 0.06544115232542469 0
0.3437500021207913 0.03125000469663092 0
0.4077637002968886 0.03272057616271229 0
0.3055249127207686 0.1340346890426506 0
0.282087416892695 0.09497218771147015 0
0.3417761566572729 0.09973792068403764 0
0.2019709636161172 0.1397734196924268 0
0.1764047636613414 0.1138357001728606 0
0.2565212169379192 0.06903446819190395 0
0.2292460902770182 0.1044039439421654 0
0.2252712148171278 0.03778446349527304 0
0.2845106084689595 0.03451723409595198 0
0.2622029228869599 0.2075639871593009 0
0.2333701999888023 0.1712898206947066 0
0.2838639178038643 0.1707993381009758 0
0.1474482508617692 0.08496086691610649 0
0.1096770360446414 0.04717640342083346 0
0.1674741254308846 0.04248043345805325 0
0.04717703604464141 0.1096764034208335 0
0.0548385180223207 0.0548382017104167 0
0.1094708170712411 0.1718885045904949 0
0.08051430427166878 0.1430136713337408 0
0.1284595339665051 0.1284246857533007 0
0.03333726822702737 0.2208372679129074 0
0.04025715213583436 0.1652568356668704 0
0.1464410277567817 0.2063995073514027 0
0.1021743682489092 0.2868803888953853 0
0.06520415756336861 0.2523693861344775 0
0.1058225926600752 0.22938444674294 0
0.1778402641294667 0.2379159083536825 0
0.189905613872792 0.1888446640230546 0
0.2374033769131216 0.2928640497967608 0
0.2073968055989097 0.2626266345109439 0
0.2498031499000408 0.2502140184780308 0
0.1701765276471205 0.3347464956137756 0
0.1406199861776776 0.3100357694565141 0
0.1740083958882936 0.286331201983729 0
0.03186688933634119 0.3440321182215702 0
0.03260207878168431 0.2824346930672388 0
0.1015625269951278 0.39843751521749 0
0.06311690906635942 0.3752821346563612 0
0.1018684476220185 0.3426589520564376 0
0.03125001973001817 0.468750016434791 0
0.03155845453317963 0.4063910673281806 0
0.2243917750568343 0.4054512635081655 0
0.1664027504881964 0.3971223868828019 0
0.2281655522157583 0.3430753722391391 0
0.1972841513519774 0.3700988795609705 0
0.2193715768038184 0.5310177438540828 0
0.1562500587470574 0.5312500468463219 0
0.1585902781590838 0.4674349175858173 0
0.2217117962158448 0.4672026145935782 0
0.1889809274814511 0.4992263307199501 0
0.2220662191068722 0.5942859271013444 0
0.2654763119158223 0.6758757680684184 0
0.2355671445992951 0.7019820238589134 0
0.192157051790345 0.6203921828918393 0
0.2288166818530836 0.648133975480129 0
0.162904835139521 0.653322025661498 0
0.1269978420962334 0.5641798896159806 0
0.1595774469432892 0.59228603625391 0
0.09375005466601521 0.4687500459205055 0
0.1300764025771058 0.4329362164016537 0
0.09619968162988751 0.6180312087917426 0
0.06295189419966929 0.5226013650962674 0
0.09497486814795136 0.543390627356124 0
0.2870789118123508 0.3473439754432229 0
0.2622411443627362 0.3201040126199918 0
0.3453097090360166 0.4070922756344 0
0.2856385484914006 0.4069955532680194 0
0.3161943104241837 0.3772181255388115 0
0.2829585696504111 0.4687469043534321 0
0.2536751723536227 0.4370990839307988 0
0.3460432413920778 0.5299204001723983 0
0.2836599433541427 0.5298627542243186 0
0.3453418676883461 0.4688045503015119 0
0.3145009055212444 0.4993336522629153 0
0.4067792235628089 0.4688740258067269 0
0.3760444662994127 0.4379831507205635 0
0.4692731861734737 0.5307150746915383 0
0.4073135488701158 0.5305093990985588 0
0.4380262048681413 0.4997945502491326 0
0.408742611179529 0.5908793004994177 0
0.347472303701491 0.5902903015732572 0
0.3773929262858034 0.560399850335908 0
0.2863545856571966 0.5931309374715801 0
0.2528630812305075 0.5620743406628315 0
0.3583061937791657 0.6410816489960239 0
0.2971884757348712 0.6439222848943468 0
0.3223303897181812 0.6171062932338021 0
0.03170187446965111 0.6163513486614765 0
0.03147594709983464 0.5425506825481338 0
0.06493340082009441 0.6718936142177809 0
0.03323152635044335 0.7430422655563046 0
0.03246670041004723 0.6796968071088905 0
0.1342576163530018 0.6879497220042725 0
0.1029913355432087 0.7418121274303109 0
0.09959550858654809 0.6799216681110267 0
0.147289718373634 0.7953607738580573 0
0.1147950709579995 0.8443806286408946 0
0.07049668812757415 0.7908319822131482 0
0.1088932032506041 0.7930963780356027 0
0.2091623437194151 0.7283899684176436 0
0.1805151249328959 0.7630176647604181 0
0.1717099800362084 0.708169845210958 0
0.03726516177713085 0.8602897166568437 0
0.03524834406378707 0.8016659911065742 0
0.0787099390441261 0.8818603473684781 0
0.04144477726699525 0.9590706307116343 0
0.03935496952206302 0.909680173684239 0
0.9193945616765573 0.8570701967240759 0
0.9613428755605132 0.7740185106138564 0
0.9580516861160441 0.8955516861102195 0
0.9596972808382787 0.834785098362038 0
0.8519360327111177 0.7908064078527134 0
0.8996171783887392 0.714243589923777 0
0.9284883129417389 0.7418958893408478 0
0.8808071672641176 0.8184587072697842 0
0.8902121728264283 0.7663511485967807 0
0.7912493000908821 0.7372631361786053 0
0.829001244998162 0.6656251692483912 0
0.8621592346284132 0.6916787130996371 0
0.8244072897211333 0.7633166800298513 0
0.8267042673596476 0.7144709246391212 0
0.9671454373812256 0.6553773787269914 0
0.9642441564708695 0.7146979446704239 0
0.8984374744315413 0.6015624872242094 0
0.9358954181918673 0.6241273640483491 0
0.8990273264101402 0.6579030385739932 0
0.9687499808106417 0.5312499853213577 0
0.9679477090959336 0.5933136820241746 0
0.7753476991942869 0.5949618927430219 0
0.8334644788111597 0.6029712515527692 0
0.7708844653812892 0.6576158104386438 0
0.8021744720962245 0.6302935309957065 0
0.7802245879278233 0.4690308650434457 0
0.8437499421889857 0.4687499532385581 0
0.8412769509091741 0.5326587208952227 0
0.7777515966480117 0.5329396327001104 0
0.8107507694184987 0.5008447929693343 0
0.7753952543025548 0.4051130871378026 0
0.731983269809926 0.3235251121047348 0
0.7682701974690049 0.2942297998739968 0
0.8116821819616339 0.3758177749070647 0
0.7718327258857799 0.3496714435058997 0
0.8429322034014133 0.344567793127846 0
0.8749999636287651 0.4374999714593394 0
0.8433410727951995 0.406658873183202 0
0.9062499465295557 0.5312499565666627 0
0.8698572126703576 0.567110604059716 0
0.9061091068660032 0.4007944608540956 0
0.9373590897667938 0.4945444459614191 0
0.9061795266977795 0.4660222087103792 0
0.7614990759789296 0.7077750074000677 0
0.7027926692759275 0.7036997463879234 0
0.7121780586782871 0.6535405494264995 0
0.7368385673286084 0.6806577784132837 0
0.6524937604094081 0.6532154353088785 0
0.6543215848283503 0.5931825969997513 0
0.7140058830972293 0.5935077111173722 0
0.6832498217533187 0.6233615732131254 0
0.7164097805509542 0.5314854510744607 0
0.7458787398726205 0.5632236719087413 0
0.6528348971613368 0.4703413139310932 0
0.7151168410555293 0.4702768898091768 0
0.6541278366567617 0.5315498751963771 0
0.6846223388561455 0.5009133825027769 0
0.5928634196454894 0.5931073272844331 0
0.5926696714739006 0.5314746054810588 0
0.6234956281511255 0.5623286012404051 0
0.5309414922443924 0.5311603463434844 0
0.5922644641956899 0.469714014595062 0
0.5616029782200411 0.5004371804692732 0
0.6512418668891558 0.4094905417050053 0
0.6217531655424229 0.4396022781500336 0
0.7102875074302609 0.4063591119035337 0
0.7452560476790422 0.4376949884734897 0
0.7000053326281181 0.3551735638218441 0
0.675623599758637 0.3823320527634247 0
0.6879183511182607 0.3103100025150389 0
0.9686091089561522 0.4007944606400613 0
0.9686795448833969 0.4660222229807095 0
0.9347905188006427 0.3489806619317262 0
0.9661814098444905 0.2606862012916649 0
0.9673952594003213 0.3307403309658631 0
0.8672729081134476 0.3149499090017534 0
0.8959543200480871 0.2631361100793839 0
0.9010317134570451 0.3319652854667398 0
0.8523055958548063 0.2048598415731188 0
0.8852512288822703 0.1545821610094608 0
0.928899953075551 0.2128584295157259 0
0.8906027744651785 0.2088591355444224 0
0.797594497158107 0.2648927388299583 0
0.8219352018701414 0.2352748547038657 0
0.8324337026357773 0.2899213239158558 0
0.7491953292410642 0.2508382031809698 0
0.8097339408082591 0.1875924008438351 0
0.9627185432310605 0.139672228224061 0
0.9644499765377755 0.2001792147578629 0
0.9226794789097451 0.1172112923977085 0
0.8839907570544586 0.1156979276380163 0
0.9613397394548726 0.08985564619885422 0
0.1193443502191699 0.921594867110466 0
0.1403995729521746 0.9625242363988316 0
0.09092217510958495 0.9607974335552329 0
0.1554294821330432 0.8841151483828824 0
0.1170697105885846 0.8829877478756802 0
0.2062870148074873 0.8504032195321365 0
0.2633200597932598 0.8940007455205594 0
0.2124625271188157 0.9277126743713053 0
0.2093747709631515 0.889057946951721 0
0.259562954166641 0.9651884379724738 0
0.1999812635594079 0.9638563371856528 0
0.2395124213667492 0.8180601104344974 0
0.1934010698701916 0.8067104421462774 0
0.2954963484619899 0.7670005779798679 0
0.2690915475821098 0.7934085225385981 0
0.2523293460907025 0.7476952731987556 0
0.3458362318328232 0.8416607167345691 0
0.3162571056174626 0.8663123046304685 0
0.2926743265997863 0.8298604135845332 0
0.3451328790165341 0.9335751721937516 0
0.398069924849893 0.9683867342212779 0
0.3288164395082671 0.9667875860968758 0
0.3980699248407368 0.9058867313036607 0
0.3306949923169983 0.8999437384121101 0
0.3235647595133343 0.7319851012081875 0
0.4051546251915312 0.7753952183903206 0
0.3770862141401868 0.8104106951620009 0
0.3503254868267606 0.7711978981850942 0
0.5328267971099641 0.7783254479163847 0
0.5325654053083402 0.8417772967227174 0
0.468749963088441 0.8437499529121564 0
0.4690113548900648 0.7802981041058236 0
0.5007883800992025 0.8110377004142705 0
0.4374999807810774 0.8749999744847246 0
0.4072930974606321 0.8427053348233627 0
0.6569112981740728 0.7720628206116269 0
0.6652772575649062 0.829689450875708 0
0.6028779259140257 0.8339648123789195 0
0.5945119665231924 0.7763381821148384 0
0.6298946120440493 0.8030138164952731 0
0.5310252130646409 0.9059842122465994 0
0.4915951571243003 0.9368709690655356 0
0.4645475689526889 0.90593547177513 0
0.6013377336703264 0.8981717279028015 0
0.5669515694893332 0.8699745123127595 0
0.5310252322744073 0.9684842348442577 0
0.4645475785621502 0.9684354845327678 0
0.3552769233323833 0.7000316180341158 0
0.3103766176241028 0.6879536930512671 0
0.4094073031208766 0.6514748846221611 0
0.4063780326740942 0.710424853660253 0
0.3823421132266299 0.6757532513281385 0
0.4702347623726278 0.715327739375756 0
0.4376946937820795 0.7453614788830383 0
0.5314588973755708 0.6541470299420888 0
0.5313807317390639 0.7165155049007832 0
0.4703129280091349 0.6529592644170616 0
0.5008468298740993 0.6847373846589224 0
0.4696482360677873 0.5923636802943182 0
0.439527769594332 0.6219192824582397 0
0.5313165421387059 0.5928089519462644 0
0.5002948641560898 0.5617620133189013 0
0.5930057748823543 0.6544454052802575 0
0.5621611585105302 0.623627178613261 0
0.5930659011522921 0.7145282390992369 0
0.5629463491311281 0.7464268435078107 0
0.652553886679346 0.713298269127858 0
0.6227798307808501 0.6838718372040578 0
0.7071500807706543 0.7624642978716923 0
0.6798519837250002 0.7378812834997751 0
0.6247752303694307 0.9372342299575476 0
0.6562499980950234 0.9687499951132897 0
0.5936376151847154 0.9686171149787738 0
0.6912534113710418 0.8611752037656323 0
0.7146909080701461 0.9002377058203783 0
0.6580143208702363 0.8992047168615899 0
0.7904052016787271 0.8509279073630163 0
0.8207118972509061 0.8830966384344714 0
0.7449976036423253 0.9324064368918334 0
0.7677014026605261 0.8916671721274249 0
0.7762476055473019 0.9636564417785437 0
0.7162488018211626 0.9662032184459167 0
0.7369003048826069 0.7919524266502298 0
0.7628764586887427 0.8234381795401542 0
0.7140768581268244 0.826563815207931 0
0.7491996904307683 0.7498637170251488 0
0.8074062456999302 0.8071222936964337 0
0.859299291663346 0.9217081278887632 0
0.8955516861160441 0.9580516861102195 0
0.835899645831673 0.9608540639443817 0
0.8700532294637318 0.8700834175792738 0
0.9477758430580221 0.9477758430551098 0
$EndNodes
$Elements
6 161 1 161
0 1 15 1
1 1 
1 1 8 8
2 1 5 12 
3 5 6 13 
4 6 7 14 
5 7 8 15 
6 8 9 16 
7 9 10 17 
8 10 11 18 
9 11 2 19 
1 2 8 8
10 2 20 27 
11 20 21 28 
12 21 22 29 
13 22 23 30 
14 23 24 31 
15 24 25 32 
16 25 26 33 
17 26 3 34 
1 3 8 8
18 3 35 42 
19 35 36 43 
20 36 37 44 
21 37 38 45 
22 38 39 46 
23 39 40 47 
24 40 41 48 
25 41 4 49 
1 4 8 8
26 4 50 57 
27 50 51 58 
28 51 52 59 
29 52 53 60 
30 53 54 61 
31 54 55 62 
32 55 56 63 
33 56 1 64 
2 1 10 128
34 2 90 91 11 178 179 180 19 181 
35 70 92 93 91 182 183 184 185 186 
36 11 91 93 10 180 184 187 18 188 
37 94 95 71 92 189 190 191 192 193 
38 10 93 96 9 187 194 195 17 196 
39 92 71 96 93 191 197 194 183 198 
40 66 97 98 95 199 200 201 202 203 
41 72 99 100 98 204 205 206 207 208 
42 95 98 100 71 201 206 209 190 210 
43 101 102 73 99 211 212 213 214 215 
44 71 100 103 96 209 216 217 197 218 
45 99 73 103 100 213 219 216 205 220 
46 9 96 103 8 195 217 221 16 222 
47 97 104 74 105 223 224 225 226 227 
48 98 97 105 72 200 226 228 207 229 
49 106 107 72 105 230 231 228 232 233 
50 105 74 108 106 225 234 235 232 236 
51 106 108 65 109 235 237 238 239 240 
52 107 106 109 75 230 239 241 242 243 
53 99 72 107 101 204 231 244 214 245 
54 101 107 75 110 244 242 246 247 248 
55 102 101 110 67 211 247 249 250 251 
56 8 103 111 7 221 252 253 15 254 
57 103 73 112 111 219 255 256 252 257 
58 111 112 76 113 256 258 259 260 261 
59 7 111 113 6 253 260 262 14 263 
60 73 102 114 112 212 264 265 255 266 
61 6 113 115 5 262 267 268 13 269 
62 5 115 56 1 268 270 64 12 271 
63 113 76 116 115 259 272 273 267 274 
64 115 116 55 56 273 275 63 270 276 
65 76 117 118 116 277 278 279 272 280 
66 112 114 117 76 265 281 277 258 282 
67 102 67 119 114 250 283 284 264 285 
68 114 119 77 117 284 286 287 281 288 
69 116 118 54 55 279 289 62 275 290 
70 117 77 120 118 287 291 292 278 293 
71 118 120 53 54 292 294 61 289 295 
72 121 122 77 119 296 297 286 298 299 
73 78 123 124 122 300 301 302 303 304 
74 123 125 68 126 305 306 307 308 309 
75 124 123 126 79 301 308 310 311 312 
76 122 124 120 77 302 313 291 297 314 
77 120 124 79 127 313 311 315 316 317 
78 119 67 110 121 283 249 318 298 319 
79 121 110 75 128 318 246 320 321 322 
80 122 121 128 78 296 321 323 303 324 
81 129 130 78 128 325 326 323 327 328 
82 128 75 109 129 320 241 329 327 330 
83 129 109 65 131 329 238 331 332 333 
84 130 129 131 80 325 332 334 335 336 
85 123 78 130 125 300 326 337 305 338 
86 125 130 80 132 337 335 339 340 341 
87 120 127 52 53 316 342 60 294 343 
88 127 133 51 52 344 345 59 342 346 
89 127 79 134 133 315 347 348 344 349 
90 133 134 81 135 348 350 351 352 353 
91 79 126 136 134 310 354 355 347 356 
92 133 135 50 51 352 357 58 345 358 
93 135 137 4 50 359 360 57 357 361 
94 138 139 25 26 362 363 33 364 365 
95 82 140 141 139 366 367 368 369 370 
96 142 143 83 140 371 372 373 374 375 
97 139 141 24 25 368 376 32 363 377 
98 140 83 144 141 373 378 379 367 380 
99 141 144 23 24 379 381 31 376 382 
100 145 146 83 143 383 384 372 385 386 
101 84 147 148 146 387 388 389 390 391 
102 147 149 66 150 392 393 394 395 396 
103 148 147 150 85 388 395 397 398 399 
104 146 148 144 83 389 400 378 384 401 
105 144 148 85 151 400 398 402 403 404 
106 143 69 152 145 405 406 407 385 408 
107 145 152 86 153 407 409 410 411 412 
108 146 145 153 84 383 411 413 390 414 
109 154 155 84 153 415 416 413 417 418 
110 153 86 156 154 410 419 420 417 421 
111 154 156 65 108 420 422 237 423 424 
112 155 154 108 74 415 423 234 425 426 
113 147 84 155 149 387 416 427 392 428 
114 149 155 74 104 427 425 224 429 430 
115 97 66 149 104 199 393 429 223 431 
116 144 151 22 23 403 432 30 381 433 
117 151 157 21 22 434 435 29 432 436 
118 151 85 158 157 402 437 438 434 439 
119 157 158 70 159 438 440 441 442 443 
120 85 150 94 158 397 444 445 437 446 
121 95 94 150 66 189 444 394 202 447 
122 92 70 158 94 182 440 445 192 448 
123 157 159 20 21 442 449 28 435 450 
124 91 90 159 70 179 451 441 185 452 
125 159 90 2 20 451 178 27 449 453 
126 4 137 160 41 360 454 455 49 456 
127 135 81 160 137 351 457 454 359 458 
128 81 161 162 160 459 460 461 457 462 
129 41 160 162 40 455 461 463 48 464 
130 134 136 161 81 355 465 459 350 466 
131 126 68 163 136 307 467 468 354 469 
132 136 163 87 161 468 470 471 465 472 
133 40 162 164 39 463 473 474 47 475 
134 161 87 164 162 471 476 473 460 477 
135 68 165 166 163 478 479 480 467 481 
136 88 167 168 166 482 483 484 485 486 
137 163 166 168 87 480 484 487 470 488 
138 169 170 89 167 489 490 491 492 493 
139 87 168 171 164 487 494 495 476 496 
140 167 89 171 168 491 497 494 483 498 
141 39 164 171 38 474 495 499 46 500 
142 125 132 165 68 340 501 478 306 502 
143 165 132 80 172 501 339 503 504 505 
144 166 165 172 88 479 504 506 485 507 
145 173 174 88 172 508 509 506 510 511 
146 172 80 131 173 503 334 512 510 513 
147 173 131 65 156 512 331 422 514 515 
148 174 173 156 86 508 514 419 516 517 
149 167 88 174 169 482 509 518 492 519 
150 169 174 86 152 518 516 409 520 521 
151 170 169 152 69 489 520 406 522 523 
152 38 171 175 37 499 524 525 45 526 
153 171 89 176 175 497 527 528 524 529 
154 175 176 82 177 528 530 531 532 533 
155 37 175 177 36 525 532 534 44 535 
156 89 170 142 176 490 536 537 527 538 
157 143 142 170 69 371 536 522 405 539 
158 140 82 176 142 366 530 537 374 540 
159 36 177 138 35 534 541 542 43 543 
160 139 138 177 82 362 541 531 369 544 
161 26 3 35 138 34 42 542 364 545 
$EndElements
