$MeshFormat
4.1 0 8
$EndMeshFormat
$PhysicalNames
3
0 5 "Fixed"
0 6 "Disp"
1 4 "Domain"
$EndPhysicalNames
$Entities
4 3 0 0
1 0 0 0 1 5 
2 -173.205080757 0 0 1 5 
3 173.205080757 0 0 1 5 
4 0 -100 0 1 6 
1 -173.205080857 -100.0000001 -1e-07 9.999999406318238e-08 1.000000011686097e-07 1e-07 1 4 2 2 -4 
2 -1e-07 -100.0000001 -1e-07 1e-07 1.000000011686097e-07 1e-07 1 4 2 4 -1 
3 -9.999999406318238e-08 -100.0000001 -1e-07 173.205080857 1.000000011686097e-07 1e-07 1 4 2 4 -3 
$EndEntities
$Nodes
7 4 1 4
0 1 0 1
1
0 0 0
0 2 0 1
2
-173.205080757 0 0
0 3 0 1
3
173.205080757 0 0
0 4 0 1
4
0 -100 0
1 1 0 0
1 2 0 0
1 3 0 0
$EndNodes
$Elements
7 7 1 7
0 1 15 1
1 1 
0 2 15 1
2 2 
0 3 15 1
3 3 
0 4 15 1
4 4 
1 1 1 1
5 2 4 
1 2 1 1
6 4 1 
1 3 1 1
7 4 3 
$EndElements
