$MeshFormat
4.1 0 8
$EndMeshFormat
$PhysicalNames
4
1 11 "Left"
1 12 "Right"
1 14 "Top"
2 13 "Domain"
$EndPhysicalNames
$Entities
15 10 1 0
1 0 0 0 0 
2 -4 0 0 0 
3 4 0 0 0 
4 -1.75 1 0 0 
5 -2.75 1 0 0 
6 -0.75 1 0 0 
7 1.75 1 0 0 
8 2.75 1 0 0 
9 0.75 1 0 0 
10 -1.75 -1 0 0 
11 -1.75 -0.7 0 0 
12 -1.75 -1.3 0 0 
13 1.75 -1 0 0 
14 1.75 -0.7 0 0 
15 1.75 -1.3 0 0 
1 -4 -3.939231012048832 0 4 0 0 1 14 2 2 -3 
2 -4 0 0 4 3.939231012048832 0 1 14 2 3 -2 
3 -2.75 0.01519224698779198 0 -0.75 1 0 1 11 2 5 -6 
4 -2.75 1 0 -0.75 1.984807753012208 0 1 11 2 6 -5 
5 0.75 1 0 2.75 1.984807753012208 0 1 11 2 8 -9 
6 0.75 0.01519224698779198 0 2.75 1 0 1 11 2 9 -8 
7 -2.045442325903662 -1.3 0 -1.75 -0.7 0 1 12 2 11 -12 
8 1.75 -1.3 0 2.045442325903662 -0.7 0 1 12 2 15 -14 
9 -1.75 -0.7 0 1.75 -0.7 0 1 12 2 14 -11 
10 -1.75 -1.3 0 1.75 -1.3 0 1 12 2 12 -15 
5 -4 -3.939231012048832 0 4 3.939231012048832 0 1 13 10 1 2 -4 -3 -6 -5 -9 -8 -10 -7 
$EndEntities
$Nodes
21 152 1 152
0 2 0 1
1
-4 0 0
0 3 0 1
2
4 0 0
0 5 0 1
3
-2.75 1 0
0 6 0 1
4
-0.75 1 0
0 8 0 1
5
2.75 1 0
0 9 0 1
6
0.75 1 0
0 11 0 1
7
-1.75 -0.7 0
0 12 0 1
8
-1.75 -1.3 0
0 14 0 1
9
1.75 -0.7 0
0 15 0 1
10
1.75 -1.3 0
1 1 0 15
11
12
13
14
15
16
17
18
19
20
21
22
23
24
25
-3.923141121286581 -0.7803612897051416 0
-3.695518128530059 -1.530733733118105 0
-3.325878445604787 -2.222280937474262 0
-2.828427118343833 -2.828427131148548 0
-2.222280922671874 -3.325878455495427 0
-1.530733716601687 -3.695518135371383 0
-0.7803612720672951 -3.923141124794966 0
1.857793361303376e-08 -4 0
0.7803613041724232 -3.923141118408859 0
1.530733742495378 -3.695518124645865 0
2.222280942240025 -3.325878442420406 0
2.828427131569023 -2.828427117923357 0
3.325878453133957 -2.222280926206063 0
3.69551813187196 -1.530733725050043 0
3.92314112207519 -0.7803612857405348 0
1 2 0 15
26
27
28
29
30
31
32
33
34
35
36
37
38
39
40
3.923141121286581 0.7803612897051416 0
3.695518128530059 1.530733733118105 0
3.325878445604787 2.222280937474262 0
2.828427118343833 2.828427131148548 0
2.222280922671874 3.325878455495427 0
1.530733716601687 3.695518135371383 0
0.7803612720672951 3.923141124794966 0
-1.857793361303376e-08 4 0
-0.7803613041724232 3.923141118408859 0
-1.530733742495378 3.695518124645865 0
-2.222280942240025 3.325878442420406 0
-2.828427131569023 2.828427117923357 0
-3.325878453133957 2.222280926206063 0
-3.69551813187196 1.530733725050043 0
-3.92314112207519 0.7803612857405348 0
1 3 0 3
41
42
43
-2.457106779490535 0.2928932171174395 0
-1.749999995392249 0 0
-1.042893217139702 0.2928932204872027 0
1 4 0 3
44
45
46
-1.042893220269503 1.707106782642599 0
-1.750000004552376 2 0
-2.457106783010439 1.707106779362656 0
1 5 0 3
47
48
49
2.457106779614505 1.70710678275859 0
1.749999995355326 2 0
1.04289321715795 1.707106779531045 0
1 6 0 3
50
51
52
1.042893220393474 0.2928932172334305 0
1.750000004515452 0 0
2.457106783028686 0.2928932206555908 0
1 7 0 2
53
54
-2.009807621698976 -0.8500000009762601 0
-2.009807620587598 -1.150000000948703 0
1 8 0 2
55
56
2.009807621666588 -1.149999999079836 0
2.009807620567247 -0.8499999990160483 0
1 9 0 4
57
58
59
60
1.050000000000329 -0.7 0
0.3500000000006587 -0.7 0
-0.3500000000006591 -0.7 0
-1.05000000000033 -0.7 0
1 10 0 4
61
62
63
64
-1.050000000000329 -1.3 0
-0.3500000000006587 -1.3 0
0.3500000000006591 -1.3 0
1.05000000000033 -1.3 0
2 5 0 88
65
66
67
68
69
70
71
72
73
74
75
76
77
78
79
80
81
82
83
84
85
86
87
88
89
90
91
92
93
94
95
96
97
98
99
100
101
102
103
104
105
106
107
108
109
110
111
112
113
114
115
116
117
118
119
120
121
122
123
124
125
126
127
128
129
130
131
132
133
134
135
136
137
138
139
140
141
142
143
144
145
146
147
148
149
150
151
152
2.301059268667936 -1.016949596562242 0
-2.301059268967244 -1.016949600511975 0
1.400000000000165 -1.754663336986616 0
-1.436611312267301 -1.885928125024263 0
2.015350581017033 -1.526214838259375 0
-2.030883112646511 -1.481829978860472 0
-0.009200724147715328 -1.904621740634627 0
0.3115720676228101 3.327262233528937 0
-0.936928281633449 -3.101440611000467 0
0.9669933069344527 -3.152943942060988 0
-0.000368576886994811 -0.1291907293911287 0
-1.047870623544545 3.149083842846958 0
2.302816264400146 -0.6420496539066435 0
2.655334465930383 -0.8537046015448447 0
2.599177999671463 -1.272813396223216 0
-2.302816267084225 -0.6420496558278005 0
-2.655334468955674 -0.8537046082273222 0
-2.599177998580344 -1.272813404048057 0
0.3696108628157531 1.581176158157992 0
1.139294385797389 2.41944056510106 0
2.616390901110815 -2.183972449285488 0
-2.540439861108774 -2.160189846209296 0
3.311928704109905 -0.3335176159947921 0
-3.311928705837053 -0.3335176214710578 0
2.650758578256895 -0.3968738026543878 0
-2.650758585264479 -0.396873806697322 0
3.071917877042789 -1.145025461817315 0
-3.071917877916984 -1.145025472192289 0
2.953095736918905 -1.671961074461923 0
-2.940437227595817 -1.667997314484225 0
-0.7530603870873078 -1.890630951902019 0
-0.437306889801495 -2.502420215341691 0
0.3828360750335024 -2.636761417731044 0
-1.183062182856375 -2.424378051189313 0
-1.864375808791396 -2.310814500300497 0
-0.2201948473461908 -3.267904599335663 0
1.16925058192405 -2.397159058963904 0
3.200728303633634 0.4014108795026214 0
-3.200728300413965 0.4014108770286076 0
-0.01139947948698884 1.006600133639045 0
1.646866491851094 -2.883814233478516 0
-1.134972394557673 2.417480215513038 0
-0.4911472194810549 2.197589979204277 0
-1.675239702979107 -2.910188866614108 0
0.7121501643549182 -1.874817993520896 0
1.668018584634053 2.84749877153884 0
-1.747307058727561 2.773991301827064 0
2.248418880827697 -2.661869142868405 0
1.921796330594986 -2.088196427825883 0
2.40969105868245 -1.676940488189415 0
-2.406405721103618 -1.641724724614186 0
-0.3839015189769846 3.311247864601933 0
-0.0916378129635308 2.731080463500145 0
0.9919189844174717 3.146199999362622 0
-2.21318284414867 -0.2051423029044608 0
2.213182842633263 -0.2051423062838389 0
1.400000000000164 -0.3499999977422734 0
-1.400000000000165 -0.3500000023038752 0
2.370694367752868 2.392272662447321 0
-2.374320007169958 2.389022055527746 0
2.267878533465931 -1.320622946293838 0
-2.2700315989774 -1.30072115482513 0
0.5352859771738886 2.658784292940688 0
-0.713683122466364 -0.1882331718342157 0
0.71319168716215 -0.1881887255343059 0
0.412144665638552 0.4439771376389126 0
-0.4388369407703329 0.4568984802025065 0
-2.251268289219243 -2.677386527489 0
-0.3350501635494325 1.594030315601853 0
-3.116605431242857 1.489238881596735 0
3.116605428295571 1.489238886792676 0
-1.904301121387381 -0.4578653270020659 0
1.904301122019378 -0.4578653261581339 0
-3.342148651714261 1.02484153202082 0
3.342148651028978 1.024841535763341 0
-1.995817414872944 -1.843587765912402 0
0.1271281111128111 2.161745828470603 0
0.4155952993140492 -3.419422384473111 0
3.030387166223771 -0.722381888210441 0
-3.030387169346447 -0.7223818966093408 0
2.915789082222517 -0.00541925243505258 0
-2.915789082653524 -0.005419255610889582 0
1.724444266107609 -1.642373918181343 0
-1.652662367957417 -1.562269173959427 0
3.447570548366827 -0.8878941742433231 0
-3.447570550653449 -0.8878941875367206 0
0.6428425108115584 2.105650724840278 0
-0.6471942030480969 2.728887599770681 0
$EndNodes
$Elements
11 308 1 308
1 1 1 16
1 1 11 
2 11 12 
3 12 13 
4 13 14 
5 14 15 
6 15 16 
7 16 17 
8 17 18 
9 18 19 
10 19 20 
11 20 21 
12 21 22 
13 22 23 
14 23 24 
15 24 25 
16 25 2 
1 2 1 16
17 2 26 
18 26 27 
19 27 28 
20 28 29 
21 29 30 
22 30 31 
23 31 32 
24 32 33 
25 33 34 
26 34 35 
27 35 36 
28 36 37 
29 37 38 
30 38 39 
31 39 40 
32 40 1 
1 3 1 4
33 3 41 
34 41 42 
35 42 43 
36 43 4 
1 4 1 4
37 4 44 
38 44 45 
39 45 46 
40 46 3 
1 5 1 4
41 5 47 
42 47 48 
43 48 49 
44 49 6 
1 6 1 4
45 6 50 
46 50 51 
47 51 52 
48 52 5 
1 7 1 3
49 7 53 
50 53 54 
51 54 8 
1 8 1 3
52 10 55 
53 55 56 
54 56 9 
1 9 1 5
55 9 57 
56 57 58 
57 58 59 
58 59 60 
59 60 7 
1 10 1 5
60 8 61 
61 61 62 
62 62 63 
63 63 64 
64 64 10 
2 5 2 244
65 73 17 100 
66 76 35 111 
67 101 105 113 
68 110 31 118 
69 17 18 100 
70 61 8 148 
71 47 28 123 
72 38 46 124 
73 67 101 113 
74 7 122 136 
75 121 9 137 
76 1 88 103 
77 87 2 102 
78 84 110 118 
79 46 38 134 
80 28 47 135 
81 35 36 111 
82 30 31 110 
83 73 96 98 
84 96 73 100 
85 40 1 103 
86 2 26 102 
87 69 113 114 
88 106 76 111 
89 10 64 67 
90 97 74 101 
91 30 110 123 
92 36 37 124 
93 111 36 124 
94 29 30 123 
95 74 97 142 
96 13 14 86 
97 22 23 85 
98 28 29 123 
99 37 38 124 
100 1 11 88 
101 25 2 87 
102 75 130 131 
103 96 95 98 
104 140 68 148 
105 97 100 142 
106 7 60 122 
107 57 9 121 
108 105 112 113 
109 10 67 147 
110 85 23 93 
111 13 86 94 
112 74 20 105 
113 71 62 95 
114 24 91 93 
115 92 12 94 
116 16 73 108 
117 71 97 109 
118 97 101 109 
119 71 95 96 
120 101 67 109 
121 16 17 73 
122 19 20 74 
123 113 69 147 
124 73 98 108 
125 20 21 105 
126 98 68 99 
127 130 104 131 
128 86 99 140 
129 43 122 128 
130 121 50 129 
131 34 35 76 
132 32 33 72 
133 101 74 105 
134 6 49 83 
135 122 60 128 
136 57 121 129 
137 133 83 141 
138 49 48 84 
139 22 85 112 
140 6 83 104 
141 5 52 102 
142 41 3 103 
143 71 96 97 
144 63 62 71 
145 62 61 95 
146 84 118 127 
147 59 58 75 
148 107 133 141 
149 15 16 108 
150 23 24 93 
151 12 13 94 
152 97 96 100 
153 106 44 107 
154 104 83 133 
155 99 68 140 
156 45 44 106 
157 91 24 149 
158 12 92 150 
159 63 71 109 
160 98 99 108 
161 68 61 148 
162 113 85 114 
163 95 68 98 
164 64 63 109 
165 86 14 132 
166 100 18 142 
167 84 48 110 
168 25 87 149 
169 88 11 150 
170 43 42 122 
171 51 50 121 
172 122 42 136 
173 51 121 137 
174 60 59 128 
175 58 57 129 
176 87 102 145 
177 103 88 146 
178 15 108 132 
179 4 104 133 
180 45 106 111 
181 42 41 119 
182 52 51 120 
183 67 64 109 
184 112 85 113 
185 40 103 138 
186 102 26 139 
187 85 93 114 
188 94 86 115 
189 93 79 114 
190 82 94 115 
191 89 52 120 
192 41 90 119 
193 99 86 132 
194 108 99 132 
195 21 22 112 
196 52 89 145 
197 90 41 146 
198 48 47 123 
199 46 45 124 
200 14 15 132 
201 27 28 135 
202 38 39 134 
203 56 55 65 
204 54 53 66 
205 61 68 95 
206 105 21 112 
207 32 72 118 
208 34 76 116 
209 72 33 116 
210 31 32 118 
211 33 34 116 
212 118 72 127 
213 18 19 142 
214 24 25 149 
215 11 12 150 
216 110 48 123 
217 45 111 124 
218 87 89 143 
219 90 88 144 
220 50 6 130 
221 66 81 82 
222 78 65 79 
223 4 43 131 
224 59 75 128 
225 75 58 129 
226 117 116 152 
227 55 10 69 
228 8 54 70 
229 116 76 152 
230 104 4 131 
231 6 104 130 
232 44 4 133 
233 3 46 134 
234 47 5 135 
235 102 52 145 
236 41 103 146 
237 107 44 133 
238 19 74 142 
239 91 79 93 
240 82 92 94 
241 83 49 151 
242 39 40 138 
243 26 27 139 
244 128 75 131 
245 75 129 130 
246 89 87 145 
247 88 90 146 
248 42 119 136 
249 120 51 137 
250 69 114 125 
251 115 70 126 
252 103 3 138 
253 5 102 139 
254 72 116 117 
255 70 115 140 
256 78 79 91 
257 82 81 92 
258 49 84 151 
259 67 113 147 
260 115 86 140 
261 77 78 89 
262 81 80 90 
263 90 80 119 
264 77 89 120 
265 106 107 152 
266 77 65 78 
267 66 80 81 
268 70 140 148 
269 72 117 127 
270 56 65 77 
271 66 53 80 
272 76 106 152 
273 117 107 141 
274 66 82 126 
275 79 65 125 
276 129 50 130 
277 43 128 131 
278 81 90 144 
279 89 78 143 
280 119 80 136 
281 77 120 137 
282 127 117 141 
283 55 69 125 
284 70 54 126 
285 134 39 138 
286 27 135 139 
287 65 55 125 
288 54 66 126 
289 53 7 136 
290 9 56 137 
291 114 79 125 
292 82 115 126 
293 3 134 138 
294 135 5 139 
295 78 91 143 
296 92 81 144 
297 141 83 151 
298 144 88 150 
299 87 143 149 
300 107 117 152 
301 69 10 147 
302 84 127 151 
303 56 77 137 
304 80 53 136 
305 8 70 148 
306 127 141 151 
307 143 91 149 
308 92 144 150 
$EndElements
