$MeshFormat
4.1 0 8
$EndMeshFormat
$PhysicalNames
2
2 13 "face"
3 14 "TetrahedronDomain"
$EndPhysicalNames
$Entities
4 6 4 1
1 0 0 1 0 
2 1 0 0 0 
3 0 0 0 0 
4 0 1 0 0 
1 0 0 0 1 0 1 0 2 1 -2 
2 0 0 0 1 0 0 0 2 2 -3 
3 0 0 0 0 0 1 0 2 3 -1 
4 0 0 0 0 1 1 0 2 1 -4 
5 0 0 0 1 1 0 0 2 2 -4 
6 0 0 0 0 1 0 0 2 3 -4 
1 0 0 0 1 0 1 1 13 3 1 2 3 
2 0 0 0 1 1 1 1 13 3 1 5 -4 
3 0 0 0 1 1 0 1 13 3 2 6 -5 
4 0 0 0 0 1 1 1 13 3 3 4 -6 
1 0 0 0 1 1 1 1 14 4 1 2 3 4 
$EndEntities
$Nodes
15 20 1 20
0 1 0 1
1
0 0 1
0 2 0 1
2
1 0 0
0 3 0 1
3
0 0 0
0 4 0 1
4
0 1 0
1 1 0 2
5
6
0.3333333333328375 0 0.6666666666671625
0.6666666666658063 0 0.3333333333341937
1 2 0 2
7
8
0.6666666666668164 0 0
0.3333333333341704 0 0
1 3 0 2
9
10
0 0 0.3333333333324915
0 0 0.6666666666657831
1 4 0 2
11
12
0 0.3333333333328375 0.6666666666671625
0 0.6666666666658063 0.3333333333341937
1 5 0 2
13
14
0.6666666666671625 0.3333333333328375 0
0.3333333333341937 0.6666666666658063 0
1 6 0 2
15
16
0 0.3333333333324915 0
0 0.6666666666657831 0
2 1 0 1
17
0.3333333333332102 0 0.3333333333332102
2 2 0 1
18
0.3333333333333336 0.3333333333324291 0.3333333333342375
2 3 0 1
19
0.3333333333341143 0.3333333333323062 0
2 4 0 1
20
0 0.3333333333323062 0.3333333333332102
3 1 0 0
$EndNodes
$Elements
5 5 1 5
2 1 21 1
1 1 2 3 5 6 7 8 9 10 17 
2 2 21 1
2 1 2 4 5 6 13 14 12 11 18 
2 3 21 1
3 2 3 4 7 8 15 16 14 13 19 
2 4 21 1
4 1 4 3 11 12 16 15 9 10 20 
3 1 29 1
5 3 4 1 2 15 16 12 11 10 9 7 8 6 5 13 14 20 19 17 18 
$EndElements
