$MeshFormat
4.1 0 8
$EndMeshFormat
$PhysicalNames
2
2 13 "face"
3 14 "volume"
$EndPhysicalNames
$Entities
8 12 6 1
1 0 0 1 0 
2 0 0 0 0 
3 0 1 1 0 
4 0 1 0 0 
5 1 0 1 0 
6 1 0 0 0 
7 1 1 1 0 
8 1 1 0 0 
1 -1e-07 -1e-07 -9.999999994736442e-08 1e-07 1e-07 1.0000001 0 2 2 -1 
2 -1e-07 -9.999999994736442e-08 0.9999999000000001 1e-07 1.0000001 1.0000001 0 2 1 -3 
3 -1e-07 0.9999999000000001 -9.999999994736442e-08 1e-07 1.0000001 1.0000001 0 2 4 -3 
4 -1e-07 -9.999999994736442e-08 -1e-07 1e-07 1.0000001 1e-07 0 2 2 -4 
5 0.9999999000000001 -1e-07 -9.999999994736442e-08 1.0000001 1e-07 1.0000001 0 2 6 -5 
6 0.9999999000000001 -9.999999994736442e-08 0.9999999000000001 1.0000001 1.0000001 1.0000001 0 2 5 -7 
7 0.9999999000000001 0.9999999000000001 -9.999999994736442e-08 1.0000001 1.0000001 1.0000001 0 2 8 -7 
8 0.9999999000000001 -9.999999994736442e-08 -1e-07 1.0000001 1.0000001 1e-07 0 2 6 -8 
9 -9.999999994736442e-08 -1e-07 -1e-07 1.0000001 1e-07 1e-07 0 2 2 -6 
10 -9.999999994736442e-08 -1e-07 0.9999999000000001 1.0000001 1e-07 1.0000001 0 2 1 -5 
11 -9.999999994736442e-08 0.9999999000000001 -1e-07 1.0000001 1.0000001 1e-07 0 2 4 -8 
12 -9.999999994736442e-08 0.9999999000000001 0.9999999000000001 1.0000001 1.0000001 1.0000001 0 2 3 -7 
1 -1e-07 -9.999999994736442e-08 -9.999999994736442e-08 1e-07 1.0000001 1.0000001 1 13 4 -1 4 3 -2 
2 0.9999999000000001 -9.999999994736442e-08 -9.999999994736442e-08 1.0000001 1.0000001 1.0000001 1 13 4 -5 8 7 -6 
3 -9.999999994736442e-08 -1e-07 -9.999999994736442e-08 1.0000001 1e-07 1.0000001 1 13 4 -9 1 10 -5 
4 -9.999999994736442e-08 0.9999999000000001 -9.999999994736442e-08 1.0000001 1.0000001 1.0000001 1 13 4 -11 3 12 -7 
5 -9.999999994736442e-08 -9.999999994736442e-08 -1e-07 1.0000001 1.0000001 1e-07 1 13 4 -4 9 8 -11 
6 -9.999999994736442e-08 -9.999999994736442e-08 0.9999999000000001 1.0000001 1.0000001 1.0000001 1 13 4 -2 10 6 -12 
1 -9.999999994736442e-08 -9.999999994736442e-08 -9.999999994736442e-08 1.0000001 1.0000001 1.0000001 1 14 6 -1 2 -3 4 -5 6 
$EndEntities
$Nodes
27 125 1 125
0 1 0 1
1
0 0 1
0 2 0 1
2
0 0 0
0 3 0 1
3
0 1 1
0 4 0 1
4
0 1 0
0 5 0 1
5
1 0 1
0 6 0 1
6
1 0 0
0 7 0 1
7
1 1 1
0 8 0 1
8
1 1 0
1 1 0 3
9
10
11
0 0 0.25
0 0 0.5
0 0 0.75
1 2 0 3
12
13
14
0 0.25 1
0 0.5 1
0 0.75 1
1 3 0 3
15
16
17
0 1 0.25
0 1 0.5
0 1 0.75
1 4 0 3
18
19
20
0 0.25 0
0 0.5 0
0 0.75 0
1 5 0 3
21
22
23
1 0 0.25
1 0 0.5
1 0 0.75
1 6 0 3
24
25
26
1 0.25 1
1 0.5 1
1 0.75 1
1 7 0 3
27
28
29
1 1 0.25
1 1 0.5
1 1 0.75
1 8 0 3
30
31
32
1 0.25 0
1 0.5 0
1 0.75 0
1 9 0 3
33
34
35
0.25 0 0
0.5 0 0
0.75 0 0
1 10 0 3
36
37
38
0.25 0 1
0.5 0 1
0.75 0 1
1 11 0 3
39
40
41
0.25 1 0
0.5 1 0
0.75 1 0
1 12 0 3
42
43
44
0.25 1 1
0.5 1 1
0.75 1 1
2 1 0 9
45
46
47
48
49
50
51
52
53
0 0.25 0.25
0 0.5 0.25
0 0.75 0.25
0 0.25 0.5
0 0.5 0.5
0 0.75 0.5
0 0.25 0.75
0 0.5 0.75
0 0.75 0.75
2 2 0 9
54
55
56
57
58
59
60
61
62
1 0.25 0.25
1 0.5 0.25
1 0.75 0.25
1 0.25 0.5
1 0.5 0.5
1 0.75 0.5
1 0.25 0.75
1 0.5 0.75
1 0.75 0.75
2 3 0 9
63
64
65
66
67
68
69
70
71
0.25 0 0.25
0.25 0 0.5
0.25 0 0.75
0.5 0 0.25
0.5 0 0.5
0.5 0 0.75
0.75 0 0.25
0.75 0 0.5
0.75 0 0.75
2 4 0 9
72
73
74
75
76
77
78
79
80
0.25 1 0.25
0.25 1 0.5
0.25 1 0.75
0.5 1 0.25
0.5 1 0.5
0.5 1 0.75
0.75 1 0.25
0.75 1 0.5
0.75 1 0.75
2 5 0 9
81
82
83
84
85
86
87
88
89
0.25 0.25 0
0.5 0.25 0
0.75 0.25 0
0.25 0.5 0
0.5 0.5 0
0.75 0.5 0
0.25 0.75 0
0.5 0.75 0
0.75 0.75 0
2 6 0 9
90
91
92
93
94
95
96
97
98
0.25 0.25 1
0.5 0.25 1
0.75 0.25 1
0.25 0.5 1
0.5 0.5 1
0.75 0.5 1
0.25 0.75 1
0.5 0.75 1
0.75 0.75 1
3 1 0 27
99
100
101
102
103
104
105
106
107
108
109
110
111
112
113
114
115
116
117
118
119
120
121
122
123
124
125
0.25 0.25 0.25
0.5 0.25 0.25
0.75 0.25 0.25
0.25 0.5 0.25
0.5 0.5 0.25
0.75 0.5 0.25
0.25 0.75 0.25
0.5 0.75 0.25
0.75 0.75 0.25
0.25 0.25 0.5
0.5 0.25 0.5
0.75 0.25 0.5
0.25 0.5 0.5
0.5 0.5 0.5
0.75 0.5 0.5
0.25 0.75 0.5
0.5 0.75 0.5
0.75 0.75 0.5
0.25 0.25 0.75
0.5 0.25 0.75
0.75 0.25 0.75
0.25 0.5 0.75
0.5 0.5 0.75
0.75 0.5 0.75
0.25 0.75 0.75
0.5 0.75 0.75
0.75 0.75 0.75
$EndNodes
$Elements
7 160 1 160
2 1 3 16
1 2 9 45 18 
2 18 45 46 19 
3 19 46 47 20 
4 20 47 15 4 
5 9 10 48 45 
6 45 48 49 46 
7 46 49 50 47 
8 47 50 16 15 
9 10 11 51 48 
10 48 51 52 49 
11 49 52 53 50 
12 50 53 17 16 
13 11 1 12 51 
14 51 12 13 52 
15 52 13 14 53 
16 53 14 3 17 
2 2 3 16
17 6 30 54 21 
18 30 31 55 54 
19 31 32 56 55 
20 32 8 27 56 
21 21 54 57 22 
22 54 55 58 57 
23 55 56 59 58 
24 56 27 28 59 
25 22 57 60 23 
26 57 58 61 60 
27 58 59 62 61 
28 59 28 29 62 
29 23 60 24 5 
30 60 61 25 24 
31 61 62 26 25 
32 62 29 7 26 
2 3 3 16
33 2 33 63 9 
34 9 63 64 10 
35 10 64 65 11 
36 11 65 36 1 
37 33 34 66 63 
38 63 66 67 64 
39 64 67 68 65 
40 65 68 37 36 
41 34 35 69 66 
42 66 69 70 67 
43 67 70 71 68 
44 68 71 38 37 
45 35 6 21 69 
46 69 21 22 70 
47 70 22 23 71 
48 71 23 5 38 
2 4 3 16
49 4 15 72 39 
50 15 16 73 72 
51 16 17 74 73 
52 17 3 42 74 
53 39 72 75 40 
54 72 73 76 75 
55 73 74 77 76 
56 74 42 43 77 
57 40 75 78 41 
58 75 76 79 78 
59 76 77 80 79 
60 77 43 44 80 
61 41 78 27 8 
62 78 79 28 27 
63 79 80 29 28 
64 80 44 7 29 
2 5 3 16
65 2 18 81 33 
66 33 81 82 34 
67 34 82 83 35 
68 35 83 30 6 
69 18 19 84 81 
70 81 84 85 82 
71 82 85 86 83 
72 83 86 31 30 
73 19 20 87 84 
74 84 87 88 85 
75 85 88 89 86 
76 86 89 32 31 
77 20 4 39 87 
78 87 39 40 88 
79 88 40 41 89 
80 89 41 8 32 
2 6 3 16
81 1 36 90 12 
82 36 37 91 90 
83 37 38 92 91 
84 38 5 24 92 
85 12 90 93 13 
86 90 91 94 93 
87 91 92 95 94 
88 92 24 25 95 
89 13 93 96 14 
90 93 94 97 96 
91 94 95 98 97 
92 95 25 26 98 
93 14 96 42 3 
94 96 97 43 42 
95 97 98 44 43 
96 98 26 7 44 
3 1 5 64
97 45 9 2 18 99 63 33 81 
98 99 63 33 81 100 66 34 82 
99 100 66 34 82 101 69 35 83 
100 101 69 35 83 54 21 6 30 
101 46 45 18 19 102 99 81 84 
102 102 99 81 84 103 100 82 85 
103 103 100 82 85 104 101 83 86 
104 104 101 83 86 55 54 30 31 
105 47 46 19 20 105 102 84 87 
106 105 102 84 87 106 103 85 88 
107 106 103 85 88 107 104 86 89 
108 107 104 86 89 56 55 31 32 
109 15 47 20 4 72 105 87 39 
110 72 105 87 39 75 106 88 40 
111 75 106 88 40 78 107 89 41 
112 78 107 89 41 27 56 32 8 
113 48 10 9 45 108 64 63 99 
114 108 64 63 99 109 67 66 100 
115 109 67 66 100 110 70 69 101 
116 110 70 69 101 57 22 21 54 
117 49 48 45 46 111 108 99 102 
118 111 108 99 102 112 109 100 103 
119 112 109 100 103 113 110 101 104 
120 113 110 101 104 58 57 54 55 
121 50 49 46 47 114 111 102 105 
122 114 111 102 105 115 112 103 106 
123 115 112 103 106 116 113 104 107 
124 116 113 104 107 59 58 55 56 
125 16 50 47 15 73 114 105 72 
126 73 114 105 72 76 115 106 75 
127 76 115 106 75 79 116 107 78 
128 79 116 107 78 28 59 56 27 
129 51 11 10 48 117 65 64 108 
130 117 65 64 108 118 68 67 109 
131 118 68 67 109 119 71 70 110 
132 119 71 70 110 60 23 22 57 
133 52 51 48 49 120 117 108 111 
134 120 117 108 111 121 118 109 112 
135 121 118 109 112 122 119 110 113 
136 122 119 110 113 61 60 57 58 
137 53 52 49 50 123 120 111 114 
138 123 120 111 114 124 121 112 115 
139 124 121 112 115 125 122 113 116 
140 125 122 113 116 62 61 58 59 
141 17 53 50 16 74 123 114 73 
142 74 123 114 73 77 124 115 76 
143 77 124 115 76 80 125 116 79 
144 80 125 116 79 29 62 59 28 
145 12 1 11 51 90 36 65 117 
146 90 36 65 117 91 37 68 118 
147 91 37 68 118 92 38 71 119 
148 92 38 71 119 24 5 23 60 
149 13 12 51 52 93 90 117 120 
150 93 90 117 120 94 91 118 121 
151 94 91 118 121 95 92 119 122 
152 95 92 119 122 25 24 60 61 
153 14 13 52 53 96 93 120 123 
154 96 93 120 123 97 94 121 124 
155 97 94 121 124 98 95 122 125 
156 98 95 122 125 26 25 61 62 
157 3 14 53 17 42 96 123 74 
158 42 96 123 74 43 97 124 77 
159 43 97 124 77 44 98 125 80 
160 44 98 125 80 7 26 62 29 
$EndElements
