$MeshFormat
4.1 0 8
$EndMeshFormat
$PhysicalNames
3
0 3 "apoio_fixo_esquerda"
0 4 "apoio_movel_direita"
1 6 "barras"
$EndPhysicalNames
$Entities
2 1 0 0
1 0 0 0 1 3 
2 1 0 0 1 4 
1 -9.999999994736442e-08 -1e-07 -1e-07 1.0000001 1e-07 1e-07 1 6 2 1 -2 
$EndEntities
$Nodes
3 13 1 13
0 1 0 1
1
0 0 0
0 2 0 1
2
1 0 0
1 1 0 11
3
4
5
6
7
8
9
10
11
12
13
0.25 0 0
0.5 0 0
0.75 0 0
0.08333333333333333 0 0
0.1666666666666667 0 0
0.3333333333333333 0 0
0.4166666666666666 0 0
0.5833333333333334 0 0
0.6666666666666667 0 0
0.8333333333333334 0 0
0.9166666666666666 0 0
$EndNodes
$Elements
3 6 1 6
0 1 15 1
1 1 
0 2 15 1
2 2 
1 1 26 4
3 1 3 6 7 
4 3 4 8 9 
5 4 5 10 11 
6 5 2 12 13 
$EndElements
