$MeshFormat
4.1 0 8
$EndMeshFormat
$PhysicalNames
3
0 3 "apoio_fixo_esquerda"
0 4 "apoio_movel_direita"
1 6 "barras"
$EndPhysicalNames
$Entities
2 1 0 0
1 0 0 0 1 3 
2 1 0 0 1 4 
1 -9.999999994736442e-08 -1e-07 -1e-07 1.0000001 1e-07 1e-07 1 6 2 1 -2 
$EndEntities
$Nodes
3 5 1 5
0 1 0 1
1
0 0 0
0 2 0 1
2
1 0 0
1 1 0 3
3
4
5
0.25 0 0
0.5 0 0
0.75 0 0
$EndNodes
$Elements
3 6 1 6
0 1 15 1
1 1 
0 2 15 1
2 2 
1 1 1 4
3 1 3 
4 3 4 
5 4 5 
6 5 2 
$EndElements
