$MeshFormat
4.1 0 8
$EndMeshFormat
$PhysicalNames
4
0 8 "apoio_fixo"
0 9 "apoio_movel"
0 10 "forca"
1 11 "barras"
$EndPhysicalNames
$Entities
5 7 0 0
1 0 0 0 1 9 
2 1 0 0 0 
3 1 1.5 0 0 
4 0 1.5 0 1 8 
5 2 1.5 0 1 10 
1 -9.999999994736442e-08 -1e-07 -1e-07 1.0000001 1e-07 1e-07 1 11 2 1 -2 
2 0.9999999000000001 -9.999999994736442e-08 -1e-07 1.0000001 1.5000001 1e-07 1 11 2 2 -3 
3 -9.999999994736442e-08 1.4999999 -1e-07 1.0000001 1.5000001 1e-07 1 11 2 3 -4 
4 -1e-07 -9.999999994736442e-08 -1e-07 1e-07 1.5000001 1e-07 1 11 2 4 -1 
5 -9.999999994736442e-08 -9.999999994736442e-08 -1e-07 1.0000001 1.5000001 1e-07 1 11 2 1 -3 
6 0.9999999000000001 1.4999999 -1e-07 2.0000001 1.5000001 1e-07 1 11 2 3 -5 
7 0.9999999000000001 -9.999999994736442e-08 -1e-07 2.0000001 1.5000001 1e-07 1 11 2 5 -2 
$EndEntities
$Nodes
12 5 1 5
0 1 0 1
1
0 0 0
0 2 0 1
2
1 0 0
0 3 0 1
3
1 1.5 0
0 4 0 1
4
0 1.5 0
0 5 0 1
5
2 1.5 0
1 1 0 0
1 2 0 0
1 3 0 0
1 4 0 0
1 5 0 0
1 6 0 0
1 7 0 0
$EndNodes
$Elements
10 10 1 10
0 1 15 1
1 1 
0 4 15 1
2 4 
0 5 15 1
3 5 
1 1 1 1
4 1 2 
1 2 1 1
5 2 3 
1 3 1 1
6 3 4 
1 4 1 1
7 4 1 
1 5 1 1
8 1 3 
1 6 1 1
9 3 5 
1 7 1 1
10 5 2 
$EndElements
