$MeshFormat
4.1 0 8
$EndMeshFormat
$PhysicalNames
4
0 3 "apoio_fixo"
0 4 "carga_pontual"
0 5 "apoio_movel"
1 6 "secoes_de_viga"
$EndPhysicalNames
$Entities
3 2 0 0
1 0 0 0 1 3 
2 5 0 0 1 4 
3 10 0 0 1 5 
1 -9.999999983634211e-08 -1e-07 -1e-07 5.0000001 1e-07 1e-07 1 6 2 1 -2 
2 4.9999999 -1e-07 -1e-07 10.0000001 1e-07 1e-07 1 6 2 2 -3 
$EndEntities
$Nodes
5 3 1 3
0 1 0 1
1
0 0 0
0 2 0 1
2
5 0 0
0 3 0 1
3
10 0 0
1 1 0 0
1 2 0 0
$EndNodes
$Elements
5 5 1 5
0 1 15 1
1 1 
0 2 15 1
2 2 
0 3 15 1
3 3 
1 1 1 1
4 1 2 
1 2 1 1
5 2 3 
$EndElements
