$MeshFormat
4.1 0 8
$EndMeshFormat
$PhysicalNames
7
2 25 "edificio"
2 26 "entrada"
2 27 "saida"
2 28 "simetria"
2 29 "topo"
2 30 "base"
3 31 "fluido"
$EndPhysicalNames
$Entities
16 24 11 1
1 0 0 0 0 
2 50 0 0 0 
3 50 60 0 0 
4 0 60 0 0 
5 20 20 0 0 
6 30 20 0 0 
7 30 40 0 0 
8 20 40 0 0 
9 0 0 20 0 
10 50 0 20 0 
11 50 60 20 0 
12 0 60 20 0 
13 20 20 10 0 
14 30 20 10 0 
15 30 40 10 0 
16 20 40 10 0 
1 -1.000000011686097e-07 -1e-07 -1e-07 50.0000001 1e-07 1e-07 0 2 1 -2 
2 49.9999999 -1.000000011686097e-07 -1e-07 50.0000001 60.0000001 1e-07 0 2 2 -3 
3 -1.000000011686097e-07 59.9999999 -1e-07 50.0000001 60.0000001 1e-07 0 2 3 -4 
4 -1e-07 -1.000000011686097e-07 -1e-07 1e-07 60.0000001 1e-07 0 2 4 -1 
5 19.9999999 19.9999999 -1e-07 30.0000001 20.0000001 1e-07 0 2 5 -6 
6 29.9999999 19.9999999 -1e-07 30.0000001 40.0000001 1e-07 0 2 6 -7 
7 19.9999999 39.9999999 -1e-07 30.0000001 40.0000001 1e-07 0 2 7 -8 
8 19.9999999 19.9999999 -1e-07 20.0000001 40.0000001 1e-07 0 2 8 -5 
9 -1.000000011686097e-07 -1e-07 19.9999999 50.0000001 1e-07 20.0000001 0 2 9 -10 
10 49.9999999 -1.000000011686097e-07 19.9999999 50.0000001 60.0000001 20.0000001 0 2 10 -11 
11 -1.000000011686097e-07 59.9999999 19.9999999 50.0000001 60.0000001 20.0000001 0 2 11 -12 
12 -1e-07 -1.000000011686097e-07 19.9999999 1e-07 60.0000001 20.0000001 0 2 12 -9 
13 19.9999999 19.9999999 9.999999900000001 30.0000001 20.0000001 10.0000001 0 2 13 -14 
14 29.9999999 19.9999999 9.999999900000001 30.0000001 40.0000001 10.0000001 0 2 14 -15 
15 19.9999999 39.9999999 9.999999900000001 30.0000001 40.0000001 10.0000001 0 2 15 -16 
16 19.9999999 19.9999999 9.999999900000001 20.0000001 40.0000001 10.0000001 0 2 16 -13 
17 -1e-07 -1e-07 -9.99999993922529e-08 1e-07 1e-07 20.0000001 0 2 1 -9 
18 49.9999999 -1e-07 -9.99999993922529e-08 50.0000001 1e-07 20.0000001 0 2 2 -10 
19 49.9999999 59.9999999 -9.99999993922529e-08 50.0000001 60.0000001 20.0000001 0 2 3 -11 
20 -1e-07 59.9999999 -9.99999993922529e-08 1e-07 60.0000001 20.0000001 0 2 4 -12 
21 19.9999999 19.9999999 -1.000000002804313e-07 20.0000001 20.0000001 10.0000001 0 2 5 -13 
22 29.9999999 19.9999999 -1.000000002804313e-07 30.0000001 20.0000001 10.0000001 0 2 6 -14 
23 29.9999999 39.9999999 -1.000000002804313e-07 30.0000001 40.0000001 10.0000001 0 2 7 -15 
24 19.9999999 39.9999999 -1.000000002804313e-07 20.0000001 40.0000001 10.0000001 0 2 8 -16 
1 19.9999999 19.9999999 -1.000000002804313e-07 30.0000001 20.0000001 10.0000001 1 25 4 13 -22 -5 21 
2 19.9999999 19.9999999 -1.000000002804313e-07 20.0000001 40.0000001 10.0000001 1 25 4 16 -21 -8 24 
3 29.9999999 19.9999999 -1.000000002804313e-07 30.0000001 40.0000001 10.0000001 1 25 4 14 -23 -6 22 
4 19.9999999 39.9999999 -1.000000002804313e-07 30.0000001 40.0000001 10.0000001 1 25 4 15 -24 -7 23 
5 19.9999999 19.9999999 9.999999900000001 30.0000001 40.0000001 10.0000001 1 25 4 16 13 14 15 
6 -1.000000011686097e-07 59.9999999 -9.99999993922529e-08 50.0000001 60.0000001 20.0000001 1 28 4 20 -11 -19 3 
7 49.9999999 -1.000000011686097e-07 -9.99999993922529e-08 50.0000001 60.0000001 20.0000001 1 26 4 19 -10 -18 2 
8 -1.000000011686097e-07 -1e-07 -9.99999993922529e-08 50.0000001 1e-07 20.0000001 1 28 4 18 -9 -17 1 
9 -1e-07 -1.000000011686097e-07 -9.99999993922529e-08 1e-07 60.0000001 20.0000001 1 27 4 17 -12 -20 4 
10 -1.000000011686097e-07 -1.000000011686097e-07 19.9999999 50.0000001 60.0000001 20.0000001 1 29 4 9 10 11 12 
11 -1.000000011686097e-07 -1.000000011686097e-07 -1e-07 50.0000001 60.0000001 1e-07 1 30 8 2 3 4 1 -5 -8 -7 -6 
1 -1.000000011686097e-07 -1.000000011686097e-07 -9.99999993922529e-08 50.0000001 60.0000001 20.0000001 1 31 11 10 8 7 6 9 -11 1 -5 2 4 3 
$EndEntities
$Nodes
28 32 1 32
0 1 0 1
1
0 0 0
0 2 0 1
2
50 0 0
0 3 0 1
3
50 60 0
0 4 0 1
4
0 60 0
0 5 0 1
5
20 20 0
0 6 0 1
6
30 20 0
0 7 0 1
7
30 40 0
0 8 0 1
8
20 40 0
0 9 0 1
9
0 0 20
0 10 0 1
10
50 0 20
0 11 0 1
11
50 60 20
0 12 0 1
12
0 60 20
0 13 0 1
13
20 20 10
0 14 0 1
14
30 20 10
0 15 0 1
15
30 40 10
0 16 0 1
16
20 40 10
2 1 0 1
17
25 20 5
2 2 0 1
18
20 30 5
2 3 0 1
19
30 30 5
2 4 0 1
20
25 40 5
2 5 0 1
21
25 30 10
2 6 0 1
22
25 60 10
2 7 0 0
2 8 0 1
23
25 0 10
2 9 0 0
2 10 0 1
24
25 30 20
2 11 0 8
25
26
27
28
29
30
31
32
11.33974596215561 30 0
38.66025403784438 30 0
25 9.821581987385208 0
25 50.17841801261479 0
36.58150115366982 13.38663848693468 0
36.58150115366983 46.61336151306532 0
13.41849884633018 46.61336151306532 0
13.41849884633018 13.38663848693468 0
3 1 0 0
$EndNodes
$Elements
12 136 1 136
2 1 2 4
1 5 17 6 
2 13 17 5 
3 6 17 14 
4 14 17 13 
2 2 2 4
5 8 18 5 
6 5 18 13 
7 16 18 8 
8 13 18 16 
2 3 2 4
9 6 19 7 
10 14 19 6 
11 7 19 15 
12 15 19 14 
2 4 2 4
13 7 20 8 
14 15 20 7 
15 8 20 16 
16 16 20 15 
2 5 2 4
17 14 21 13 
18 13 21 16 
19 15 21 14 
20 16 21 15 
2 6 2 4
21 4 22 3 
22 3 22 11 
23 12 22 4 
24 11 22 12 
2 7 2 2
25 2 3 11 
26 2 11 10 
2 8 2 4
27 2 23 1 
28 1 23 9 
29 10 23 2 
30 9 23 10 
2 9 2 2
31 4 1 9 
32 4 9 12 
2 10 2 4
33 10 24 9 
34 9 24 12 
35 11 24 10 
36 12 24 11 
2 11 2 24
37 2 27 1 
38 1 25 4 
39 1 32 25 
40 27 32 1 
41 3 26 2 
42 26 29 2 
43 2 29 27 
44 4 28 3 
45 3 30 26 
46 28 30 3 
47 25 31 4 
48 4 31 28 
49 5 27 6 
50 8 25 5 
51 25 32 5 
52 5 32 27 
53 6 26 7 
54 6 29 26 
55 27 29 6 
56 7 28 8 
57 26 30 7 
58 7 30 28 
59 8 31 25 
60 28 31 8 
3 1 4 76
61 18 16 25 13 
62 14 15 26 19 
63 9 4 12 25 
64 9 4 25 1 
65 26 3 11 2 
66 26 11 10 2 
67 16 22 24 15 
68 13 23 14 24 
69 24 22 12 11 
70 10 23 9 24 
71 22 12 16 24 
72 10 14 23 24 
73 11 24 22 15 
74 23 13 9 24 
75 26 10 14 29 
76 31 25 16 12 
77 9 32 25 13 
78 11 15 30 26 
79 7 26 19 6 
80 8 25 5 18 
81 14 15 21 24 
82 16 13 21 24 
83 16 20 28 15 
84 17 14 13 27 
85 25 31 4 12 
86 1 32 25 9 
87 30 3 11 26 
88 29 26 10 2 
89 12 16 31 22 
90 23 14 10 29 
91 15 28 22 30 
92 16 28 31 22 
93 23 32 13 27 
94 29 23 14 27 
95 13 9 32 23 
96 22 11 15 30 
97 1 32 23 27 
98 3 22 28 30 
99 22 16 28 15 
100 14 23 13 27 
101 4 31 28 22 
102 27 29 23 2 
103 15 20 28 7 
104 14 17 6 27 
105 17 13 5 27 
106 28 8 20 16 
107 32 5 25 13 
108 7 30 15 26 
109 6 26 14 29 
110 25 8 31 16 
111 25 8 16 18 
112 18 25 5 13 
113 19 26 14 6 
114 15 7 26 19 
115 32 5 13 27 
116 29 14 6 27 
117 30 15 28 7 
118 8 28 31 16 
119 14 21 13 24 
120 24 21 16 15 
121 31 4 12 22 
122 1 32 9 23 
123 29 10 23 2 
124 11 22 3 30 
125 8 28 20 7 
126 6 17 5 27 
127 1 2 27 23 
128 3 4 28 22 
129 15 14 10 24 
130 10 14 15 26 
131 10 11 15 24 
132 15 11 10 26 
133 16 13 12 25 
134 16 12 13 24 
135 9 12 13 25 
136 9 13 12 24 
$EndElements
