$MeshFormat
4.1 0 8
$EndMeshFormat
$PhysicalNames
7
2 33 "Building"
2 34 "Inlet"
2 35 "Outlet"
2 36 "frontAndBack"
2 37 "Up"
2 38 "Down"
3 39 "Fluid"
$EndPhysicalNames
$Entities
16 32 22 5
1 15 0 0 0 
2 35 0 0 0 
3 35 100 0 0 
4 15 100 0 0 
5 20 20 0 0 
6 30 20 0 0 
7 30 50 0 0 
8 20 50 0 0 
9 20 20 30 0 
10 30 20 30 0 
11 30 50 30 0 
12 20 50 30 0 
13 15 0 50 0 
14 35 0 50 0 
15 35 100 50 0 
16 15 100 50 0 
1 15 0 0 35 0 0 0 2 1 -2 
2 35 0 0 35 100 0 0 2 2 -3 
3 15 100 0 35 100 0 0 2 3 -4 
4 15 0 0 15 100 0 0 2 4 -1 
5 20 20 0 20 50 0 0 2 5 -8 
6 20 50 0 30 50 0 0 2 8 -7 
7 30 20 0 30 50 0 0 2 7 -6 
8 20 20 0 30 20 0 0 2 6 -5 
9 20 20 30 30 20 30 0 2 9 -10 
10 30 20 30 30 50 30 0 2 10 -11 
11 20 50 30 30 50 30 0 2 11 -12 
12 20 20 30 20 50 30 0 2 12 -9 
13 30 20 0 30 20 30 0 2 10 -6 
14 20 20 0 20 20 30 0 2 9 -5 
15 30 50 0 30 50 30 0 2 11 -7 
16 20 50 0 20 50 30 0 2 8 -12 
17 15 0 50 35 0 50 0 2 13 -14 
18 35 0 50 35 100 50 0 2 14 -15 
19 15 100 50 35 100 50 0 2 15 -16 
20 15 0 50 15 100 50 0 2 16 -13 
21 15 0 0 15 0 50 0 2 13 -1 
22 15 100 0 15 100 50 0 2 16 -4 
23 35 100 0 35 100 50 0 2 15 -3 
24 30 50 30 35 100 50 0 2 11 -15 
25 30 50 0 35 100 0 0 2 7 -3 
26 30 0 0 35 20 0 0 2 6 -2 
27 15 0 0 20 20 0 0 2 5 -1 
28 15 0 30 20 20 50 0 2 9 -13 
29 15 50 30 20 100 50 0 2 12 -16 
30 15 50 0 20 100 0 0 2 8 -4 
31 30 0 30 35 20 50 0 2 10 -14 
32 35 0 0 35 0 50 0 2 14 -2 
1 15 50 0 35 100 0 1 38 4 6 25 3 -30 
2 30 0 0 35 100 0 1 38 4 25 -2 -26 -7 
3 15 0 0 35 20 0 1 38 4 1 -26 8 27 
4 15 0 0 20 100 0 1 38 4 27 -4 -30 -5 
5 20 20 0 20 50 30 1 33 4 5 16 12 14 
6 20 50 0 30 50 30 1 33 4 16 -11 15 -6 
7 20 20 30 30 50 30 1 33 4 12 9 10 11 
8 20 20 0 30 20 30 1 33 4 8 -14 9 13 
9 30 20 0 30 50 30 1 33 4 7 -13 10 15 
10 30 50 0 35 100 50 0 4 15 25 -23 -24 
11 15 50 0 20 100 50 0 4 30 -22 -29 -16 
12 15 0 0 20 20 50 0 4 14 27 -21 -28 
13 30 0 0 35 20 50 0 4 26 -32 -31 13 
14 15 50 30 35 100 50 0 4 24 19 -29 -11 
15 15 0 30 20 100 50 0 4 29 20 -28 -12 
16 15 0 30 35 20 50 0 4 28 17 -31 -9 
17 30 0 30 35 100 50 0 4 31 18 -24 -10 
18 15 100 0 35 100 50 1 35 4 23 3 -22 -19 
19 15 0 0 15 100 50 1 36 4 22 4 -21 -20 
20 15 0 0 35 0 50 1 34 4 21 1 -32 -17 
21 35 0 0 35 100 50 1 36 4 32 2 -23 -18 
22 15 0 50 35 100 50 1 37 4 20 17 18 19 
1 30 0 0 35 100 50 1 39 6 21 2 9 13 10 17 
2 15 0 30 35 100 50 1 39 6 22 15 16 14 17 7 
3 15 0 0 35 20 50 1 39 6 3 20 8 13 16 12 
4 15 0 0 20 100 50 1 39 6 19 4 5 12 15 11 
5 15 50 0 35 100 50 1 39 6 14 6 1 18 10 11 
$EndEntities
$Nodes
75 712 1 712
0 1 0 1
1
15 0 0
0 2 0 1
2
35 0 0
0 3 0 1
3
35 100 0
0 4 0 1
4
15 100 0
0 5 0 1
5
20 20 0
0 6 0 1
6
30 20 0
0 7 0 1
7
30 50 0
0 8 0 1
8
20 50 0
0 9 0 1
9
20 20 30
0 10 0 1
10
30 20 30
0 11 0 1
11
30 50 30
0 12 0 1
12
20 50 30
0 13 0 1
13
15 0 50
0 14 0 1
14
35 0 50
0 15 0 1
15
35 100 50
0 16 0 1
16
15 100 50
1 1 0 3
17
18
19
20.00000000000001 0 0
25.00000000000001 0 0
30 0 0
1 2 0 3
20
21
22
35 24.99999999988813 0
35 49.99999999982364 0
35 74.99999999986325 0
1 3 0 3
23
24
25
29.99999999999999 100 0
24.99999999999999 100 0
20 100 0
1 4 0 3
26
27
28
15 75.00000000017764 0
15 50.00000000025813 0
15 25.00000000017762 0
1 5 0 3
29
30
31
20 27.49999999997605 0
20 34.9999999998716 0
20 42.49999999993511 0
1 6 0 3
32
33
34
22.5 50 0
25 50 0
27.5 50 0
1 7 0 3
35
36
37
30 42.50000000005308 0
30 35.00000000010476 0
30 27.50000000003572 0
1 8 0 3
38
39
40
27.5 20 0
25 20 0
22.5 20 0
1 9 0 3
41
42
43
22.5 20 30
25 20 30
27.5 20 30
1 10 0 3
44
45
46
30 27.49999999997605 30
30 34.9999999998716 30
30 42.49999999993511 30
1 11 0 3
47
48
49
27.5 50 30
25 50 30
22.5 50 30
1 12 0 3
50
51
52
20 42.50000000005308 30
20 35.00000000010476 30
20 27.50000000003572 30
1 13 0 3
53
54
55
30 20 22.49999999998108
30 20 15.00000000003744
30 20 7.500000000018893
1 14 0 3
56
57
58
20 20 22.49999999998108
20 20 15.00000000003744
20 20 7.500000000018893
1 15 0 3
59
60
61
30 50 22.49999999998108
30 50 15.00000000003744
30 50 7.500000000018893
1 16 0 3
62
63
64
20 50 7.499999999996563
20 50 14.99999999996962
20 50 22.49999999998463
1 17 0 3
65
66
67
20.00000000000001 0 50
25.00000000000001 0 50
30 0 50
1 18 0 3
68
69
70
35 24.99999999988813 50
35 49.99999999982364 50
35 74.99999999986325 50
1 19 0 3
71
72
73
29.99999999999999 100 50
24.99999999999999 100 50
20 100 50
1 20 0 3
74
75
76
15 75.00000000017764 50
15 50.00000000025813 50
15 25.00000000017762 50
1 21 0 3
77
78
79
15 0 37.50000000008882
15 0 25.00000000012906
15 0 12.50000000008881
1 22 0 3
80
81
82
15 100 37.50000000008882
15 100 25.00000000012906
15 100 12.50000000008881
1 23 0 3
83
84
85
35 100 37.50000000008882
35 100 25.00000000012906
35 100 12.50000000008881
1 24 0 6
86
87
88
89
90
91
30.03937008485762 50.39370084857615 30.15748033943046
30.11811022979288 51.18110229792879 30.47244091917151
30.27559054460928 52.75590544609285 31.10236217843714
30.59055117446331 55.90551174463316 32.36220469785327
31.22047243461381 62.20472434613815 34.88188973845526
32.48031495579968 74.80314955799687 39.92125982319875
1 25 0 6
92
93
94
95
96
97
30.03937008485759 50.39370084857593 0
30.11811022979279 51.18110229792795 0
30.27559054460903 52.75590544609035 0
30.59055117446265 55.90551174462649 0
31.22047243461215 62.20472434612148 0
32.48031495579568 74.80314955795684 0
1 26 0 6
98
99
100
101
102
103
30.03937008485774 19.84251966056902 0
30.11811022979341 19.52755908082639 0
30.27559054461086 18.89763782155656 0
30.59055117446752 17.63779530212993 0
31.22047243462432 15.11811026150272 0
32.48031495582489 10.07874017670041 0
1 27 0 6
104
105
106
107
108
109
19.96062991514226 19.84251966056904 0
19.88188977020662 19.52755908082648 0
19.72440945538921 18.89763782155685 0
19.40944882553268 17.63779530213071 0
18.77952756537617 15.11811026150468 0
17.5196850441763 10.07874017670521 0
1 28 0 6
110
111
112
113
114
115
19.96062991514226 19.84251966056903 30.15748033943097
19.88188977020661 19.52755908082644 30.47244091917356
19.72440945538917 18.8976378215567 31.1023621784433
19.40944882553258 17.63779530213032 32.36220469786969
18.77952756537592 15.11811026150369 34.88188973849631
17.51968504417571 10.07874017670283 39.92125982329718
1 29 0 6
116
117
118
119
120
121
19.96062991514239 50.39370084857613 30.15748033943045
19.88188977020712 51.18110229792875 30.4724409191715
19.72440945539073 52.75590544609273 31.10236217843709
19.40944882553671 55.90551174463285 32.36220469785314
18.77952756538626 62.20472434613742 34.88188973845497
17.51968504420048 74.80314955799517 39.92125982319807
1 30 0 6
122
123
124
125
126
127
19.96062991514241 50.39370084857593 0
19.88188977020721 51.18110229792791 0
19.72440945539098 52.75590544609022 0
19.40944882553739 55.90551174462615 0
18.77952756538794 62.20472434612063 0
17.5196850442045 74.80314955795498 0
1 31 0 6
128
129
130
131
132
133
30.03937008485774 19.84251966056902 30.15748033943098
30.11811022979341 19.52755908082639 30.47244091917361
30.27559054461086 18.89763782155656 31.10236217844344
30.59055117446752 17.63779530212993 32.36220469787007
31.22047243462432 15.11811026150272 34.88188973849728
32.48031495582489 10.07874017670041 39.92125982329959
1 32 0 3
134
135
136
35 0 37.50000000008882
35 0 25.00000000012906
35 0 12.50000000008881
2 1 0 18
137
138
139
140
141
142
143
144
145
146
147
148
149
150
151
152
153
154
22.48031495757121 50.39370084857594 0
22.44094488510361 51.18110229792794 0
22.36220472769549 52.75590544609025 0
22.20472441276871 55.90551174462624 0
21.88976378269399 62.20472434612084 0
21.2598425221023 74.80314955795544 0
25.00000000000001 50.39370084857594 0
25 51.18110229792792 0
25 52.7559054460903 0
25.00000000000001 55.90551174462632 0
25.00000000000004 62.20472434612105 0
25.00000000000009 74.80314955795592 0
27.51968504242879 50.39370084857593 0
27.5590551148964 51.18110229792792 0
27.63779527230452 52.75590544609032 0
27.79527558723133 55.9055117446264 0
28.1102362173061 62.20472434612127 0
28.74015747789787 74.80314955795637 0
2 2 0 18
155
156
157
158
159
160
161
162
163
164
165
166
167
168
169
170
171
172
30.03937008485764 42.75590555162578 0
30.03937008485768 35.11811025467501 0
30.03937008485771 27.4803149576053 0
30.11811022979295 43.26771649370114 0
30.11811022979311 35.35433068947528 0
30.11811022979325 27.440944885134 0
30.2755905446095 44.29133853999951 0
30.27559054460995 35.82677163391271 0
30.2755905446104 27.36220472771758 0
30.59055117446386 46.33858263403301 0
30.59055117446508 36.77165352344976 0
30.5905511744663 27.20472441277235 0
31.2204724346152 50.43307082497351 0
31.22047243461823 38.66141730384824 0
31.22047243462128 26.88976378265709 0
32.48031495580299 58.62204721260162 0
32.48031495581028 42.44094486729392 0
32.48031495581758 26.25984252197702 0
2 3 0 18
173
174
175
176
177
178
179
180
181
182
183
184
185
186
187
188
189
190
21.25984252208846 10.07874017670401 0
21.88976378268821 15.11811026150419 0
22.20472441276638 17.63779530213051 0
22.36220472769463 18.89763782155678 0
22.44094488510332 19.52755908082646 0
22.48031495757113 19.84251966056903 0
25.0000000000006 10.07874017670281 0
25.00000000000025 15.1181102615037 0
25.0000000000001 17.63779530213032 0
25.00000000000004 18.89763782155671 0
25.00000000000001 19.52755908082644 0
25 19.84251966056903 0
28.74015747791275 10.07874017670161 0
28.11023621731228 15.11811026150321 0
27.79527558723381 17.63779530213013 0
27.63779527230544 18.89763782155664 0
27.5590551148967 19.52755908082641 0
27.51968504242887 19.84251966056902 0
2 4 0 18
191
192
193
194
195
196
197
198
199
200
201
202
203
204
205
206
207
208
19.96062991514229 27.4803149575484 0
19.96062991514233 35.11811025444713 0
19.96062991514237 42.75590555151124 0
19.88188977020677 27.44094488508265 0
19.88188977020691 35.35433068925792 0
19.88188977020706 43.2677164935934 0
19.72440945538965 27.36220472767736 0
19.7244094553901 35.82677163371645 0
19.72440945539054 44.29133853990536 0
19.40944882553386 27.20472441275443 0
19.40944882553503 36.77165352329568 0
19.40944882553621 46.33858263396604 0
18.77952756537911 26.88976378268393 0
18.77952756538205 38.66141730377862 0
18.779527565385 50.43307082496095 0
17.51968504418335 26.2598425220937 0
17.5196850441904 42.44094486739343 0
17.51968504419744 58.62204721269796 0
2 5 0 9
209
210
211
212
213
214
215
216
217
20 27.49999999999097 7.500000000013311
20 27.50000000000588 15.00000000002049
20 27.50000000002079 22.49999999998197
20 34.9999999999299 7.500000000007729
20 34.99999999998818 15.00000000000353
20 35.00000000004648 22.49999999998285
20 42.49999999996459 7.500000000002144
20 42.4999999999941 14.99999999998657
20 42.50000000002359 22.49999999998375
2 6 0 9
218
219
220
221
222
223
224
225
226
22.5 50 7.500000000002147
25 50 7.500000000007729
27.5 50 7.500000000013311
22.50000000000001 50 14.99999999998657
25 50 15.00000000000353
27.5 50 15.00000000002049
22.5 50 22.49999999998374
25 50 22.49999999998285
27.5 50 22.49999999998197
2 7 0 9
227
228
229
230
231
232
233
234
235
22.50000000000001 42.5000000000236 30
25 42.4999999999941 30
27.5 42.49999999996461 30
22.50000000000001 35.00000000004648 30
25 34.99999999998818 30
27.5 34.99999999992989 30
22.50000000000001 27.50000000002081 30
25 27.50000000000589 30
27.5 27.49999999999098 30
2 8 0 9
236
237
238
239
240
241
242
243
244
27.49999999999999 20 7.500000000018893
27.5 20 15.00000000003744
27.5 20 22.49999999998108
25 20 7.500000000018893
25 20 15.00000000003744
25 20 22.49999999998108
22.5 20 7.500000000018893
22.5 20 15.00000000003744
22.50000000000001 20 22.49999999998108
2 9 0 9
245
246
247
248
249
250
251
252
253
30 42.5000000000236 7.500000000018894
30 42.4999999999941 15.00000000003745
30 42.49999999996459 22.49999999998108
30 35.00000000004648 7.500000000018893
30 34.99999999998818 15.00000000003744
30 34.99999999992989 22.49999999998108
30 27.5000000000208 7.500000000018893
30 27.50000000000589 15.00000000003744
30 27.49999999999097 22.49999999998108
2 10 0 18
254
255
256
257
258
259
260
261
262
263
264
265
266
267
268
269
270
271
30.03937008485761 50.3937008485761 22.61811025455477
30.11811022979286 51.18110229792858 22.85433068936226
30.27559054460922 52.75590544609221 23.32677163381488
30.59055117446315 55.9055117446315 24.27165352338375
31.2204724346134 62.20472434613399 26.16141730384882
32.48031495579868 74.80314955798684 29.94094486743359
30.0393700848576 50.39370084857604 15.07874016975339
30.11811022979284 51.18110229792838 15.23622045962536
30.27559054460916 52.75590544609158 15.55118108926106
30.59055117446298 55.90551174462983 16.1811023489749
31.22047243461298 62.20472434612981 17.44094486928743
32.48031495579768 74.80314955797685 19.96062991168226
30.0393700848576 50.39370084857599 7.539370084877056
30.11811022979282 51.18110229792816 7.618110229813423
30.27559054460909 52.75590544609097 7.775590544632033
30.59055117446282 55.90551174462817 8.090551174490471
31.22047243461256 62.20472434612565 8.720472434649775
32.48031495579669 74.80314955796686 9.980314955853261
2 11 0 18
272
273
274
275
276
277
278
279
280
281
282
283
284
285
286
287
288
289
19.9606299151424 50.39370084857598 7.539370084854903
19.96062991514239 50.39370084857603 15.0787401696861
19.96062991514239 50.39370084857607 22.6181102545583
19.88188977020719 51.18110229792811 7.618110229791617
19.88188977020716 51.18110229792833 15.23622045955914
19.88188977020714 51.18110229792854 22.85433068936572
19.72440945539092 52.75590544609083 7.77559054461092
19.72440945539084 52.75590544609148 15.55118108919696
19.72440945539078 52.75590544609211 23.32677163381819
19.40944882553722 55.90551174462781 8.090551174470743
19.40944882553704 55.90551174462951 16.18110234891503
19.40944882553688 55.90551174463118 24.27165352338679
18.77952756538751 62.20472434612483 8.720472434632821
18.77952756538709 62.20472434612903 17.44094486923602
18.77952756538667 62.20472434613323 26.16141730385129
17.51968504420349 74.80314955796506 9.980314955841843
17.51968504420249 74.80314955797509 19.96062991164775
17.51968504420148 74.80314955798512 29.94094486743487
2 12 0 18
290
291
292
293
294
295
296
297
298
299
300
301
302
303
304
305
306
307
19.96062991514226 19.84251966056903 22.61811025455514
19.88188977020661 19.52755908082645 22.8543306893638
19.72440945538918 18.89763782155674 23.32677163381949
19.4094488255326 17.63779530213041 24.27165352339606
18.77952756537599 15.11811026150394 26.16141730387961
17.51968504417585 10.07874017670342 29.94094486750741
19.96062991514226 19.84251966056904 15.07874016975365
19.88188977020661 19.52755908082646 15.23622045962639
19.72440945538919 18.89763782155677 15.55118108926414
19.40944882553263 17.63779530213052 16.1811023489831
18.77952756537605 15.11811026150419 17.44094486930796
17.519685044176 10.07874017670401 19.96062991173148
19.96062991514226 19.84251966056904 7.539370084877186
19.88188977020662 19.52755908082647 7.618110229813935
19.7244094553892 18.89763782155681 7.77559054463357
19.40944882553265 17.63779530213061 8.090551174494573
18.77952756537611 15.11811026150443 8.720472434660037
17.51968504417615 10.07874017670461 9.980314955877871
2 13 0 18
308
309
310
311
312
313
314
315
316
317
318
319
320
321
322
323
324
325
30.03937008485775 19.84251966056902 7.539370084877189
30.03937008485775 19.84251966056902 15.07874016975365
30.03937008485775 19.84251966056902 22.61811025455516
30.11811022979341 19.52755908082639 7.618110229813949
30.11811022979341 19.52755908082639 15.23622045962641
30.11811022979341 19.52755908082639 22.85433068936384
30.27559054461086 18.89763782155657 7.775590544633609
30.27559054461086 18.89763782155656 15.55118108926421
30.27559054461086 18.89763782155656 23.3267716338196
30.59055117446752 17.63779530212993 8.090551174494669
30.59055117446752 17.63779530212993 16.1811023489833
30.59055117446752 17.63779530212993 24.27165352339635
31.22047243462432 15.11811026150272 8.720472434660278
31.22047243462432 15.11811026150272 17.44094486930845
31.22047243462432 15.11811026150272 26.16141730388034
32.48031495582489 10.07874017670041 9.980314955878473
32.48031495582489 10.07874017670041 19.96062991173268
32.48031495582489 10.07874017670042 29.94094486750922
2 14 0 18
326
327
328
329
330
331
332
333
334
335
336
337
338
339
340
341
342
343
27.5196850424288 50.39370084857612 30.15748033943044
25 50.39370084857613 30.15748033943045
22.4803149575712 50.3937008485761 30.15748033943044
27.55905511489644 51.18110229792876 30.4724409191715
25 51.18110229792875 30.4724409191715
22.44094488510356 51.18110229792875 30.4724409191715
27.63779527230464 52.7559054460928 31.10236217843712
25 52.75590544609278 31.1023621784371
22.36220472769537 52.75590544609274 31.1023621784371
27.79527558723166 55.90551174463307 32.36220469785322
25.00000000000001 55.905511744633 32.36220469785319
22.20472441276836 55.90551174463291 32.36220469785316
28.11023621730692 62.20472434613794 34.88188973845517
25.00000000000004 62.20472434613776 34.8818897384551
21.88976378269314 62.20472434613757 34.88188973845503
28.74015747789988 74.80314955799641 39.92125982319855
25.00000000000008 74.80314955799599 39.9212598231984
21.25984252210028 74.80314955799557 39.92125982319823
2 15 0 18
344
345
346
347
348
349
350
351
352
353
354
355
356
357
358
359
360
361
19.96062991514235 42.7559055516284 30.15748033943058
19.96062991514232 35.11811025467853 30.15748033943071
19.96062991514229 27.48031495760764 30.15748033943083
19.88188977020699 43.26771649370918 30.47244091917202
19.88188977020686 35.35433068948597 30.47244091917253
19.88188977020673 27.44094488514108 30.47244091917305
19.72440945539034 44.29133854001866 31.10236217843863
19.72440945538995 35.82677163393792 31.10236217844019
19.72440945538956 27.36220472773425 31.10236217844175
19.40944882553568 46.338582634075 32.36220469785728
19.40944882553464 36.77165352350444 32.36220469786142
19.40944882553361 27.20472441280842 32.36220469786555
18.77952756538367 50.43307082506244 34.8818897384653
18.77952756538109 38.66141730396274 34.88188973847562
18.7795275653785 26.88976378273248 34.88188973848597
17.51968504419429 58.62204721278695 39.92125982322285
17.51968504418809 42.44094486752983 39.92125982324762
17.51968504418189 26.25984252213201 39.92125982327241
2 16 0 18
362
363
364
365
366
367
368
369
370
371
372
373
374
375
376
377
378
379
22.48031495757114 19.84251966056903 30.15748033943096
25 19.84251966056901 30.15748033943098
27.51968504242887 19.84251966056902 30.15748033943097
22.44094488510331 19.52755908082642 30.47244091917358
25.00000000000001 19.52755908082641 30.47244091917358
27.5590551148967 19.5275590808264 30.4724409191736
22.3622047276946 18.89763782155666 31.10236217844333
25.00000000000002 18.89763782155663 31.10236217844336
27.63779527230544 18.89763782155659 31.1023621784434
22.20472441276631 17.63779530213021 32.36220469786978
25.00000000000005 17.63779530213013 32.36220469786986
27.79527558723379 17.63779530213002 32.36220469786997
21.88976378268803 15.11811026150345 34.88188973849655
25.00000000000012 15.1181102615032 34.88188973849679
28.11023621731222 15.11811026150296 34.88188973849703
21.25984252208801 10.07874017670223 39.92125982329777
25.0000000000003 10.07874017670162 39.92125982329838
28.7401574779126 10.07874017670102 39.92125982329897
2 17 0 18
380
381
382
383
384
385
386
387
388
389
390
391
392
393
394
395
396
397
30.03937008485772 27.48031495754616 30.15748033943086
30.03937008485769 35.11811025444381 30.15748033943072
30.03937008485765 42.75590555150891 30.15748033943059
30.11811022979328 27.44094488507596 30.47244091917309
30.11811022979315 35.35433068924807 30.47244091917257
30.11811022979301 43.2677164935866 30.47244091917203
30.27559054461047 27.36220472766184 31.10236217844187
30.27559054461008 35.82677163369365 31.10236217844029
30.27559054460968 44.29133853988991 31.10236217843872
30.59055117446647 27.2047244127214 32.36220469786587
30.59055117446542 36.77165352324749 32.36220469786167
30.59055117446437 46.33858263393397 32.36220469785746
31.2204724346217 26.88976378261617 34.88188973848677
31.22047243461907 38.66141730368035 34.88188973847627
31.22047243461645 50.43307082489687 34.88188973846577
32.4803149558186 26.25984252195696 39.92125982327438
32.4803149558123 42.44094486719646 39.92125982324917
32.48031495580599 58.62204721257223 39.92125982322396
2 18 0 9
398
399
400
401
402
403
404
405
406
29.99999999999999 100 37.5000000000888
25 100 37.5000000000888
20 100 37.5000000000888
29.99999999999999 100 25.00000000012906
25 100 25.00000000012906
20 100 25.00000000012906
29.99999999999999 100 12.50000000008881
25 100 12.50000000008881
20 100 12.50000000008881
2 19 0 9
407
408
409
410
411
412
413
414
415
15 75.00000000017764 37.50000000008882
15 50.00000000025813 37.50000000008882
15 25.00000000017762 37.50000000008882
15 75.00000000017764 25.00000000012906
15 50.00000000025813 25.00000000012906
15 25.00000000017762 25.00000000012906
15 75.00000000017764 12.50000000008881
15 50.00000000025813 12.50000000008881
15 25.00000000017762 12.50000000008881
2 20 0 9
416
417
418
419
420
421
422
423
424
20.00000000000001 0 37.5000000000888
25.00000000000001 0 37.5000000000888
30 0 37.5000000000888
20.00000000000001 0 25.00000000012906
25.00000000000001 0 25.00000000012906
30 0 25.00000000012906
20.00000000000001 0 12.50000000008881
25.00000000000001 0 12.50000000008881
30 0 12.50000000008881
2 21 0 9
425
426
427
428
429
430
431
432
433
35 24.99999999988813 37.50000000008882
35 49.99999999982365 37.50000000008882
35 74.99999999986325 37.50000000008882
35 24.99999999988813 25.00000000012907
35 49.99999999982364 25.00000000012906
35 74.99999999986325 25.00000000012906
35 24.99999999988813 12.50000000008881
35 49.99999999982364 12.50000000008881
35 74.99999999986325 12.50000000008881
2 22 0 9
434
435
436
437
438
439
440
441
442
20 75.00000000009905 50
25 75.00000000002042 50
30 74.99999999994181 50
20 50.00000000014949 50
25 50.00000000004088 50
30 49.99999999993225 50
20.00000000000001 25.00000000010524 50
25 25.00000000003287 50
29.99999999999999 24.99999999996049 50
3 1 0 54
443
444
445
446
447
448
449
450
451
452
453
454
455
456
457
458
459
460
461
462
463
464
465
466
467
468
469
470
471
472
473
474
475
476
477
478
479
480
481
482
483
484
485
486
487
488
489
490
491
492
493
494
495
496
32.48031495581834 26.25984252196197 29.94094486749032
31.2204724346216 26.88976378262641 26.16141730387245
30.59055117446644 27.20472441273414 24.27165352339319
30.27559054461046 27.36220472767577 23.32677163381841
30.11811022979328 27.44094488509048 22.85433068936345
30.03937008485771 27.48031495756096 22.61811025455506
32.48031495581178 42.44094486722082 29.94094486747139
31.22047243461886 38.66141730372233 26.16141730386458
30.59055117446535 36.77165352329803 24.27165352339005
30.27559054461004 35.82677163374842 23.32677163381723
30.11811022979315 35.35433068930486 22.85433068936305
30.03937008485769 35.11811025450162 22.61811025455497
32.48031495580526 58.62204721257955 29.94094486745249
31.22047243461612 50.43307082491603 26.1614173038567
30.59055117446425 46.33858263395869 24.27165352338689
30.27559054460964 44.29133853991731 23.32677163381606
30.118110229793 43.26771649361521 22.85433068936265
30.03937008485764 42.75590555153811 22.61811025455489
32.48031495581807 26.259842521967 19.96062991172009
31.22047243462149 26.88976378263664 17.4409448693032
30.59055117446638 27.20472441274688 16.1811023489812
30.27559054461044 27.36220472768972 15.55118108926343
30.11811022979328 27.44094488510499 15.23622045962615
30.0393700848577 27.48031495757574 15.07874016975359
32.48031495581131 42.44094486724518 19.96062991170747
31.22047243461864 38.6614173037643 17.44094486929795
30.59055117446526 36.77165352334864 16.1811023489791
30.27559054461001 35.82677163380318 15.55118108926263
30.11811022979314 35.35433068936169 15.23622045962589
30.03937008485769 35.11811025455941 15.07874016975353
32.4803149558045 58.62204721258688 19.96062991169488
31.22047243461582 50.43307082493518 17.4409448692927
30.59055117446412 46.33858263398348 16.18110234897699
30.27559054460959 44.29133853994468 15.55118108926185
30.118110229793 43.26771649364387 15.23622045962562
30.03937008485764 42.75590555156735 15.07874016975346
32.48031495581785 26.25984252197201 9.980314955872169
31.22047243462138 26.88976378264686 8.720472434657651
30.59055117446635 27.20472441275962 8.090551174493619
30.27559054461041 27.36220472770365 7.775590544633213
30.11811022979326 27.4409448851195 7.618110229813817
30.03937008485771 27.48031495759052 7.539370084877158
32.48031495581081 42.44094486726956 9.980314955865866
31.22047243461844 38.66141730380627 8.720472434655035
30.59055117446519 36.77165352339919 8.090551174492571
30.27559054460998 35.82677163385796 7.775590544632822
30.11811022979312 35.35433068941849 7.618110229813686
30.0393700848577 35.11811025461722 7.539370084877122
32.48031495580373 58.62204721259427 9.980314955859566
31.22047243461551 50.43307082495436 8.720472434652407
30.590551174464 46.33858263400825 8.090551174491523
30.27559054460954 44.29133853997213 7.775590544632426
30.11811022979298 43.26771649367248 7.618110229813555
30.03937008485764 42.75590555159657 7.539370084877092
3 2 0 54
497
498
499
500
501
502
503
504
505
506
507
508
509
510
511
512
513
514
515
516
517
518
519
520
521
522
523
524
525
526
527
528
529
530
531
532
533
534
535
536
537
538
539
540
541
542
543
544
545
546
547
548
549
550
21.25984252209722 58.62204721273324 39.92125982322312
21.88976378269187 50.43307082502102 34.88188973846543
22.20472441276785 46.33858263403973 32.36220469785734
22.36220472769518 44.29133853998647 31.10236217843865
22.4409448851035 43.26771649367855 30.47244091917202
22.48031495757119 42.75590555159852 30.15748033943058
25.00000000000015 58.62204721267955 39.92125982322342
25.00000000000006 50.43307082497959 34.88188973846553
25.00000000000001 46.33858263400445 32.36220469785736
25.00000000000001 44.29133853995429 31.10236217843866
24.99999999999999 43.26771649364787 30.47244091917202
24.99999999999999 42.75590555156865 30.15748033943058
28.74015747790308 58.62204721262583 39.92125982322366
28.11023621730826 50.43307082493826 34.88188973846563
27.7952755872322 46.33858263396922 32.36220469785739
27.63779527230484 44.29133853992208 31.10236217843869
27.55905511489651 43.2677164936172 30.47244091917202
27.51968504242883 42.75590555153876 30.15748033943059
21.25984252209416 42.44094486744646 39.92125982324799
21.88976378269059 38.66141730389212 34.88188973847578
22.20472441276734 36.7716535234402 32.36220469786149
22.36220472769499 35.82677163387684 31.10236217844022
22.44094488510344 35.35433068942649 30.47244091917254
22.48031495757118 35.11811025461984 30.15748033943071
25.0000000000002 42.44094486736314 39.92125982324836
25.00000000000009 38.66141730382152 34.88188973847596
25.00000000000002 36.77165352337598 32.36220469786153
25.00000000000001 35.8267716338158 31.10236217844022
25.00000000000001 35.35433068936702 30.47244091917254
25 35.11811025456115 30.15748033943072
28.74015747790625 42.4409448672798 39.92125982324875
28.11023621730957 38.6614173037509 34.88188973847609
27.79527558723274 36.77165352331171 32.36220469786159
27.63779527230504 35.82677163375469 31.10236217844026
27.55905511489657 35.35433068930753 30.47244091917256
27.51968504242884 35.11811025450248 30.15748033943071
21.25984252209109 26.25984252208825 39.92125982327288
21.88976378268932 26.88976378270338 34.88188973848616
22.20472441276681 27.20472441278666 32.36220469786562
22.36220472769479 27.36220472771615 31.10236217844177
22.44094488510337 27.4409448851248 30.47244091917305
22.48031495757115 27.48031495759226 30.15748033943083
25.00000000000025 26.25984252204449 39.92125982327338
25.00000000000011 26.88976378267433 34.88188973848635
25.00000000000004 27.20472441276491 32.36220469786571
25.00000000000001 27.36220472769805 31.10236217844179
25 27.44094488510851 30.47244091917305
25 27.48031495757688 30.15748033943084
28.74015747790943 26.25984252200072 39.92125982327387
28.11023621731089 26.88976378264523 34.88188973848655
27.79527558723327 27.20472441274315 32.36220469786576
27.63779527230525 27.36220472767995 31.10236217844183
27.55905511489665 27.44094488509225 30.47244091917307
27.51968504242887 27.48031495756155 30.15748033943085
3 3 0 54
551
552
553
554
555
556
557
558
559
560
561
562
563
564
565
566
567
568
569
570
571
572
573
574
575
576
577
578
579
580
581
582
583
584
585
586
587
588
589
590
591
592
593
594
595
596
597
598
599
600
601
602
603
604
21.25984252208834 10.07874017670357 9.980314955878018
21.25984252208823 10.07874017670311 19.96062991173177
21.25984252208812 10.07874017670267 29.94094486750785
21.88976378268816 15.11811026150401 8.720472434660095
21.88976378268811 15.11811026150382 17.44094486930807
21.88976378268809 15.11811026150363 26.16141730387979
22.20472441276635 17.63779530213044 8.090551174494596
22.20472441276634 17.63779530213036 16.18110234898314
22.20472441276633 17.63779530213029 24.27165352339613
22.36220472769462 18.89763782155675 7.77559054463358
22.36220472769462 18.89763782155671 15.55118108926415
22.3622047276946 18.89763782155669 23.32677163381952
22.44094488510331 19.52755908082645 7.618110229813936
22.44094488510332 19.52755908082645 15.23622045962639
22.44094488510332 19.52755908082642 22.8543306893638
22.48031495757114 19.84251966056903 7.539370084877186
22.48031495757115 19.84251966056903 15.07874016975364
22.48031495757114 19.84251966056903 22.61811025455513
25.00000000000053 10.07874017670251 9.980314955878168
25.00000000000045 10.07874017670221 19.96062991173207
25.00000000000038 10.07874017670192 29.94094486750831
25.00000000000022 15.11811026150357 8.720472434660159
25.00000000000019 15.11811026150345 17.4409448693082
25.00000000000016 15.11811026150332 26.16141730387998
25.00000000000011 17.63779530213028 8.090551174494617
25.00000000000008 17.63779530213023 16.1811023489832
25.00000000000008 17.63779530213018 24.2716535233962
25.00000000000004 18.8976378215567 7.775590544633589
25.00000000000003 18.89763782155666 15.55118108926417
25.00000000000003 18.89763782155664 23.32677163381954
25.00000000000001 19.52755908082643 7.618110229813941
25.00000000000001 19.52755908082642 15.23622045962639
25.00000000000001 19.52755908082643 22.85433068936382
25.00000000000001 19.84251966056903 7.539370084877188
25.00000000000001 19.84251966056903 15.07874016975365
25.00000000000001 19.84251966056902 22.61811025455516
28.7401574779127 10.07874017670146 9.980314955878317
28.74015747791267 10.07874017670131 19.96062991173237
28.74015747791264 10.07874017670117 29.94094486750875
28.11023621731226 15.11811026150313 8.720472434660218
28.11023621731223 15.11811026150309 17.44094486930832
28.11023621731223 15.11811026150302 26.16141730388014
27.7952755872338 17.6377953021301 8.090551174494642
27.79527558723382 17.63779530213008 16.18110234898325
27.79527558723379 17.63779530213005 24.27165352339626
27.63779527230544 18.89763782155663 7.775590544633596
27.63779527230543 18.89763782155662 15.55118108926419
27.63779527230542 18.8976378215566 23.32677163381956
27.5590551148967 19.52755908082641 7.618110229813943
27.5590551148967 19.5275590808264 15.23622045962641
27.55905511489672 19.5275590808264 22.85433068936382
27.51968504242887 19.84251966056902 7.539370084877188
27.51968504242888 19.84251966056901 15.07874016975365
27.51968504242888 19.84251966056902 22.61811025455514
3 4 0 54
605
606
607
608
609
610
611
612
613
614
615
616
617
618
619
620
621
622
623
624
625
626
627
628
629
630
631
632
633
634
635
636
637
638
639
640
641
642
643
644
645
646
647
648
649
650
651
652
653
654
655
656
657
658
17.51968504419508 58.62204721276467 29.94094486745302
18.779527565384 50.43307082503707 26.16141730385838
19.40944882553582 46.33858263404779 24.27165352338912
19.72440945539038 44.29133853999034 23.32677163381852
19.88188977020701 43.26771649368024 22.85433068936526
19.96062991514234 42.7559055515991 22.61811025455751
17.51968504418867 42.44094486749574 29.94094486747114
18.77952756538133 38.66141730391674 26.16141730386544
19.40944882553474 36.77165352345227 24.27165352339141
19.72440945538998 35.82677163388255 23.32677163381884
19.88188977020688 35.35433068942896 22.85433068936475
19.96062991514233 35.11811025462066 22.61811025455671
17.51968504418226 26.25984252212244 29.94094486748928
18.77952756537866 26.88976378272034 26.16141730387252
19.40944882553368 27.20472441279491 24.27165352339375
19.72440945538958 27.36220472772002 23.32677163381915
19.88188977020674 27.44094488512647 22.85433068936429
19.96062991514229 27.48031495759283 22.61811025455594
17.51968504419586 58.62204721274244 19.96062991166869
18.77952756538433 50.43307082501168 17.44094486925401
19.40944882553595 46.33858263402053 16.18110234893204
19.72440945539043 44.29133853996201 15.55118108921374
19.88188977020702 43.26771649365131 15.23622045957595
19.96062991514236 42.75590555156981 15.07874016970299
17.51968504418925 42.44094486746165 19.96062991168961
18.77952756538157 38.66141730387067 17.44094486927198
19.40944882553484 36.77165352340005 16.18110234894906
19.72440945539002 35.82677163382716 15.55118108923054
19.88188977020688 35.35433068937196 15.23622045959276
19.96062991514233 35.11811025456281 15.07874016971988
17.51968504418262 26.25984252211284 19.96062991171056
18.77952756537881 26.88976378270819 17.44094486928999
19.40944882553375 27.20472441278142 16.18110234896609
19.7244094553896 27.36220472770579 15.55118108924734
19.88188977020675 27.44094488511187 15.23622045960957
19.96062991514229 27.48031495757802 15.07874016973676
17.51968504419666 58.62204721272021 9.980314955850851
18.77952756538465 50.43307082498631 8.720472434639623
19.40944882553608 46.33858263399328 8.090551174476699
19.72440945539049 44.2913385399337 7.775590544616577
19.88188977020705 43.26771649362232 7.618110229797199
19.96062991514236 42.75590555154052 7.539370084860472
17.51968504418982 42.44094486742755 9.980314955859859
18.77952756538181 38.66141730382465 8.720472434646428
19.40944882553494 36.77165352334787 8.090551174482664
19.72440945539006 35.82677163377181 7.775590544622245
19.88188977020689 35.35433068931493 7.618110229802779
19.96062991514232 35.11811025450498 7.539370084866045
17.51968504418298 26.25984252210329 9.980314955868867
18.77952756537896 26.88976378269606 8.720472434653235
19.4094488255338 27.20472441276792 8.090551174488613
19.72440945538963 27.36220472769158 7.775590544627908
19.88188977020677 27.44094488509726 7.618110229808358
19.96062991514228 27.4803149575632 7.539370084871615
3 5 0 54
659
660
661
662
663
664
665
666
667
668
669
670
671
672
673
674
675
676
677
678
679
680
681
682
683
684
685
686
687
688
689
690
691
692
693
694
695
696
697
698
699
700
701
702
703
704
705
706
707
708
709
710
711
712
27.51968504242879 50.39370084857609 22.61811025455564
27.51968504242878 50.39370084857602 15.07874016973656
27.51968504242879 50.39370084857601 7.539370084871513
24.99999999999998 50.3937008485761 22.61811025455653
25 50.39370084857603 15.07874016971974
25.00000000000001 50.393700848576 7.539370084865979
22.48031495757117 50.39370084857605 22.61811025455739
22.48031495757121 50.39370084857603 15.07874016970291
22.4803149575712 50.39370084857599 7.539370084860439
27.55905511489644 51.18110229792856 22.85433068936311
27.55905511489643 51.18110229792833 15.2362204596088
27.55905511489642 51.18110229792813 7.618110229807967
24.99999999999999 51.18110229792857 22.85433068936399
25 51.18110229792835 15.23622045959224
24.99999999999999 51.18110229792815 7.61811022980252
22.44094488510356 51.18110229792855 22.85433068936485
22.44094488510357 51.18110229792833 15.23622045957568
22.44094488510359 51.18110229792815 7.618110229797067
27.63779527230459 52.75590544609218 23.3267716338157
27.63779527230457 52.75590544609156 15.55118108924503
27.63779527230454 52.75590544609095 7.77559054462675
24.99999999999999 52.75590544609214 23.32677163381651
25 52.75590544609153 15.551181089229
24.99999999999999 52.75590544609092 7.775590544621473
22.36220472769539 52.75590544609209 23.32677163381736
22.36220472769542 52.7559054460915 15.55118108921298
22.36220472769546 52.75590544609084 7.775590544616195
27.79527558723157 55.90551174463143 24.2716535233845
27.79527558723149 55.90551174462974 16.18110234895992
27.7952755872314 55.90551174462804 8.090551174485535
25.00000000000001 55.9055117446313 24.27165352338527
25.00000000000002 55.90551174462966 16.18110234894495
25.00000000000001 55.90551174462798 8.090551174480606
22.20472441276844 55.90551174463123 24.27165352338601
22.20472441276851 55.90551174462958 16.18110234892998
22.20472441276862 55.90551174462789 8.090551174475671
28.11023621730672 62.20472434613382 26.16141730384942
28.1102362173065 62.20472434612962 17.44094486927457
28.11023621730629 62.20472434612546 8.720472434645536
25.00000000000005 62.20472434613357 26.16141730385005
25.00000000000002 62.20472434612941 17.44094486926172
25.00000000000005 62.20472434612523 8.720472434641296
21.88976378269334 62.20472434613338 26.16141730385065
21.88976378269356 62.20472434612921 17.44094486924887
21.88976378269377 62.20472434612503 8.720472434637061
28.74015747789938 74.80314955798637 29.94094486743389
28.74015747789888 74.8031495579764 19.96062991167363
28.74015747789838 74.80314955796641 9.9803149558504
25.00000000000009 74.80314955798596 29.94094486743422
25.00000000000008 74.80314955797593 19.96062991166498
25.00000000000008 74.80314955796594 9.980314955847547
21.25984252210079 74.80314955798553 29.94094486743452
21.25984252210129 74.8031495579755 19.96062991165636
21.25984252210177 74.80314955796548 9.980314955844698
$EndNodes
$Elements
19 832 1 832
2 1 3 28
1 8 32 137 122 
2 122 137 138 123 
3 123 138 139 124 
4 124 139 140 125 
5 125 140 141 126 
6 126 141 142 127 
7 127 142 25 4 
8 32 33 143 137 
9 137 143 144 138 
10 138 144 145 139 
11 139 145 146 140 
12 140 146 147 141 
13 141 147 148 142 
14 142 148 24 25 
15 33 34 149 143 
16 143 149 150 144 
17 144 150 151 145 
18 145 151 152 146 
19 146 152 153 147 
20 147 153 154 148 
21 148 154 23 24 
22 34 7 92 149 
23 149 92 93 150 
24 150 93 94 151 
25 151 94 95 152 
26 152 95 96 153 
27 153 96 97 154 
28 154 97 3 23 
2 2 3 28
29 7 92 155 35 
30 35 155 156 36 
31 36 156 157 37 
32 37 157 98 6 
33 92 93 158 155 
34 155 158 159 156 
35 156 159 160 157 
36 157 160 99 98 
37 93 94 161 158 
38 158 161 162 159 
39 159 162 163 160 
40 160 163 100 99 
41 94 95 164 161 
42 161 164 165 162 
43 162 165 166 163 
44 163 166 101 100 
45 95 96 167 164 
46 164 167 168 165 
47 165 168 169 166 
48 166 169 102 101 
49 96 97 170 167 
50 167 170 171 168 
51 168 171 172 169 
52 169 172 103 102 
53 97 3 22 170 
54 170 22 21 171 
55 171 21 20 172 
56 172 20 2 103 
2 3 3 28
57 1 17 173 109 
58 109 173 174 108 
59 108 174 175 107 
60 107 175 176 106 
61 106 176 177 105 
62 105 177 178 104 
63 104 178 40 5 
64 17 18 179 173 
65 173 179 180 174 
66 174 180 181 175 
67 175 181 182 176 
68 176 182 183 177 
69 177 183 184 178 
70 178 184 39 40 
71 18 19 185 179 
72 179 185 186 180 
73 180 186 187 181 
74 181 187 188 182 
75 182 188 189 183 
76 183 189 190 184 
77 184 190 38 39 
78 19 2 103 185 
79 185 103 102 186 
80 186 102 101 187 
81 187 101 100 188 
82 188 100 99 189 
83 189 99 98 190 
84 190 98 6 38 
2 4 3 28
85 5 104 191 29 
86 29 191 192 30 
87 30 192 193 31 
88 31 193 122 8 
89 104 105 194 191 
90 191 194 195 192 
91 192 195 196 193 
92 193 196 123 122 
93 105 106 197 194 
94 194 197 198 195 
95 195 198 199 196 
96 196 199 124 123 
97 106 107 200 197 
98 197 200 201 198 
99 198 201 202 199 
100 199 202 125 124 
101 107 108 203 200 
102 200 203 204 201 
103 201 204 205 202 
104 202 205 126 125 
105 108 109 206 203 
106 203 206 207 204 
107 204 207 208 205 
108 205 208 127 126 
109 109 1 28 206 
110 206 28 27 207 
111 207 27 26 208 
112 208 26 4 127 
2 5 3 16
113 5 29 209 58 
114 58 209 210 57 
115 57 210 211 56 
116 56 211 52 9 
117 29 30 212 209 
118 209 212 213 210 
119 210 213 214 211 
120 211 214 51 52 
121 30 31 215 212 
122 212 215 216 213 
123 213 216 217 214 
124 214 217 50 51 
125 31 8 62 215 
126 215 62 63 216 
127 216 63 64 217 
128 217 64 12 50 
2 6 3 16
129 8 62 218 32 
130 32 218 219 33 
131 33 219 220 34 
132 34 220 61 7 
133 62 63 221 218 
134 218 221 222 219 
135 219 222 223 220 
136 220 223 60 61 
137 63 64 224 221 
138 221 224 225 222 
139 222 225 226 223 
140 223 226 59 60 
141 64 12 49 224 
142 224 49 48 225 
143 225 48 47 226 
144 226 47 11 59 
2 7 3 16
145 12 50 227 49 
146 49 227 228 48 
147 48 228 229 47 
148 47 229 46 11 
149 50 51 230 227 
150 227 230 231 228 
151 228 231 232 229 
152 229 232 45 46 
153 51 52 233 230 
154 230 233 234 231 
155 231 234 235 232 
156 232 235 44 45 
157 52 9 41 233 
158 233 41 42 234 
159 234 42 43 235 
160 235 43 10 44 
2 8 3 16
161 6 38 236 55 
162 55 236 237 54 
163 54 237 238 53 
164 53 238 43 10 
165 38 39 239 236 
166 236 239 240 237 
167 237 240 241 238 
168 238 241 42 43 
169 39 40 242 239 
170 239 242 243 240 
171 240 243 244 241 
172 241 244 41 42 
173 40 5 58 242 
174 242 58 57 243 
175 243 57 56 244 
176 244 56 9 41 
2 9 3 16
177 7 35 245 61 
178 61 245 246 60 
179 60 246 247 59 
180 59 247 46 11 
181 35 36 248 245 
182 245 248 249 246 
183 246 249 250 247 
184 247 250 45 46 
185 36 37 251 248 
186 248 251 252 249 
187 249 252 253 250 
188 250 253 44 45 
189 37 6 55 251 
190 251 55 54 252 
191 252 54 53 253 
192 253 53 10 44 
2 18 3 16
193 15 83 398 71 
194 71 398 399 72 
195 72 399 400 73 
196 73 400 80 16 
197 83 84 401 398 
198 398 401 402 399 
199 399 402 403 400 
200 400 403 81 80 
201 84 85 404 401 
202 401 404 405 402 
203 402 405 406 403 
204 403 406 82 81 
205 85 3 23 404 
206 404 23 24 405 
207 405 24 25 406 
208 406 25 4 82 
2 19 3 16
209 16 80 407 74 
210 74 407 408 75 
211 75 408 409 76 
212 76 409 77 13 
213 80 81 410 407 
214 407 410 411 408 
215 408 411 412 409 
216 409 412 78 77 
217 81 82 413 410 
218 410 413 414 411 
219 411 414 415 412 
220 412 415 79 78 
221 82 4 26 413 
222 413 26 27 414 
223 414 27 28 415 
224 415 28 1 79 
2 20 3 16
225 13 77 416 65 
226 65 416 417 66 
227 66 417 418 67 
228 67 418 134 14 
229 77 78 419 416 
230 416 419 420 417 
231 417 420 421 418 
232 418 421 135 134 
233 78 79 422 419 
234 419 422 423 420 
235 420 423 424 421 
236 421 424 136 135 
237 79 1 17 422 
238 422 17 18 423 
239 423 18 19 424 
240 424 19 2 136 
2 21 3 16
241 14 134 425 68 
242 68 425 426 69 
243 69 426 427 70 
244 70 427 83 15 
245 134 135 428 425 
246 425 428 429 426 
247 426 429 430 427 
248 427 430 84 83 
249 135 136 431 428 
250 428 431 432 429 
251 429 432 433 430 
252 430 433 85 84 
253 136 2 20 431 
254 431 20 21 432 
255 432 21 22 433 
256 433 22 3 85 
2 22 3 16
257 16 74 434 73 
258 73 434 435 72 
259 72 435 436 71 
260 71 436 70 15 
261 74 75 437 434 
262 434 437 438 435 
263 435 438 439 436 
264 436 439 69 70 
265 75 76 440 437 
266 437 440 441 438 
267 438 441 442 439 
268 439 442 68 69 
269 76 13 65 440 
270 440 65 66 441 
271 441 66 67 442 
272 442 67 14 68 
3 1 5 112
273 425 134 14 68 443 325 133 395 
274 443 325 133 395 444 322 132 392 
275 444 322 132 392 445 319 131 389 
276 445 319 131 389 446 316 130 386 
277 446 316 130 386 447 313 129 383 
278 447 313 129 383 448 310 128 380 
279 448 310 128 380 253 53 10 44 
280 426 425 68 69 449 443 395 396 
281 449 443 395 396 450 444 392 393 
282 450 444 392 393 451 445 389 390 
283 451 445 389 390 452 446 386 387 
284 452 446 386 387 453 447 383 384 
285 453 447 383 384 454 448 380 381 
286 454 448 380 381 250 253 44 45 
287 427 426 69 70 455 449 396 397 
288 455 449 396 397 456 450 393 394 
289 456 450 393 394 457 451 390 391 
290 457 451 390 391 458 452 387 388 
291 458 452 387 388 459 453 384 385 
292 459 453 384 385 460 454 381 382 
293 460 454 381 382 247 250 45 46 
294 83 427 70 15 259 455 397 91 
295 259 455 397 91 258 456 394 90 
296 258 456 394 90 257 457 391 89 
297 257 457 391 89 256 458 388 88 
298 256 458 388 88 255 459 385 87 
299 255 459 385 87 254 460 382 86 
300 254 460 382 86 59 247 46 11 
301 428 135 134 425 461 324 325 443 
302 461 324 325 443 462 321 322 444 
303 462 321 322 444 463 318 319 445 
304 463 318 319 445 464 315 316 446 
305 464 315 316 446 465 312 313 447 
306 465 312 313 447 466 309 310 448 
307 466 309 310 448 252 54 53 253 
308 429 428 425 426 467 461 443 449 
309 467 461 443 449 468 462 444 450 
310 468 462 444 450 469 463 445 451 
311 469 463 445 451 470 464 446 452 
312 470 464 446 452 471 465 447 453 
313 471 465 447 453 472 466 448 454 
314 472 466 448 454 249 252 253 250 
315 430 429 426 427 473 467 449 455 
316 473 467 449 455 474 468 450 456 
317 474 468 450 456 475 469 451 457 
318 475 469 451 457 476 470 452 458 
319 476 470 452 458 477 471 453 459 
320 477 471 453 459 478 472 454 460 
321 478 472 454 460 246 249 250 247 
322 84 430 427 83 265 473 455 259 
323 265 473 455 259 264 474 456 258 
324 264 474 456 258 263 475 457 257 
325 263 475 457 257 262 476 458 256 
326 262 476 458 256 261 477 459 255 
327 261 477 459 255 260 478 460 254 
328 260 478 460 254 60 246 247 59 
329 431 136 135 428 479 323 324 461 
330 479 323 324 461 480 320 321 462 
331 480 320 321 462 481 317 318 463 
332 481 317 318 463 482 314 315 464 
333 482 314 315 464 483 311 312 465 
334 483 311 312 465 484 308 309 466 
335 484 308 309 466 251 55 54 252 
336 432 431 428 429 485 479 461 467 
337 485 479 461 467 486 480 462 468 
338 486 480 462 468 487 481 463 469 
339 487 481 463 469 488 482 464 470 
340 488 482 464 470 489 483 465 471 
341 489 483 465 471 490 484 466 472 
342 490 484 466 472 248 251 252 249 
343 433 432 429 430 491 485 467 473 
344 491 485 467 473 492 486 468 474 
345 492 486 468 474 493 487 469 475 
346 493 487 469 475 494 488 470 476 
347 494 488 470 476 495 489 471 477 
348 495 489 471 477 496 490 472 478 
349 496 490 472 478 245 248 249 246 
350 85 433 430 84 271 491 473 265 
351 271 491 473 265 270 492 474 264 
352 270 492 474 264 269 493 475 263 
353 269 493 475 263 268 494 476 262 
354 268 494 476 262 267 495 477 261 
355 267 495 477 261 266 496 478 260 
356 266 496 478 260 61 245 246 60 
357 20 2 136 431 172 103 323 479 
358 172 103 323 479 169 102 320 480 
359 169 102 320 480 166 101 317 481 
360 166 101 317 481 163 100 314 482 
361 163 100 314 482 160 99 311 483 
362 160 99 311 483 157 98 308 484 
363 157 98 308 484 37 6 55 251 
364 21 20 431 432 171 172 479 485 
365 171 172 479 485 168 169 480 486 
366 168 169 480 486 165 166 481 487 
367 165 166 481 487 162 163 482 488 
368 162 163 482 488 159 160 483 489 
369 159 160 483 489 156 157 484 490 
370 156 157 484 490 36 37 251 248 
371 22 21 432 433 170 171 485 491 
372 170 171 485 491 167 168 486 492 
373 167 168 486 492 164 165 487 493 
374 164 165 487 493 161 162 488 494 
375 161 162 488 494 158 159 489 495 
376 158 159 489 495 155 156 490 496 
377 155 156 490 496 35 36 248 245 
378 3 22 433 85 97 170 491 271 
379 97 170 491 271 96 167 492 270 
380 96 167 492 270 95 164 493 269 
381 95 164 493 269 94 161 494 268 
382 94 161 494 268 93 158 495 267 
383 93 158 495 267 92 155 496 266 
384 92 155 496 266 7 35 245 61 
3 2 5 112
385 434 74 16 73 497 359 121 343 
386 497 359 121 343 498 356 120 340 
387 498 356 120 340 499 353 119 337 
388 499 353 119 337 500 350 118 334 
389 500 350 118 334 501 347 117 331 
390 501 347 117 331 502 344 116 328 
391 502 344 116 328 227 50 12 49 
392 435 434 73 72 503 497 343 342 
393 503 497 343 342 504 498 340 339 
394 504 498 340 339 505 499 337 336 
395 505 499 337 336 506 500 334 333 
396 506 500 334 333 507 501 331 330 
397 507 501 331 330 508 502 328 327 
398 508 502 328 327 228 227 49 48 
399 436 435 72 71 509 503 342 341 
400 509 503 342 341 510 504 339 338 
401 510 504 339 338 511 505 336 335 
402 511 505 336 335 512 506 333 332 
403 512 506 333 332 513 507 330 329 
404 513 507 330 329 514 508 327 326 
405 514 508 327 326 229 228 48 47 
406 70 436 71 15 397 509 341 91 
407 397 509 341 91 394 510 338 90 
408 394 510 338 90 391 511 335 89 
409 391 511 335 89 388 512 332 88 
410 388 512 332 88 385 513 329 87 
411 385 513 329 87 382 514 326 86 
412 382 514 326 86 46 229 47 11 
413 437 75 74 434 515 360 359 497 
414 515 360 359 497 516 357 356 498 
415 516 357 356 498 517 354 353 499 
416 517 354 353 499 518 351 350 500 
417 518 351 350 500 519 348 347 501 
418 519 348 347 501 520 345 344 502 
419 520 345 344 502 230 51 50 227 
420 438 437 434 435 521 515 497 503 
421 521 515 497 503 522 516 498 504 
422 522 516 498 504 523 517 499 505 
423 523 517 499 505 524 518 500 506 
424 524 518 500 506 525 519 501 507 
425 525 519 501 507 526 520 502 508 
426 526 520 502 508 231 230 227 228 
427 439 438 435 436 527 521 503 509 
428 527 521 503 509 528 522 504 510 
429 528 522 504 510 529 523 505 511 
430 529 523 505 511 530 524 506 512 
431 530 524 506 512 531 525 507 513 
432 531 525 507 513 532 526 508 514 
433 532 526 508 514 232 231 228 229 
434 69 439 436 70 396 527 509 397 
435 396 527 509 397 393 528 510 394 
436 393 528 510 394 390 529 511 391 
437 390 529 511 391 387 530 512 388 
438 387 530 512 388 384 531 513 385 
439 384 531 513 385 381 532 514 382 
440 381 532 514 382 45 232 229 46 
441 440 76 75 437 533 361 360 515 
442 533 361 360 515 534 358 357 516 
443 534 358 357 516 535 355 354 517 
444 535 355 354 517 536 352 351 518 
445 536 352 351 518 537 349 348 519 
446 537 349 348 519 538 346 345 520 
447 538 346 345 520 233 52 51 230 
448 441 440 437 438 539 533 515 521 
449 539 533 515 521 540 534 516 522 
450 540 534 516 522 541 535 517 523 
451 541 535 517 523 542 536 518 524 
452 542 536 518 524 543 537 519 525 
453 543 537 519 525 544 538 520 526 
454 544 538 520 526 234 233 230 231 
455 442 441 438 439 545 539 521 527 
456 545 539 521 527 546 540 522 528 
457 546 540 522 528 547 541 523 529 
458 547 541 523 529 548 542 524 530 
459 548 542 524 530 549 543 525 531 
460 549 543 525 531 550 544 526 532 
461 550 544 526 532 235 234 231 232 
462 68 442 439 69 395 545 527 396 
463 395 545 527 396 392 546 528 393 
464 392 546 528 393 389 547 529 390 
465 389 547 529 390 386 548 530 387 
466 386 548 530 387 383 549 531 384 
467 383 549 531 384 380 550 532 381 
468 380 550 532 381 44 235 232 45 
469 65 13 76 440 377 115 361 533 
470 377 115 361 533 374 114 358 534 
471 374 114 358 534 371 113 355 535 
472 371 113 355 535 368 112 352 536 
473 368 112 352 536 365 111 349 537 
474 365 111 349 537 362 110 346 538 
475 362 110 346 538 41 9 52 233 
476 66 65 440 441 378 377 533 539 
477 378 377 533 539 375 374 534 540 
478 375 374 534 540 372 371 535 541 
479 372 371 535 541 369 368 536 542 
480 369 368 536 542 366 365 537 543 
481 366 365 537 543 363 362 538 544 
482 363 362 538 544 42 41 233 234 
483 67 66 441 442 379 378 539 545 
484 379 378 539 545 376 375 540 546 
485 376 375 540 546 373 372 541 547 
486 373 372 541 547 370 369 542 548 
487 370 369 542 548 367 366 543 549 
488 367 366 543 549 364 363 544 550 
489 364 363 544 550 43 42 234 235 
490 14 67 442 68 133 379 545 395 
491 133 379 545 395 132 376 546 392 
492 132 376 546 392 131 373 547 389 
493 131 373 547 389 130 370 548 386 
494 130 370 548 386 129 367 549 383 
495 129 367 549 383 128 364 550 380 
496 128 364 550 380 10 43 235 44 
3 3 5 112
497 1 17 173 109 79 422 551 307 
498 79 422 551 307 78 419 552 301 
499 78 419 552 301 77 416 553 295 
500 77 416 553 295 13 65 377 115 
501 109 173 174 108 307 551 554 306 
502 307 551 554 306 301 552 555 300 
503 301 552 555 300 295 553 556 294 
504 295 553 556 294 115 377 374 114 
505 108 174 175 107 306 554 557 305 
506 306 554 557 305 300 555 558 299 
507 300 555 558 299 294 556 559 293 
508 294 556 559 293 114 374 371 113 
509 107 175 176 106 305 557 560 304 
510 305 557 560 304 299 558 561 298 
511 299 558 561 298 293 559 562 292 
512 293 559 562 292 113 371 368 112 
513 106 176 177 105 304 560 563 303 
514 304 560 563 303 298 561 564 297 
515 298 561 564 297 292 562 565 291 
516 292 562 565 291 112 368 365 111 
517 105 177 178 104 303 563 566 302 
518 303 563 566 302 297 564 567 296 
519 297 564 567 296 291 565 568 290 
520 291 565 568 290 111 365 362 110 
521 104 178 40 5 302 566 242 58 
522 302 566 242 58 296 567 243 57 
523 296 567 243 57 290 568 244 56 
524 290 568 244 56 110 362 41 9 
525 17 18 179 173 422 423 569 551 
526 422 423 569 551 419 420 570 552 
527 419 420 570 552 416 417 571 553 
528 416 417 571 553 65 66 378 377 
529 173 179 180 174 551 569 572 554 
530 551 569 572 554 552 570 573 555 
531 552 570 573 555 553 571 574 556 
532 553 571 574 556 377 378 375 374 
533 174 180 181 175 554 572 575 557 
534 554 572 575 557 555 573 576 558 
535 555 573 576 558 556 574 577 559 
536 556 574 577 559 374 375 372 371 
537 175 181 182 176 557 575 578 560 
538 557 575 578 560 558 576 579 561 
539 558 576 579 561 559 577 580 562 
540 559 577 580 562 371 372 369 368 
541 176 182 183 177 560 578 581 563 
542 560 578 581 563 561 579 582 564 
543 561 579 582 564 562 580 583 565 
544 562 580 583 565 368 369 366 365 
545 177 183 184 178 563 581 584 566 
546 563 581 584 566 564 582 585 567 
547 564 582 585 567 565 583 586 568 
548 565 583 586 568 365 366 363 362 
549 178 184 39 40 566 584 239 242 
550 566 584 239 242 567 585 240 243 
551 567 585 240 243 568 586 241 244 
552 568 586 241 244 362 363 42 41 
553 18 19 185 179 423 424 587 569 
554 423 424 587 569 420 421 588 570 
555 420 421 588 570 417 418 589 571 
556 417 418 589 571 66 67 379 378 
557 179 185 186 180 569 587 590 572 
558 569 587 590 572 570 588 591 573 
559 570 588 591 573 571 589 592 574 
560 571 589 592 574 378 379 376 375 
561 180 186 187 181 572 590 593 575 
562 572 590 593 575 573 591 594 576 
563 573 591 594 576 574 592 595 577 
564 574 592 595 577 375 376 373 372 
565 181 187 188 182 575 593 596 578 
566 575 593 596 578 576 594 597 579 
567 576 594 597 579 577 595 598 580 
568 577 595 598 580 372 373 370 369 
569 182 188 189 183 578 596 599 581 
570 578 596 599 581 579 597 600 582 
571 579 597 600 582 580 598 601 583 
572 580 598 601 583 369 370 367 366 
573 183 189 190 184 581 599 602 584 
574 581 599 602 584 582 600 603 585 
575 582 600 603 585 583 601 604 586 
576 583 601 604 586 366 367 364 363 
577 184 190 38 39 584 602 236 239 
578 584 602 236 239 585 603 237 240 
579 585 603 237 240 586 604 238 241 
580 586 604 238 241 363 364 43 42 
581 19 2 103 185 424 136 323 587 
582 424 136 323 587 421 135 324 588 
583 421 135 324 588 418 134 325 589 
584 418 134 325 589 67 14 133 379 
585 185 103 102 186 587 323 320 590 
586 587 323 320 590 588 324 321 591 
587 588 324 321 591 589 325 322 592 
588 589 325 322 592 379 133 132 376 
589 186 102 101 187 590 320 317 593 
590 590 320 317 593 591 321 318 594 
591 591 321 318 594 592 322 319 595 
592 592 322 319 595 376 132 131 373 
593 187 101 100 188 593 317 314 596 
594 593 317 314 596 594 318 315 597 
595 594 318 315 597 595 319 316 598 
596 595 319 316 598 373 131 130 370 
597 188 100 99 189 596 314 311 599 
598 596 314 311 599 597 315 312 600 
599 597 315 312 600 598 316 313 601 
600 598 316 313 601 370 130 129 367 
601 189 99 98 190 599 311 308 602 
602 599 311 308 602 600 312 309 603 
603 600 312 309 603 601 313 310 604 
604 601 313 310 604 367 129 128 364 
605 190 98 6 38 602 308 55 236 
606 602 308 55 236 603 309 54 237 
607 603 309 54 237 604 310 53 238 
608 604 310 53 238 364 128 10 43 
3 4 5 112
609 407 80 16 74 605 289 121 359 
610 605 289 121 359 606 286 120 356 
611 606 286 120 356 607 283 119 353 
612 607 283 119 353 608 280 118 350 
613 608 280 118 350 609 277 117 347 
614 609 277 117 347 610 274 116 344 
615 610 274 116 344 217 64 12 50 
616 408 407 74 75 611 605 359 360 
617 611 605 359 360 612 606 356 357 
618 612 606 356 357 613 607 353 354 
619 613 607 353 354 614 608 350 351 
620 614 608 350 351 615 609 347 348 
621 615 609 347 348 616 610 344 345 
622 616 610 344 345 214 217 50 51 
623 409 408 75 76 617 611 360 361 
624 617 611 360 361 618 612 357 358 
625 618 612 357 358 619 613 354 355 
626 619 613 354 355 620 614 351 352 
627 620 614 351 352 621 615 348 349 
628 621 615 348 349 622 616 345 346 
629 622 616 345 346 211 214 51 52 
630 77 409 76 13 295 617 361 115 
631 295 617 361 115 294 618 358 114 
632 294 618 358 114 293 619 355 113 
633 293 619 355 113 292 620 352 112 
634 292 620 352 112 291 621 349 111 
635 291 621 349 111 290 622 346 110 
636 290 622 346 110 56 211 52 9 
637 410 81 80 407 623 288 289 605 
638 623 288 289 605 624 285 286 606 
639 624 285 286 606 625 282 283 607 
640 625 282 283 607 626 279 280 608 
641 626 279 280 608 627 276 277 609 
642 627 276 277 609 628 273 274 610 
643 628 273 274 610 216 63 64 217 
644 411 410 407 408 629 623 605 611 
645 629 623 605 611 630 624 606 612 
646 630 624 606 612 631 625 607 613 
647 631 625 607 613 632 626 608 614 
648 632 626 608 614 633 627 609 615 
649 633 627 609 615 634 628 610 616 
650 634 628 610 616 213 216 217 214 
651 412 411 408 409 635 629 611 617 
652 635 629 611 617 636 630 612 618 
653 636 630 612 618 637 631 613 619 
654 637 631 613 619 638 632 614 620 
655 638 632 614 620 639 633 615 621 
656 639 633 615 621 640 634 616 622 
657 640 634 616 622 210 213 214 211 
658 78 412 409 77 301 635 617 295 
659 301 635 617 295 300 636 618 294 
660 300 636 618 294 299 637 619 293 
661 299 637 619 293 298 638 620 292 
662 298 638 620 292 297 639 621 291 
663 297 639 621 291 296 640 622 290 
664 296 640 622 290 57 210 211 56 
665 413 82 81 410 641 287 288 623 
666 641 287 288 623 642 284 285 624 
667 642 284 285 624 643 281 282 625 
668 643 281 282 625 644 278 279 626 
669 644 278 279 626 645 275 276 627 
670 645 275 276 627 646 272 273 628 
671 646 272 273 628 215 62 63 216 
672 414 413 410 411 647 641 623 629 
673 647 641 623 629 648 642 624 630 
674 648 642 624 630 649 643 625 631 
675 649 643 625 631 650 644 626 632 
676 650 644 626 632 651 645 627 633 
677 651 645 627 633 652 646 628 634 
678 652 646 628 634 212 215 216 213 
679 415 414 411 412 653 647 629 635 
680 653 647 629 635 654 648 630 636 
681 654 648 630 636 655 649 631 637 
682 655 649 631 637 656 650 632 638 
683 656 650 632 638 657 651 633 639 
684 657 651 633 639 658 652 634 640 
685 658 652 634 640 209 212 213 210 
686 79 415 412 78 307 653 635 301 
687 307 653 635 301 306 654 636 300 
688 306 654 636 300 305 655 637 299 
689 305 655 637 299 304 656 638 298 
690 304 656 638 298 303 657 639 297 
691 303 657 639 297 302 658 640 296 
692 302 658 640 296 58 209 210 57 
693 26 4 82 413 208 127 287 641 
694 208 127 287 641 205 126 284 642 
695 205 126 284 642 202 125 281 643 
696 202 125 281 643 199 124 278 644 
697 199 124 278 644 196 123 275 645 
698 196 123 275 645 193 122 272 646 
699 193 122 272 646 31 8 62 215 
700 27 26 413 414 207 208 641 647 
701 207 208 641 647 204 205 642 648 
702 204 205 642 648 201 202 643 649 
703 201 202 643 649 198 199 644 650 
704 198 199 644 650 195 196 645 651 
705 195 196 645 651 192 193 646 652 
706 192 193 646 652 30 31 215 212 
707 28 27 414 415 206 207 647 653 
708 206 207 647 653 203 204 648 654 
709 203 204 648 654 200 201 649 655 
710 200 201 649 655 197 198 650 656 
711 197 198 650 656 194 195 651 657 
712 194 195 651 657 191 192 652 658 
713 191 192 652 658 29 30 212 209 
714 1 28 415 79 109 206 653 307 
715 109 206 653 307 108 203 654 306 
716 108 203 654 306 107 200 655 305 
717 107 200 655 305 106 197 656 304 
718 106 197 656 304 105 194 657 303 
719 105 194 657 303 104 191 658 302 
720 104 191 658 302 5 29 209 58 
3 5 5 112
721 326 86 11 47 659 254 59 226 
722 659 254 59 226 660 260 60 223 
723 660 260 60 223 661 266 61 220 
724 661 266 61 220 149 92 7 34 
725 327 326 47 48 662 659 226 225 
726 662 659 226 225 663 660 223 222 
727 663 660 223 222 664 661 220 219 
728 664 661 220 219 143 149 34 33 
729 328 327 48 49 665 662 225 224 
730 665 662 225 224 666 663 222 221 
731 666 663 222 221 667 664 219 218 
732 667 664 219 218 137 143 33 32 
733 116 328 49 12 274 665 224 64 
734 274 665 224 64 273 666 221 63 
735 273 666 221 63 272 667 218 62 
736 272 667 218 62 122 137 32 8 
737 329 87 86 326 668 255 254 659 
738 668 255 254 659 669 261 260 660 
739 669 261 260 660 670 267 266 661 
740 670 267 266 661 150 93 92 149 
741 330 329 326 327 671 668 659 662 
742 671 668 659 662 672 669 660 663 
743 672 669 660 663 673 670 661 664 
744 673 670 661 664 144 150 149 143 
745 331 330 327 328 674 671 662 665 
746 674 671 662 665 675 672 663 666 
747 675 672 663 666 676 673 664 667 
748 676 673 664 667 138 144 143 137 
749 117 331 328 116 277 674 665 274 
750 277 674 665 274 276 675 666 273 
751 276 675 666 273 275 676 667 272 
752 275 676 667 272 123 138 137 122 
753 332 88 87 329 677 256 255 668 
754 677 256 255 668 678 262 261 669 
755 678 262 261 669 679 268 267 670 
756 679 268 267 670 151 94 93 150 
757 333 332 329 330 680 677 668 671 
758 680 677 668 671 681 678 669 672 
759 681 678 669 672 682 679 670 673 
760 682 679 670 673 145 151 150 144 
761 334 333 330 331 683 680 671 674 
762 683 680 671 674 684 681 672 675 
763 684 681 672 675 685 682 673 676 
764 685 682 673 676 139 145 144 138 
765 118 334 331 117 280 683 674 277 
766 280 683 674 277 279 684 675 276 
767 279 684 675 276 278 685 676 275 
768 278 685 676 275 124 139 138 123 
769 335 89 88 332 686 257 256 677 
770 686 257 256 677 687 263 262 678 
771 687 263 262 678 688 269 268 679 
772 688 269 268 679 152 95 94 151 
773 336 335 332 333 689 686 677 680 
774 689 686 677 680 690 687 678 681 
775 690 687 678 681 691 688 679 682 
776 691 688 679 682 146 152 151 145 
777 337 336 333 334 692 689 680 683 
778 692 689 680 683 693 690 681 684 
779 693 690 681 684 694 691 682 685 
780 694 691 682 685 140 146 145 139 
781 119 337 334 118 283 692 683 280 
782 283 692 683 280 282 693 684 279 
783 282 693 684 279 281 694 685 278 
784 281 694 685 278 125 140 139 124 
785 338 90 89 335 695 258 257 686 
786 695 258 257 686 696 264 263 687 
787 696 264 263 687 697 270 269 688 
788 697 270 269 688 153 96 95 152 
789 339 338 335 336 698 695 686 689 
790 698 695 686 689 699 696 687 690 
791 699 696 687 690 700 697 688 691 
792 700 697 688 691 147 153 152 146 
793 340 339 336 337 701 698 689 692 
794 701 698 689 692 702 699 690 693 
795 702 699 690 693 703 700 691 694 
796 703 700 691 694 141 147 146 140 
797 120 340 337 119 286 701 692 283 
798 286 701 692 283 285 702 693 282 
799 285 702 693 282 284 703 694 281 
800 284 703 694 281 126 141 140 125 
801 341 91 90 338 704 259 258 695 
802 704 259 258 695 705 265 264 696 
803 705 265 264 696 706 271 270 697 
804 706 271 270 697 154 97 96 153 
805 342 341 338 339 707 704 695 698 
806 707 704 695 698 708 705 696 699 
807 708 705 696 699 709 706 697 700 
808 709 706 697 700 148 154 153 147 
809 343 342 339 340 710 707 698 701 
810 710 707 698 701 711 708 699 702 
811 711 708 699 702 712 709 700 703 
812 712 709 700 703 142 148 147 141 
813 121 343 340 120 289 710 701 286 
814 289 710 701 286 288 711 702 285 
815 288 711 702 285 287 712 703 284 
816 287 712 703 284 127 142 141 126 
817 71 15 91 341 398 83 259 704 
818 398 83 259 704 401 84 265 705 
819 401 84 265 705 404 85 271 706 
820 404 85 271 706 23 3 97 154 
821 72 71 341 342 399 398 704 707 
822 399 398 704 707 402 401 705 708 
823 402 401 705 708 405 404 706 709 
824 405 404 706 709 24 23 154 148 
825 73 72 342 343 400 399 707 710 
826 400 399 707 710 403 402 708 711 
827 403 402 708 711 406 405 709 712 
828 406 405 709 712 25 24 148 142 
829 16 73 343 121 80 400 710 289 
830 80 400 710 289 81 403 711 288 
831 81 403 711 288 82 406 712 287 
832 82 406 712 287 4 25 142 127 
$EndElements
