$MeshFormat
4.1 0 8
$EndMeshFormat
$PhysicalNames
5
1 7 "Domain2"
1 8 "Left"
1 9 "Top"
1 10 "Bottom"
2 6 "Domain"
$EndPhysicalNames
$Entities
6 5 1 0
1 0 0 0 0 
2 15 0 0 0 
3 15 15 0 0 
4 0 15 0 0 
5 1 12 0 0 
6 14 12 0 0 
1 0 0 0 15 0 0 1 10 2 1 -2 
2 15 0 0 15 15 0 1 8 2 2 -3 
3 0 15 0 15 15 0 1 9 2 3 -4 
4 0 0 0 0 15 0 1 8 2 4 -1 
5 1 12 0 14 12 0 1 7 2 5 -6 
1 0 0 0 15 15 0 1 6 6 1 2 3 4 5 -5 
$EndEntities
$Nodes
12 477 1 477
0 1 0 1
1
0 0 0
0 2 0 1
2
15 0 0
0 3 0 1
3
15 15 0
0 4 0 1
4
0 15 0
0 5 0 1
5
1 12 0
0 6 0 1
6
14 12 0
1 1 0 14
7
8
9
10
11
12
13
14
15
16
17
18
19
20
0.9999999999995183 0 0
1.999999999999871 0 0
2.999999999998959 0 0
3.999999999998025 0 0
4.9999999999943 0 0
5.999999999990425 0 0
6.99999999998655 0 0
7.999999999985638 0 0
8.999999999987688 0 0
9.999999999989742 0 0
10.99999999999179 0 0
11.99999999999384 0 0
12.99999999999589 0 0
13.99999999999795 0 0
1 2 0 14
21
22
23
24
25
26
27
28
29
30
31
32
33
34
15 0.9999999999995183 0
15 1.999999999999871 0
15 2.999999999998959 0
15 3.999999999998025 0
15 4.9999999999943 0
15 5.999999999990425 0
15 6.99999999998655 0
15 7.999999999985638 0
15 8.999999999987688 0
15 9.999999999989742 0
15 10.99999999999179 0
15 11.99999999999384 0
15 12.99999999999589 0
15 13.99999999999795 0
1 3 0 14
35
36
37
38
39
40
41
42
43
44
45
46
47
48
13.99999999999748 15 0
12.99999999999496 15 0
11.99999999999244 15 0
10.99999999999002 15 0
9.999999999998737 15 0
9.000000000008059 15 0
8.000000000017128 15 0
7.000000000017661 15 0
6.000000000015138 15 0
5.000000000012616 15 0
4.000000000010091 15 0
3.000000000007569 15 0
2.000000000005045 15 0
1.000000000002521 15 0
1 4 0 14
49
50
51
52
53
54
55
56
57
58
59
60
61
62
0 13.99999999999748 0
0 12.99999999999496 0
0 11.99999999999244 0
0 10.99999999999002 0
0 9.999999999998737 0
0 9.000000000008059 0
0 8.000000000017128 0
0 7.000000000017661 0
0 6.000000000015138 0
0 5.000000000012616 0
0 4.000000000010091 0
0 3.000000000007569 0
0 2.000000000005045 0
0 1.000000000002521 0
1 5 0 25
63
64
65
66
67
68
69
70
71
72
73
74
75
76
77
78
79
80
81
82
83
84
85
86
87
1.499999999998065 12 0
1.99999999999613 12 0
2.499999999994195 12 0
2.999999999991099 12 0
3.49999999998911 12 0
3.99999999998708 12 0
4.499999999983517 12 0
4.999999999979874 12 0
5.499999999976233 12 0
5.999999999972593 12 0
6.499999999968951 12 0
6.999999999965309 12 0
7.499999999961841 12 0
7.999999999961761 12 0
8.499999999964924 12 0
8.999999999968113 12 0
9.499999999971301 12 0
9.999999999974492 12 0
10.49999999997768 12 0
10.99999999998087 12 0
11.49999999998406 12 0
11.99999999998725 12 0
12.49999999999043 12 0
12.99999999999362 12 0
13.49999999999681 12 0
2 1 0 390
88
89
90
91
92
93
94
95
96
97
98
99
100
101
102
103
104
105
106
107
108
109
110
111
112
113
114
115
116
117
118
119
120
121
122
123
124
125
126
127
128
129
130
131
132
133
134
135
136
137
138
139
140
141
142
143
144
145
146
147
148
149
150
151
152
153
154
155
156
157
158
159
160
161
162
163
164
165
166
167
168
169
170
171
172
173
174
175
176
177
178
179
180
181
182
183
184
185
186
187
188
189
190
191
192
193
194
195
196
197
198
199
200
201
202
203
204
205
206
207
208
209
210
211
212
213
214
215
216
217
218
219
220
221
222
223
224
225
226
227
228
229
230
231
232
233
234
235
236
237
238
239
240
241
242
243
244
245
246
247
248
249
250
251
252
253
254
255
256
257
258
259
260
261
262
263
264
265
266
267
268
269
270
271
272
273
274
275
276
277
278
279
280
281
282
283
284
285
286
287
288
289
290
291
292
293
294
295
296
297
298
299
300
301
302
303
304
305
306
307
308
309
310
311
312
313
314
315
316
317
318
319
320
321
322
323
324
325
326
327
328
329
330
331
332
333
334
335
336
337
338
339
340
341
342
343
344
345
346
347
348
349
350
351
352
353
354
355
356
357
358
359
360
361
362
363
364
365
366
367
368
369
370
371
372
373
374
375
376
377
378
379
380
381
382
383
384
385
386
387
388
389
390
391
392
393
394
395
396
397
398
399
400
401
402
403
404
405
406
407
408
409
410
411
412
413
414
415
416
417
418
419
420
421
422
423
424
425
426
427
428
429
430
431
432
433
434
435
436
437
438
439
440
441
442
443
444
445
446
447
448
449
450
451
452
453
454
455
456
457
458
459
460
461
462
463
464
465
466
467
468
469
470
471
472
473
474
475
476
477
6.49532286759506 0.9123544235065758 0
14.26895031297502 6.510950028698294 0
0.8660254037853001 6.500000000016398 0
9.499999999988717 0.8660254037862146 0
0.8660254037866231 3.50000000000883 0
14.13397459621758 3.499999999998492 0
0.842242841012325 9.549999208800266 0
14.14604985709906 9.560026993378612 0
3.548897729720328 0.7757380917804357 0
11.51362832567531 0.8633319716359119 0
9.500000000003402 14.13397459622363 0
7.502865439680389 14.14661576832089 0
11.59083385281899 14.15001999139954 0
4.409166147181823 14.15001999139651 0
2.598295455533762 14.13180443010534 0
13.4367954787339 14.15995297034754 0
0.9017717757217132 1.567667544914837 0
13.46010811628881 0.8431443485157551 0
0.86602540378662 13.49999999999622 0
3.513625855749359 14.18193014812366 0
3.909283745181608 13.43574972308564 0
4.774978490881637 13.35545440291404 0
5.283233447449575 13.9727956305136 0
5.41683569386288 13.15823395139246 0
6.250977070841253 14.06665466811066 0
3.089940718602065 13.43301746244688 0
2.319009507838466 13.33961932006247 0
2.729257307509514 12.75999584923226 0
3.46509984258925 12.86967974259984 0
4.167573663759782 12.84487716192776 0
4.869123485927222 12.70064955826885 0
12.52489780994854 14.18093828006825 0
12.11454186238992 13.43549402271564 0
11.22502150911649 13.35545440292039 0
10.75416327372897 13.98082161384691 0
10.45116470441459 13.23623361013188 0
12.94254186980916 13.44632126638983 0
12.50876313152444 12.86271233512032 0
13.27858550978259 12.77408864449526 0
13.70305398524069 13.36649413131149 0
11.82094360335507 12.84914828491724 0
11.09749752485869 12.71781641573511 0
8.512859828579669 14.18172447196756 0
8.898115132910753 13.41556762192494 0
8.071919763740873 13.432351458368 0
7.318391932037745 13.3168383883742 0
7.74204254820489 12.74769657611496 0
8.480390908308667 12.85356302646097 0
9.135534720727106 12.81382585981922 0
7.034167760662839 12.73654629689828 0
6.636394135221025 13.14195624228291 0
2.136770507852193 12.78993803300999 0
9.627024658659463 13.27977151457402 0
13.92364753331483 12.79715110085415 0
9.831134617608752 12.56989683864097 0
9.83387138153704 11.55307856260338 0
1.744809312263452 13.89604143454033 0
0.910549904063955 10.48254159262243 0
1.626127377355439 9.961660984254703 0
1.643308383551622 9.148289551489198 0
2.312950802129198 9.606740018142643 0
2.370446947349365 8.814051200722904 0
3.01312235250359 9.255315018736034 0
3.075256865970504 8.477829708401696 0
3.714655840532184 8.922591662383379 0
3.771397646481765 8.146566630960347 0
4.404333106736861 8.58766491614036 0
4.460972156361072 7.817659116581023 0
5.09116203417944 8.241949211296335 0
5.147397966883771 7.488530467231287 0
5.796101008115167 7.931439670261751 0
5.832667438554019 7.157442068603986 0
6.477927767874693 7.602384052489758 0
6.518579635131763 6.823019006278651 0
7.175003645572906 7.267207916899807 0
7.216284535324851 6.479187274527583 0
7.897286731052923 6.939696246277891 0
5.931175304987451 6.485397776715129 0
7.931045164816926 6.121927113764171 0
8.614173405664355 6.589518221995609 0
7.172455374042551 8.060917755470825 0
8.665661618266634 5.75871311632106 0
9.346964262613445 6.229078069265604 0
9.290192851926751 7.056347696952471 0
9.431551478301488 5.402536040553159 0
7.96031644751794 5.296415351758234 0
5.035027249470083 9.006656722700903 0
10.02436089488744 6.705695942816242 0
9.959696970140913 7.516030545141707 0
3.848966197036221 7.366932334989741 0
10.68962126003817 7.17276880148241 0
10.6179935059806 7.969746321957542 0
9.918903951887962 8.29654105740012 0
10.53604603183616 8.721239291292877 0
9.885635071205513 9.033253988814131 0
10.45516673899729 9.446599915321034 0
10.77166811172764 6.353709157999167 0
11.0960402080217 9.15730274354701 0
11.30132757043969 7.627014981373539 0
3.680144157919325 9.782964829391943 0
11.02203185069547 9.849472448486353 0
9.835243382563373 9.723808694709774 0
9.277671856915573 9.346600241262863 0
9.236313936858703 10.00969280510886 0
8.6972458011419 9.654417598765349 0
11.65089930862549 9.568221516140053 0
8.661013508931577 10.2851504266633 0
8.13726025125602 9.943983712141677 0
8.717460094974758 9.001797223456656 0
11.58000017548571 10.24158262142667 0
10.97579887110611 10.50112517864514 0
8.095826040204058 10.55688198681534 0
7.576218166154253 10.22707673215222 0
12.20792076265355 9.966700361356864 0
12.31823161596039 9.283682257984379 0
2.447032687922859 8.060126222566652 0
2.292845194699071 10.37936320917595 0
7.616871386629782 9.61342840954722 0
7.066408089107492 9.908205838451487 0
7.027875082448354 10.51181970452176 0
6.51836489794621 10.18951664051848 0
6.527307986474752 9.563241051068768 0
12.07757694606132 10.71651805082157 0
12.75668169674335 10.37095785298157 0
6.493126215792075 10.7870549496633 0
5.989122648726986 10.47478167182834 0
8.599981279801009 10.89519559891754 0
9.79963357986844 10.37405544248864 0
5.959707029993742 11.04261657714638 0
5.468956509665186 10.7535555500862 0
5.484653301246759 10.16478982637645 0
4.956594683613456 10.45149456366149 0
4.939926085146942 11.02579573440069 0
4.434891284443568 10.74747913843113 0
12.69932757769684 11.01727379535396 0
13.3645918217115 10.74867034756853 0
6.992004881944455 11.15176734310717 0
8.086401816681303 11.1257521200287 0
4.382029803748495 10.09265465804583 0
3.89777385450154 10.45013389815907 0
3.895810417736902 11.03824385044264 0
3.376522467290583 10.77073953035381 0
12.21536961334551 11.3003289169192 0
4.36423328520401 9.35088165001623 0
11.44361533348481 10.8754727892706 0
10.90718202565117 11.09120167084875 0
10.38983190502788 10.73606134307106 0
10.34127225324915 11.27412310860229 0
0.8850436120831116 8.628466391999662 0
1.002751557615647 7.601863079549442 0
1.738231879513519 6.954601784075551 0
1.701690026990432 6.080938661041018 0
2.484194791079075 6.503468399298832 0
2.490773914627721 5.646438313126048 0
3.243197249221053 6.083618606929868 0
3.261891426167974 5.219838827311332 0
4.022556019887053 5.669596059411603 0
4.042154596777127 4.793075314184428 0
3.270116010926975 4.333691619119921 0
4.056492489963333 3.900753933361881 0
4.828918478972211 4.367323681272604 0
4.847820390483801 3.472494320794101 0
5.61605713891296 3.944033681912293 0
3.276296240440859 3.424018550459899 0
5.642342236860681 3.041018871234212 0
6.40982069081866 3.518085787780989 0
4.873001245910634 2.555676733356381 0
6.383398477188786 4.411485958109849 0
7.170106213373765 3.987252097959102 0
7.204816004111896 3.091189116779452 0
7.96948706547016 3.569516253444767 0
7.994513847445231 2.68911557308535 0
8.763221623113408 3.185580581571843 0
1.722994751046889 5.182781177083507 0
2.497387122454906 3.866555489812523 0
2.490492552031783 2.937923924566575 0
3.281435605990295 2.51416740340129 0
2.486934138368489 1.987413429004429 0
8.732289492576012 4.049468964986538 0
9.548343668583465 3.649827659536875 0
9.630934014054125 2.670632009540534 0
10.40645248160944 3.264015964990497 0
10.32750354619776 4.169489038163745 0
11.1720268710475 3.762949018561477 0
11.24824573400459 2.853670597736309 0
12.0061607151344 3.364439527168924 0
11.95345962585067 4.291833287184626 0
12.07260056204684 2.385032783004445 0
7.217419687519305 2.225174656449844 0
8.052823593045202 1.741997275566928 0
5.694564794816547 2.171270304054653 0
4.940840857125924 1.607085456028227 0
12.75525828680892 3.879075201941323 0
12.68958573577518 4.813750629621673 0
11.89225000547326 5.212316820175621 0
12.63988749944393 5.739559344526439 0
13.41593202923804 5.199432014007741 0
1.623589574630877 2.468466762865721 0
11.83310969457999 6.149916323626259 0
12.70443058222889 6.661870056543484 0
2.935622651937099 9.973350021503116 0
3.330150411081617 11.29388558994205 0
2.868241909686733 11.08426826745475 0
14.16957355794895 10.43834078956879 0
7.544918525971271 10.83597137842208 0
7.577645223422419 11.42478819277717 0
9.252980652011837 10.71176973680445 0
9.033844339763194 11.24986346373431 0
6.388576063726469 11.31892955977107 0
9.263617858938671 7.854645561979213 0
8.582583488036141 7.399302617643206 0
8.552787939474488 8.286526590009807 0
7.880736383086695 7.749783111415956 0
7.77637342883817 8.459699091040051 0
7.087122920035125 8.725196120183071 0
6.428511271482705 8.335382546079714 0
5.710117474511469 8.653910020409079 0
5.632168119441927 9.401072492090139 0
13.43162719216219 10.0044903065922 0
13.20823184481067 9.174179534328145 0
14.06025800912715 8.644221619346309 0
13.17369096643919 8.299440665756801 0
13.86594692705897 7.788084625722425 0
13.95053769869722 11.20459289026745 0
10.41295105470976 10.10518717045366 0
9.86141645621783 10.97199193337589 0
4.975784407120788 9.744591652148504 0
7.174361915536115 4.850461565391368 0
6.41794286871813 5.247758333591952 0
13.21866065915221 11.39821654453806 0
8.552001716009068 11.41266660945304 0
5.598891739457686 4.812539983852103 0
10.47595936936748 12.62945063357777 0
5.477592831715658 12.60891945840066 0
11.12076612998198 4.680731554433599 0
4.798282873380091 5.236018585651206 0
4.682897071645807 6.147378676800906 0
3.917042478996787 6.544365179100364 0
11.33292224544981 11.47145449817064 0
10.25922202798455 5.037815411800858 0
12.96356283063357 7.527241107672208 0
12.35796052805425 8.090902889472851 0
0.7925072182110896 11.18344570513975 0
1.419041657501048 11.04566255958797 0
5.464930711723412 0.7923145000582772 0
7.532196140924372 0.8319628127855669 0
11.16385414755108 1.847329634541201 0
4.37360955344984 11.26309076801628 0
11.16752567126944 8.408377622001934 0
8.552576974056265 0.8762815580291206 0
5.39765162351136 11.26275156929061 0
10.56584465016857 0.9094753466047534 0
10.13853554023658 1.803868061179311 0
9.099756913378519 1.725407999373467 0
2.51065524600696 0.9850975522807722 0
0.8574356524769948 4.590143863755655 0
12.50263430036812 0.8320312898974991 0
12.90870558202499 1.852999799589917 0
14.06599625289004 1.645288867745374 0
13.55200252684332 2.627355275424275 0
14.20869645949919 4.597339930344285 0
0.8580243057166027 5.558977283654055 0
6.441024385735809 2.631072816777432 0
1.580942380848733 13.00511448051977 0
0.8852759504342955 12.82472183690955 0
6.535269480004963 12.66628855474073 0
4.078801444078499 2.997780609381118 0
9.306580442942741 8.646307670375291 0
7.954074880250007 4.447287513002888 0
2.493169083796378 4.760310679462458 0
8.70449659290589 4.912588525421974 0
9.500567801091526 4.536954273410524 0
7.255296514644413 5.676867373679012 0
10.09438892147979 5.890464278286769 0
8.165998612543161 9.328191268078308 0
3.140951463006611 7.714343253184365 0
5.600499932480187 5.818163264741134 0
6.030323390767326 9.958680336376435 0
6.548496887069225 6.069263581867136 0
1.727756053860769 8.368867963297381 0
11.33214361990744 6.921570512982567 0
12.0649914627517 7.304443300431461 0
11.09803645142298 5.562561393457905 0
1.500447671013027 0.8254008295077432 0
5.234886317566102 6.720583816689018 0
4.077910921905793 2.113798142629251 0
4.533744215468371 7.049870301491162 0
3.194632663749752 6.917465599734701 0
4.499988347032553 0.754406313835513 0
6.477182900287775 1.739698164365445 0
12.64722630836124 11.56479924749945 0
12.78453862246603 9.760002062648633 0
13.4981266371676 6.111711573830359 0
1.705452319153838 4.264412158833974 0
6.045854345883273 12.82297161487383 0
0.6782773508278428 2.507226861560401 0
1.836589394411606 3.407471667217524 0
11.84650193925945 8.749243988659437 0
4.815883894576412 11.56129301828047 0
5.820847816732745 11.57309205587241 0
8.769320938150312 12.39670469292264 0
2.47323074657716 7.307267440624772 0
3.799938626031422 11.57267453456839 0
3.753982220403717 12.41519128439075 0
6.277735164379498 9.006959480025632 0
10.07730483867145 13.78091397277516 0
7.163930021052231 11.65422893533436 0
1.210916257855862 11.52423407714146 0
1.749655788787626 11.53333388003137 0
2.001199586730251 10.97299469029124 0
2.337392196394411 11.43000304259352 0
2.84354577584768 11.59231257323516 0
10.72189608738079 11.59197244046695 0
12.78265449042977 2.925228783238895 0
14.23195090647997 5.569905591144233 0
3.287440293458724 1.638653099369514 0
14.25440793925367 14.1075899547493 0
7.041951310778371 9.31043738214883 0
12.78851994654638 12.40014851011238 0
8.077674792666878 11.6163255906941 0
8.206959065758726 12.38726194319136 0
7.665557964095869 9.045019565698267 0
1.786285481448219 12.41360523678517 0
12.03228458353327 1.556145095733795 0
14.35039467519019 2.554528828633394 0
1.786654387559959 1.58716067020957 0
6.11362173217046 13.4591588062089 0
6.793070161498886 13.75190443280037 0
13.61175102087712 6.998595226980616 0
9.302675556837261 11.60648307157811 0
12.193771037992 12.438334133701 0
11.83551459618938 11.61078964952495 0
8.708249998207299 2.402546687827624 0
2.898734199821913 10.55908046785703 0
3.199723228412556 12.39496248780793 0
1.704673330070372 10.56593582549349 0
3.399967180636555 10.26414118111762 0
12.58456159102496 8.668306521915801 0
1.049939782496089 14.23955649439128 0
13.43410772954318 4.238677981369666 0
1.877800585097991 7.65854529802276 0
1.208750635454408 12.43690338852408 0
0.525771665705332 12.36764027892007 0
10.76224281569054 12.32225448561976 0
12.23962210357476 11.69518356278872 0
5.249999999978055 11.6867091286016 0
0.7320508075704293 0.7320508075712338 0
14.26794919242919 0.7320508075701295 0
6.725537019827298 11.65387825385711 0
13.66333926945042 11.62524739679548 0
14.48768541605184 11.62542462510116 0
14.36399016013072 12.40949065268599 0
5.876820783991294 12.41114088658107 0
4.274431844281399 11.68494256873521 0
14.34932965218222 7.259525976274704 0
11.67407287691965 12.36844169952525 0
9.456957677273431 11.21863735361923 0
4.340113228340502 12.37647887907409 0
9.247198055285116 12.35608547827657 0
10.5269798707975 2.499624980055702 0
6.24999999997077 11.7006375562972 0
13.26342109126356 12.29980067412514 0
7.739800322770158 12.28870859412712 0
2.735796107180505 12.29270810888706 0
14.37418326965665 13.28012097326579 0
13.33159952596855 3.43406744839453 0
0.5629994216400566 11.70457120512069 0
7.154989037874341 1.490237466534872 0
4.045260783633332 1.351299835146138 0
10.2139397849443 14.38560748921113 0
8.877704322508512 11.65380262895309 0
7.294335105255361 12.34412815027624 0
2.266838010373207 12.3261423378765 0
13.72971955886723 12.36428214173856 0
11.74766143435491 8.035996556387843 0
10.26071718089727 11.70367761632963 0
8.208813129141108 8.826996034215643 0
5.156673759648112 12.31546914969363 0
6.271190022805126 12.32930152167894 0
6.792859280141228 14.38859096692411 0
11.20676264348676 12.28170252017602 0
4.773182094775845 12.27851951740731 0
5.633552629579645 14.50986257465606 0
6.772493728110426 12.3460440872657 0
11.78099974690617 11.19491278094139 0
5.853420545638605 1.454122627524375 0
2.492648089573298 10.81756149818501 0
3.294726962588185 11.69177453954912 0
7.76981122651355 11.7477730627027 0
10.24999999997608 12.2854389392203 0
$EndNodes
$Elements
6 978 1 978
1 1 1 15
1 1 7 
2 7 8 
3 8 9 
4 9 10 
5 10 11 
6 11 12 
7 12 13 
8 13 14 
9 14 15 
10 15 16 
11 16 17 
12 17 18 
13 18 19 
14 19 20 
15 20 2 
1 2 1 15
16 2 21 
17 21 22 
18 22 23 
19 23 24 
20 24 25 
21 25 26 
22 26 27 
23 27 28 
24 28 29 
25 29 30 
26 30 31 
27 31 32 
28 32 33 
29 33 34 
30 34 3 
1 3 1 15
31 3 35 
32 35 36 
33 36 37 
34 37 38 
35 38 39 
36 39 40 
37 40 41 
38 41 42 
39 42 43 
40 43 44 
41 44 45 
42 45 46 
43 46 47 
44 47 48 
45 48 4 
1 4 1 15
46 4 49 
47 49 50 
48 50 51 
49 51 52 
50 52 53 
51 53 54 
52 54 55 
53 55 56 
54 56 57 
55 57 58 
56 58 59 
57 59 60 
58 60 61 
59 61 62 
60 62 1 
1 5 1 26
61 5 63 
62 63 64 
63 64 65 
64 65 66 
65 66 67 
66 67 68 
67 68 69 
68 69 70 
69 70 71 
70 71 72 
71 72 73 
72 73 74 
73 74 75 
74 75 76 
75 76 77 
76 77 78 
77 78 79 
78 79 80 
79 80 81 
80 81 82 
81 82 83 
82 83 84 
83 84 85 
84 85 86 
85 86 87 
86 87 6 
2 1 2 892
87 124 120 125 
88 187 226 227 
89 364 165 372 
90 305 209 365 
91 111 118 321 
92 129 123 320 
93 324 364 372 
94 392 302 405 
95 123 142 320 
96 123 140 142 
97 226 187 231 
98 275 345 401 
99 311 6 437 
100 165 364 366 
101 368 286 369 
102 79 80 142 
103 101 107 108 
104 119 100 120 
105 98 130 131 
106 28 308 310 
107 209 305 392 
108 234 215 312 
109 209 392 405 
110 119 120 124 
111 111 109 118 
112 364 316 366 
113 410 351 429 
114 235 143 313 
115 109 117 118 
116 277 337 341 
117 121 123 129 
118 286 287 369 
119 215 234 313 
120 168 301 302 
121 128 121 129 
122 109 108 117 
123 4 49 426 
124 83 82 326 
125 120 121 128 
126 345 347 401 
127 56 90 237 
128 196 299 355 
129 168 300 301 
130 339 334 340 
131 329 385 462 
132 385 329 425 
133 132 99 133 
134 113 102 114 
135 89 380 402 
136 237 90 238 
137 92 285 384 
138 285 92 383 
139 3 35 404 
140 291 31 311 
141 326 82 400 
142 380 284 402 
143 28 29 308 
144 158 160 303 
145 48 4 426 
146 132 133 134 
147 113 114 115 
148 87 86 317 
149 91 339 340 
150 158 303 304 
151 236 55 237 
152 305 218 314 
153 91 340 341 
154 299 297 355 
155 168 162 300 
156 144 47 426 
157 101 45 107 
158 37 100 119 
159 98 40 130 
160 202 307 379 
161 294 215 313 
162 112 110 414 
163 107 102 113 
164 130 99 132 
165 97 334 339 
166 294 313 444 
167 145 94 146 
168 53 94 145 
169 154 174 231 
170 307 202 425 
171 387 71 433 
172 21 22 346 
173 79 142 446 
174 110 111 414 
175 223 291 311 
176 286 184 370 
177 131 135 136 
178 125 120 128 
179 124 125 126 
180 124 126 127 
181 108 116 117 
182 150 187 288 
183 101 108 109 
184 120 100 121 
185 34 3 404 
186 311 31 438 
187 230 378 432 
188 108 113 116 
189 131 132 135 
190 103 119 124 
191 386 69 441 
192 108 107 113 
193 131 130 132 
194 303 302 392 
195 443 129 468 
196 98 131 140 
197 337 91 341 
198 152 154 231 
199 127 126 141 
200 54 55 236 
201 236 237 367 
202 162 164 300 
203 143 235 463 
204 317 311 437 
205 104 285 383 
206 102 47 144 
207 230 222 378 
208 184 286 368 
209 199 225 292 
210 328 287 416 
211 214 294 295 
212 234 235 313 
213 224 292 293 
214 361 327 370 
215 44 101 110 
216 100 38 122 
217 113 115 116 
218 174 156 304 
219 134 133 137 
220 55 56 237 
221 132 134 135 
222 223 311 317 
223 214 194 294 
224 399 289 475 
225 115 114 139 
226 292 225 293 
227 231 174 314 
228 351 352 429 
229 343 261 349 
230 118 445 469 
231 21 346 435 
232 395 5 454 
233 174 304 305 
234 285 104 413 
235 95 291 306 
236 198 234 312 
237 187 152 231 
238 160 168 303 
239 174 305 314 
240 218 219 314 
241 290 398 474 
242 28 310 442 
243 184 361 370 
244 197 210 232 
245 398 290 399 
246 215 189 312 
247 287 380 416 
248 52 53 145 
249 277 341 420 
250 164 298 300 
251 290 289 399 
252 210 222 230 
253 47 48 426 
254 188 198 312 
255 343 92 381 
256 146 148 204 
257 331 145 423 
258 41 99 130 
259 46 102 107 
260 103 36 119 
261 325 324 374 
262 296 224 436 
263 204 148 288 
264 291 223 306 
265 106 50 352 
266 219 226 314 
267 338 387 433 
268 29 95 308 
269 218 305 365 
270 156 158 304 
271 128 129 443 
272 200 199 292 
273 324 372 374 
274 187 227 424 
275 139 351 410 
276 145 146 423 
277 95 306 307 
278 232 210 472 
279 212 224 296 
280 293 75 394 
281 340 268 341 
282 367 237 428 
283 226 231 314 
284 277 333 337 
285 70 69 386 
286 118 117 445 
287 72 71 387 
288 6 311 438 
289 176 180 297 
290 164 167 298 
291 189 183 312 
292 198 232 233 
293 194 191 294 
294 381 92 384 
295 148 150 288 
296 265 342 403 
297 52 145 330 
298 316 315 360 
299 188 197 198 
300 37 38 100 
301 41 42 99 
302 44 45 101 
303 46 47 102 
304 35 36 103 
305 39 40 98 
306 330 145 331 
307 225 214 318 
308 110 112 470 
309 335 386 441 
310 198 197 232 
311 110 109 111 
312 121 122 123 
313 297 180 355 
314 103 124 127 
315 325 177 375 
316 95 30 291 
317 342 265 413 
318 327 172 359 
319 293 225 407 
320 146 147 148 
321 238 90 239 
322 168 302 303 
323 288 187 424 
324 210 230 472 
325 316 360 366 
326 65 64 398 
327 183 188 312 
328 53 54 94 
329 29 30 95 
330 270 327 359 
331 182 181 183 
332 150 152 187 
333 180 181 182 
334 122 38 457 
335 293 407 476 
336 182 183 189 
337 390 67 475 
338 287 328 369 
339 180 179 181 
340 181 179 336 
341 93 348 427 
342 191 215 294 
343 94 54 236 
344 176 179 180 
345 216 212 296 
346 228 221 335 
347 210 211 222 
348 352 50 430 
349 212 207 224 
350 199 214 225 
351 224 394 436 
352 214 295 318 
353 129 320 431 
354 234 233 235 
355 58 343 349 
356 199 194 214 
357 191 189 215 
358 185 181 336 
359 171 176 297 
360 244 323 324 
361 239 90 349 
362 319 316 364 
363 224 293 394 
364 173 315 356 
365 75 74 394 
366 146 94 147 
367 242 325 375 
368 40 41 130 
369 36 37 119 
370 45 46 107 
371 140 136 142 
372 328 329 369 
373 228 335 390 
374 44 110 470 
375 154 156 174 
376 221 220 335 
377 229 228 289 
378 190 189 191 
379 142 80 477 
380 220 217 338 
381 255 316 319 
382 299 196 464 
383 238 239 240 
384 192 191 194 
385 207 200 292 
386 93 427 453 
387 244 245 323 
388 261 239 349 
389 197 201 210 
390 298 297 299 
391 134 137 459 
392 300 299 301 
393 167 171 298 
394 324 323 364 
395 213 212 216 
396 67 391 422 
397 356 266 358 
398 295 294 444 
399 195 194 199 
400 270 322 327 
401 270 271 322 
402 208 207 212 
403 115 139 460 
404 217 216 338 
405 30 31 291 
406 333 14 337 
407 233 232 326 
408 305 304 392 
409 148 149 150 
410 176 178 179 
411 198 233 234 
412 328 309 329 
413 220 338 386 
414 390 335 441 
415 126 125 406 
416 188 193 197 
417 63 5 395 
418 282 283 286 
419 35 103 404 
420 227 221 228 
421 173 356 358 
422 245 248 323 
423 244 324 325 
424 56 57 90 
425 255 315 316 
426 248 319 323 
427 216 296 387 
428 6 439 461 
429 171 175 176 
430 26 27 89 
431 183 185 188 
432 43 112 467 
433 206 200 207 
434 49 50 106 
435 219 217 220 
436 345 275 411 
437 148 147 149 
438 224 207 292 
439 250 255 319 
440 248 250 319 
441 271 274 322 
442 171 297 298 
443 274 281 282 
444 286 283 287 
445 150 151 152 
446 261 343 381 
447 160 162 168 
448 182 189 190 
449 274 282 322 
450 282 286 370 
451 240 241 242 
452 68 67 390 
453 125 128 418 
454 242 244 325 
455 190 191 192 
456 255 256 315 
457 327 322 370 
458 88 13 333 
459 136 135 388 
460 117 116 391 
461 12 13 88 
462 298 299 300 
463 167 170 171 
464 152 153 154 
465 282 281 283 
466 250 253 255 
467 242 243 244 
468 93 347 412 
469 192 194 195 
470 450 134 459 
471 12 88 332 
472 71 321 465 
473 284 348 402 
474 59 92 343 
475 131 136 140 
476 154 155 156 
477 135 134 408 
478 451 115 460 
479 208 212 213 
480 240 239 241 
481 75 293 476 
482 58 59 343 
483 213 216 217 
484 34 404 452 
485 202 385 425 
486 195 199 200 
487 332 279 376 
488 321 71 440 
489 121 100 122 
490 101 109 110 
491 255 253 256 
492 258 260 266 
493 87 317 437 
494 206 207 208 
495 156 157 158 
496 93 24 348 
497 91 16 339 
498 24 25 348 
499 317 86 378 
500 233 326 400 
501 15 91 337 
502 14 15 337 
503 13 14 333 
504 267 269 270 
505 229 289 290 
506 9 96 342 
507 315 173 360 
508 344 105 345 
509 150 149 151 
510 179 178 186 
511 77 318 458 
512 15 16 91 
513 245 247 248 
514 8 9 342 
515 11 12 332 
516 158 159 160 
517 271 273 274 
518 219 220 221 
519 398 397 474 
520 179 186 336 
521 17 97 339 
522 182 190 355 
523 274 280 281 
524 345 105 346 
525 242 241 243 
526 315 256 356 
527 16 17 339 
528 171 170 175 
529 140 123 393 
530 345 346 347 
531 9 10 96 
532 59 60 92 
533 90 57 349 
534 6 438 439 
535 17 18 97 
536 19 105 344 
537 97 18 344 
538 64 396 398 
539 248 249 250 
540 176 175 178 
541 258 266 356 
542 23 24 93 
543 342 96 403 
544 61 62 104 
545 18 19 344 
546 19 20 105 
547 183 181 185 
548 152 151 153 
549 250 252 253 
550 227 228 229 
551 310 309 328 
552 330 331 395 
553 266 260 267 
554 49 106 426 
555 154 153 155 
556 244 243 245 
557 116 115 422 
558 57 58 349 
559 190 196 355 
560 270 269 271 
561 318 77 407 
562 11 332 376 
563 156 155 157 
564 308 307 309 
565 142 136 446 
566 274 273 280 
567 137 133 138 
568 256 257 258 
569 267 270 359 
570 78 77 458 
571 141 126 461 
572 158 157 159 
573 210 201 211 
574 248 247 249 
575 66 67 422 
576 386 338 433 
577 250 249 252 
578 256 253 257 
579 283 281 284 
580 258 259 260 
581 275 272 334 
582 71 72 440 
583 160 161 162 
584 309 307 425 
585 5 429 430 
586 251 263 264 
587 160 159 161 
588 265 263 285 
589 396 331 397 
590 271 272 273 
591 172 327 361 
592 197 193 201 
593 267 268 269 
594 188 185 193 
595 205 200 206 
596 271 269 272 
597 273 272 275 
598 245 246 247 
599 237 238 428 
600 252 254 278 
601 257 253 350 
602 180 182 355 
603 258 257 259 
604 253 252 350 
605 259 257 276 
606 264 263 265 
607 98 140 393 
608 267 260 268 
609 241 239 261 
610 162 163 164 
611 268 340 447 
612 96 10 376 
613 252 249 254 
614 7 8 371 
615 169 166 173 
616 26 89 402 
617 164 166 167 
618 167 169 170 
619 251 262 263 
620 33 34 452 
621 259 276 277 
622 278 254 279 
623 222 223 317 
624 112 43 470 
625 114 102 144 
626 348 284 427 
627 276 257 350 
628 251 246 262 
629 251 264 354 
630 308 309 310 
631 170 169 172 
632 147 94 236 
633 323 319 364 
634 400 81 463 
635 218 217 219 
636 247 246 251 
637 245 243 246 
638 353 138 382 
639 162 161 163 
640 190 192 196 
641 252 278 350 
642 161 159 165 
643 177 325 374 
644 164 163 166 
645 178 175 184 
646 167 166 169 
647 340 334 447 
648 256 258 356 
649 289 390 475 
650 387 296 448 
651 144 106 351 
652 95 307 308 
653 195 200 205 
654 77 76 407 
655 151 149 203 
656 371 342 413 
657 166 163 360 
658 126 449 461 
659 226 221 227 
660 249 247 354 
661 80 79 143 
662 64 63 396 
663 137 138 353 
664 155 153 177 
665 206 208 209 
666 266 267 359 
667 92 60 383 
668 247 251 354 
669 322 282 370 
670 213 217 218 
671 173 166 360 
672 61 104 383 
673 172 358 359 
674 243 241 357 
675 82 81 400 
676 254 249 354 
677 348 25 402 
678 238 240 389 
679 302 301 409 
680 358 266 359 
681 170 172 361 
682 333 277 455 
683 8 342 371 
684 169 173 358 
685 204 288 421 
686 186 178 368 
687 240 242 375 
688 330 395 454 
689 304 303 392 
690 172 169 358 
691 396 397 398 
692 347 93 453 
693 241 261 357 
694 219 221 226 
695 222 211 223 
696 262 246 357 
697 246 243 357 
698 159 157 372 
699 63 395 396 
700 283 284 380 
701 175 170 361 
702 153 151 363 
703 178 184 368 
704 351 106 352 
705 84 85 418 
706 83 326 419 
707 165 159 372 
708 184 175 361 
709 225 318 407 
710 285 263 384 
711 354 264 373 
712 192 195 362 
713 23 93 412 
714 6 87 437 
715 208 213 365 
716 360 163 366 
717 157 155 374 
718 196 192 362 
719 163 161 366 
720 161 165 366 
721 52 330 454 
722 254 354 373 
723 10 11 376 
724 341 268 420 
725 133 99 415 
726 151 203 363 
727 86 85 378 
728 195 205 362 
729 42 43 467 
730 279 254 373 
731 177 153 363 
732 139 114 351 
733 85 406 418 
734 155 177 374 
735 209 208 365 
736 147 236 367 
737 149 147 367 
738 186 368 369 
739 335 220 386 
740 62 1 434 
741 1 7 434 
742 20 2 435 
743 2 21 435 
744 346 105 435 
745 222 317 378 
746 213 218 365 
747 289 228 390 
748 372 157 374 
749 201 193 202 
750 357 261 381 
751 307 306 379 
752 273 275 401 
753 262 357 381 
754 79 78 417 
755 203 149 367 
756 344 345 411 
757 338 216 387 
758 350 278 377 
759 287 283 380 
760 27 28 442 
761 38 39 457 
762 313 143 444 
763 99 42 467 
764 334 272 447 
765 51 52 454 
766 177 363 375 
767 279 332 473 
768 284 281 427 
769 276 350 377 
770 268 260 420 
771 39 98 457 
772 301 299 464 
773 235 233 400 
774 185 336 385 
775 269 268 447 
776 60 61 383 
777 385 336 462 
778 259 277 420 
779 439 141 461 
780 84 83 419 
781 146 204 423 
782 382 440 466 
783 278 279 473 
784 263 262 384 
785 353 382 466 
786 206 209 405 
787 43 44 470 
788 235 400 463 
789 223 211 306 
790 66 65 399 
791 123 122 393 
792 77 78 388 
793 373 264 403 
794 67 68 391 
795 320 142 477 
796 277 276 455 
797 114 144 351 
798 334 97 411 
799 346 22 412 
800 414 138 415 
801 65 398 399 
802 382 138 414 
803 395 331 396 
804 211 201 379 
805 321 118 465 
806 262 381 384 
807 80 143 463 
808 186 369 462 
809 97 344 411 
810 238 389 428 
811 88 333 455 
812 193 185 385 
813 31 32 438 
814 32 33 439 
815 202 193 385 
816 111 321 382 
817 201 202 379 
818 306 211 379 
819 329 309 425 
820 25 26 402 
821 76 77 408 
822 50 51 430 
823 85 86 406 
824 280 273 401 
825 369 329 462 
826 391 116 422 
827 332 88 473 
828 22 23 412 
829 347 346 412 
830 375 363 389 
831 363 203 389 
832 264 265 403 
833 126 406 449 
834 408 134 450 
835 89 27 442 
836 404 127 452 
837 378 85 432 
838 106 144 426 
839 275 334 411 
840 205 206 405 
841 318 295 458 
842 103 127 404 
843 63 64 410 
844 265 285 413 
845 104 371 413 
846 310 328 416 
847 429 352 430 
848 7 371 434 
849 260 259 420 
850 373 403 456 
851 143 79 417 
852 240 375 389 
853 96 376 456 
854 281 280 427 
855 77 388 408 
856 362 205 409 
857 389 203 428 
858 205 405 409 
859 137 353 471 
860 66 399 475 
861 380 89 416 
862 104 62 434 
863 376 279 456 
864 105 20 435 
865 405 302 409 
866 85 84 432 
867 229 290 421 
868 5 63 429 
869 279 373 456 
870 71 70 433 
871 81 82 431 
872 74 73 436 
873 69 68 441 
874 377 88 455 
875 112 414 415 
876 388 78 446 
877 391 68 445 
878 227 229 424 
879 73 72 448 
880 83 84 443 
881 138 133 415 
882 68 69 445 
883 78 79 446 
884 272 269 447 
885 86 87 449 
886 75 76 450 
887 65 66 451 
888 371 104 434 
889 81 80 463 
890 88 377 473 
891 427 280 453 
892 436 73 448 
893 326 232 472 
894 406 125 418 
895 76 75 476 
896 76 408 450 
897 406 86 449 
898 229 421 424 
899 465 118 469 
900 74 75 459 
901 417 78 458 
902 64 65 460 
903 67 66 475 
904 111 382 414 
905 296 436 448 
906 336 186 462 
907 82 83 468 
908 70 71 465 
909 87 6 461 
910 69 70 469 
911 72 73 466 
912 73 74 471 
913 203 367 428 
914 397 331 423 
915 68 390 441 
916 410 64 460 
917 80 81 477 
918 204 421 474 
919 204 397 423 
920 117 391 445 
921 136 388 446 
922 415 99 467 
923 5 430 454 
924 382 321 440 
925 63 410 429 
926 141 439 452 
927 70 386 433 
928 84 419 432 
929 431 82 468 
930 459 137 471 
931 81 431 477 
932 84 418 443 
933 75 450 459 
934 83 443 468 
935 65 451 460 
936 196 362 464 
937 445 69 469 
938 362 409 464 
939 397 204 474 
940 72 387 448 
941 129 431 468 
942 421 288 424 
943 74 459 471 
944 401 347 453 
945 70 465 469 
946 127 141 452 
947 276 377 455 
948 449 87 461 
949 403 96 456 
950 98 393 457 
951 438 32 439 
952 377 278 473 
953 388 135 408 
954 394 74 436 
955 407 76 476 
956 409 301 464 
957 466 73 471 
958 143 417 444 
959 393 122 457 
960 66 422 451 
961 419 230 432 
962 416 89 442 
963 417 295 444 
964 280 401 453 
965 139 410 460 
966 439 33 452 
967 310 416 442 
968 431 320 477 
969 295 417 458 
970 418 128 443 
971 421 290 474 
972 440 72 466 
973 353 466 471 
974 419 326 472 
975 112 415 467 
976 422 115 451 
977 230 419 472 
978 430 51 454 
$EndElements
